<svg xmlns="http://www.w3.org/2000/svg" xmlns:xlink="http://www.w3.org/1999/xlink" preserveAspectRatio="xMidYMid" width="1566" height="409" viewBox="0 0 1566 409">
  <defs>
    <style>
      .cls-1 {
        fill: #0658ff;
      }

      .cls-1, .cls-2, .cls-3, .cls-4, .cls-5 {
        fill-rule: evenodd;
      }

      .cls-2 {
        fill: url(#linear-gradient-1);
      }

      .cls-3 {
        fill: url(#linear-gradient-2);
      }

      .cls-4 {
        fill: url(#linear-gradient-3);
      }

      .cls-5 {
        fill: url(#linear-gradient-4);
      }
    </style>

    <linearGradient id="linear-gradient-1" gradientUnits="userSpaceOnUse" x1="491.765" y1="342" x2="491.765" y2="11.47">
      <stop offset="0" stop-color="#06a4ff"/>
      <stop offset="1" stop-color="#0658ff"/>
    </linearGradient>
    <linearGradient id="linear-gradient-2" x1="834.281" y1="390" x2="834.281" y2="188.88" xlink:href="#linear-gradient-1"/>
    <linearGradient id="linear-gradient-3" x1="1317.5" y1="409" x2="1317.5" y2="19" xlink:href="#linear-gradient-1"/>
    <linearGradient id="linear-gradient-4" x1="592.047" y1="355" x2="592.047" y2="148.34" xlink:href="#linear-gradient-1"/>
  </defs>
  <g>
    <path d="M-2.000,104.000 L540.000,-0.000 L1566.000,38.000 L1566.000,320.000 L1226.000,409.000 L-2.000,303.000 L-2.000,104.000 Z" class="cls-1"/>
    <path d="M601.725,11.456 L695.544,101.274 L447.000,342.000 L288.000,327.000 L601.725,11.456 Z" class="cls-2"/>
    <path d="M684.572,284.250 L772.727,188.867 L984.000,390.000 L769.000,370.000 L684.572,284.250 Z" class="cls-3"/>
    <path d="M1069.000,19.000 L1457.000,34.000 L1566.000,320.000 L1226.000,409.000 L1069.000,19.000 Z" class="cls-4"/>
    <path d="M644.341,148.349 L738.106,238.223 L606.000,355.000 L446.000,341.000 L644.341,148.349 Z" class="cls-5"/>
  </g>
</svg>
