<svg height="480pt" viewBox="0 -2 480.20283 480" width="480pt" xmlns="http://www.w3.org/2000/svg"><path d="m414.832031 75.855469c-.292969-8.402344-7.039062-15.148438-15.441406-15.4375l-53.734375-1.851563-88.441406-3.054687c-4.433594-.152344-8.730469 1.542969-11.863282 4.679687l-232.671874 232.671875c-6.246094 6.25-6.246094 16.375 0 22.625l147.070312 147.078125c6.25 6.253906 16.382812 6.253906 22.632812 0l121.800782-121.796875 110.871094-110.875c3.132812-3.136719 4.824218-7.429687 4.671874-11.863281zm-40.121093 58.617187c-9.375 9.371094-24.570313 9.371094-33.941407-.003906-9.371093-9.371094-9.371093-24.566406 0-33.9375 9.371094-9.375 24.566407-9.375 33.941407-.003906 9.375 9.375 9.375 24.570312 0 33.945312zm0 0" fill="#c4e0ff"/><g fill="#096ef7"><path d="m255.917969 321.152344-101.824219-101.832032c-3.136719-3.03125-8.128906-2.988281-11.214844.097657-3.085937 3.085937-3.128906 8.074219-.097656 11.214843l101.824219 101.832032c3.140625 3.03125 8.128906 2.988281 11.214843-.097656 3.085938-3.085938 3.128907-8.074219.097657-11.214844zm0 0"/><path d="m120.183594 253.273438c-2.011719-2.082032-4.984375-2.914063-7.78125-2.183594-2.796875.734375-4.980469 2.917968-5.714844 5.714844-.730469 2.796874.101562 5.769531 2.183594 7.78125l101.800781 101.8125c2.007813 2.082031 4.980469 2.914062 7.777344 2.183593 2.796875-.734375 4.984375-2.917969 5.714843-5.714843.730469-2.796876-.101562-5.769532-2.183593-7.777344zm0 0"/><path d="m472.558594 306.417969c-4.386719-.519531-8.363282 2.617187-8.878906 7.007812-5.261719 43.835938-44.933594 75.195313-88.800782 70.191407-25.835937-3.003907-48.566406-18.464844-60.847656-41.394532l106.671875-106.664062c4.703125-4.703125 7.246094-11.148438 7.015625-17.796875l-2.609375-75.671875c33.785156-8.164063 56.917969-39.296875 54.980469-74-1.933594-34.703125-28.386719-63.070313-62.871094-67.421875-34.484375-4.351563-67.152344 16.550781-77.652344 49.683593l-82.070312-2.824218c-6.660156-.273438-13.125 2.269531-17.808594 7.007812l-232.671875 232.671875c-9.355469 9.382813-9.355469 24.5625 0 33.945313l147.078125 147.078125c9.371094 9.371093 24.566406 9.371093 33.9375 0l114.214844-114.214844c21.269531 35.027344 62.4375 52.675781 102.472656 43.941406 40.035156-8.738281 70.101562-41.933593 74.847656-82.636719.253906-2.109374-.339844-4.234374-1.65625-5.90625-1.316406-1.671874-3.242187-2.75-5.351562-2.996093zm-64.375-290.296875c27.6875.058594 51.171875 20.34375 55.265625 47.726562 4.089843 27.382813-12.445313 53.644532-38.90625 61.792969l-1.730469-50.054687c-.460938-12.59375-10.558594-22.691407-23.148438-23.160157l-43.289062-1.488281c8.617188-21.035156 29.078125-34.785156 51.808594-34.816406zm-231.464844 440.800781c-3.125 3.121094-8.1875 3.121094-11.3125 0l-147.070312-147.082031c-1.503907-1.5-2.347657-3.535156-2.347657-5.660156 0-2.121094.84375-4.160157 2.347657-5.660157l232.671874-232.671875c1.574219-1.558594 3.71875-2.402344 5.933594-2.335937l79.535156 2.738281c-.160156 1.941406-.292968 3.886719-.292968 5.871094.003906 6.652344.933594 13.273437 2.757812 19.671875-1.355468.921875-2.636718 1.953125-3.824218 3.085937-12.5 12.496094-12.5 32.761719-.003907 45.257813 12.496094 12.5 32.761719 12.5 45.257813 0 12.496094-12.496094 12.496094-32.761719-.003906-45.257813-6.980469-6.71875-16.617188-9.929687-26.234376-8.742187-1.238281-4.570313-1.894531-9.28125-1.949218-14.015625 0-1.792969.101562-3.570313.269531-5.320313l46.65625 1.597657c4.203125.144531 7.578125 3.519531 7.722656 7.722656l4.902344 142.183594c.074219 2.21875-.773437 4.367187-2.34375 5.933593zm168.71875-349.523437c1.769531 3.15625 3.769531 6.171874 5.984375 9.027343 1.726563 2.34375 4.589844 3.570313 7.480469 3.191407 2.886718-.375 5.34375-2.292969 6.410156-5.003907 1.066406-2.707031.574219-5.785156-1.28125-8.027343-1.183594-1.523438-2.113281-3.203126-3.128906-4.800782 5.78125 1.164063 10.453125 5.414063 12.15625 11.058594 1.707031 5.644531.167968 11.769531-4.003906 15.941406-6.328126 6.046875-16.296876 6.046875-22.625 0-5.847657-5.796875-6.28125-15.105468-.992188-21.417968zm0 0"/></g></svg>
