<?xml version="1.0" encoding="utf-8"?>
<!-- Generator: Adobe Illustrator 16.0.0, SVG Export Plug-In . SVG Version: 6.00 Build 0)  -->
<!DOCTYPE svg PUBLIC "-//W3C//DTD SVG 1.1//EN" "http://www.w3.org/Graphics/SVG/1.1/DTD/svg11.dtd">
<svg version="1.1" id="Layer_1" xmlns="http://www.w3.org/2000/svg" xmlns:xlink="http://www.w3.org/1999/xlink" x="0px" y="0px"
	 width="561px" height="350px" viewBox="96.5 146.5 561 350" style="enable-background:new 96.5 146.5 561 350;"
	 xml:space="preserve">
<style type="text/css">
<![CDATA[
	.st0{display:none;fill:#FFFFFF;}
	.st1{fill:#131313;}
	.st2{fill:#1572B6;}
	.st3{fill:#EBEBEB;}
	.st4{display:none;fill:#010101;}
	.st5{fill:#FFFFFF;}
	.st6{display:none;fill:#E44F26;}
	.st7{fill:#33A9DC;}
	.st8{display:none;fill:#EBEBEB;}
	.st9{display:none;fill:#F1662A;}
]]>
</style>
<polygon class="st6" points="382.901,455.574 355.83,151.955 653.281,151.955 626.182,455.525 504.373,489.295 "/>
<polygon class="st9" points="504.556,463.483 602.983,436.195 626.14,176.78 504.556,176.78 "/>
<polygon class="st8" points="504.556,289.389 455.281,289.389 451.876,251.257 504.556,251.257 504.556,214.018 504.427,214.018 
	411.181,214.018 412.073,224.009 421.225,326.625 504.556,326.625 "/>
<polygon class="st8" points="504.556,386.097 504.393,386.143 462.92,374.943 460.269,345.246 440.117,345.246 422.889,345.246 
	428.106,403.713 504.384,424.889 504.556,424.841 "/>
<path class="st4" d="M101.505,279.443h18.925v18.696h17.311v-18.696h18.925v56.618h-18.924v-18.958h-17.31v18.958h-18.927V279.443
	L101.505,279.443z"/>
<path class="st4" d="M181.55,298.219h-16.66v-18.775h52.252v18.775h-16.667v37.843h-18.924L181.55,298.219L181.55,298.219z"/>
<path class="st4" d="M225.435,279.443h19.732l12.138,19.895l12.127-19.895h19.738v56.618h-18.846v-28.063l-13.021,20.131h-0.325
	l-13.028-20.131v28.063h-18.517L225.435,279.443L225.435,279.443z"/>
<path class="st4" d="M298.588,279.443h18.93v37.903h26.611v18.714h-45.542L298.588,279.443L298.588,279.443z"/>
<polygon class="st0" points="504.427,289.389 504.427,326.625 550.281,326.625 545.958,374.918 504.427,386.129 504.427,424.871 
	580.767,403.713 581.325,397.423 590.076,299.388 590.985,289.389 580.95,289.389 "/>
<polygon class="st0" points="504.427,214.018 504.427,237.146 504.427,251.165 504.427,251.257 594.253,251.257 594.253,251.257 
	594.373,251.257 595.12,242.887 596.817,224.009 597.707,214.018 "/>
<g>
	<path class="st1" d="M343.163,294.681h-24.688l25.674,27.859v13.261h-52.882v-15.525h25.669l-25.669-27.86v-13.28h51.896V294.681
		L343.163,294.681z M280.785,294.681h-24.688l25.673,27.859v13.261h-52.882v-15.525h25.672l-25.672-27.86v-13.28h51.896V294.681
		L280.785,294.681z M219.018,295.312h-26.64v24.313h26.64v16.176h-45.574v-56.666h45.574V295.312z"/>
</g>
<polygon class="st2" points="383.121,455.779 356.05,152.159 653.5,152.159 626.405,455.73 504.593,489.5 "/>
<polygon class="st7" points="504.778,463.688 603.204,436.4 626.362,176.985 504.778,176.985 "/>
<g>
	<polygon class="st5" points="504.777,286.985 554.051,286.985 557.454,248.854 504.777,248.854 504.777,211.614 504.906,211.614 
		598.152,211.614 597.258,221.605 588.107,324.222 504.777,324.222 	"/>
	<polygon class="st3" points="504.999,383.693 504.836,383.739 463.365,372.54 460.712,342.843 440.561,342.843 423.333,342.843 
		428.549,401.31 504.827,422.485 504.999,422.438 	"/>
	<polygon class="st5" points="550.886,322.646 546.403,372.515 504.87,383.726 504.87,422.467 581.209,401.31 581.769,395.019 
		588.247,322.646 	"/>
	<polygon class="st3" points="504.906,211.614 504.906,234.742 504.906,248.761 504.906,248.854 415.077,248.854 415.077,248.854 
		414.958,248.854 414.211,240.483 412.514,221.605 411.624,211.614 	"/>
	<polygon class="st3" points="504.777,286.989 504.777,310.118 504.777,324.136 504.777,324.228 463.948,324.228 463.948,324.228 
		463.829,324.228 463.083,315.858 461.385,296.98 460.495,286.989 	"/>
</g>
</svg>
