<?xml version="1.0" encoding="utf-8"?>
<!-- Generator: Adobe Illustrator 16.0.0, SVG Export Plug-In . SVG Version: 6.00 Build 0)  -->
<!DOCTYPE svg PUBLIC "-//W3C//DTD SVG 1.1//EN" "http://www.w3.org/Graphics/SVG/1.1/DTD/svg11.dtd">
<svg version="1.1" id="Layer_1" xmlns="http://www.w3.org/2000/svg" xmlns:xlink="http://www.w3.org/1999/xlink" x="0px" y="0px"
	 width="561px" height="350px" viewBox="96.5 146.5 561 350" style="enable-background:new 96.5 146.5 561 350;"
	 xml:space="preserve">
<style type="text/css">
<![CDATA[
	.st0{fill:#E44F26;}
	.st1{display:inline;fill:#EBEBEB;}
	.st2{display:none;fill:#33A9DC;}
	.st3{fill:#EBEBEB;}
	.st4{fill:#F1662A;}
	.st5{display:inline;fill:#FFFFFF;}
	.st6{fill:#FFFFFF;}
	.st7{display:none;fill:#1572B6;}
	.st8{fill:#010101;}
	.st9{display:none;}
	.st10{display:inline;fill:#131313;}
]]>
</style>
<polygon class="st0" points="382.901,455.574 355.83,151.955 653.281,151.955 626.182,455.525 504.373,489.295 "/>
<polygon class="st4" points="504.556,463.483 602.983,436.195 626.14,176.78 504.556,176.78 "/>
<polygon class="st3" points="504.556,289.389 455.281,289.389 451.876,251.257 504.556,251.257 504.556,214.018 504.427,214.018 
	411.181,214.018 412.073,224.009 421.225,326.625 504.556,326.625 "/>
<polygon class="st3" points="504.556,386.097 504.393,386.143 462.92,374.943 460.269,345.246 440.117,345.246 422.889,345.246 
	428.106,403.713 504.384,424.889 504.556,424.841 "/>
<path class="st8" d="M101.505,279.443h18.925v18.696h17.311v-18.696h18.925v56.618h-18.924v-18.958h-17.31v18.958h-18.927V279.443
	L101.505,279.443z"/>
<path class="st8" d="M181.55,298.219h-16.66v-18.775h52.252v18.775h-16.667v37.843h-18.924L181.55,298.219L181.55,298.219z"/>
<path class="st8" d="M225.435,279.443h19.732l12.138,19.895l12.127-19.895h19.738v56.618h-18.846v-28.063l-13.021,20.131h-0.325
	l-13.028-20.131v28.063h-18.517L225.435,279.443L225.435,279.443z"/>
<path class="st8" d="M298.588,279.443h18.93v37.903h26.611v18.714h-45.542L298.588,279.443L298.588,279.443z"/>
<polygon class="st6" points="504.427,289.389 504.427,326.625 550.281,326.625 545.958,374.918 504.427,386.129 504.427,424.871 
	580.767,403.713 581.325,397.423 590.076,299.388 590.985,289.389 580.95,289.389 "/>
<polygon class="st6" points="504.427,214.018 504.427,237.146 504.427,251.165 504.427,251.257 594.253,251.257 594.253,251.257 
	594.373,251.257 595.12,242.887 596.817,224.009 597.707,214.018 "/>
<g class="st9">
	<path class="st10" d="M685.163,96.681h-24.688l25.674,27.859v13.261h-52.882v-15.526h25.669l-25.669-27.86v-13.28h51.896V96.681
		L685.163,96.681z M622.785,96.681h-24.688l25.673,27.859v13.261h-52.882v-15.526h25.672l-25.672-27.86v-13.28h51.896V96.681
		L622.785,96.681z M561.018,97.312h-26.64v24.313h26.64v16.176h-45.574V81.135h45.574V97.312z"/>
</g>
<polygon class="st7" points="479.142,467.29 452.071,163.67 749.521,163.67 722.425,467.241 600.614,501.011 "/>
<polygon class="st2" points="600.798,475.199 699.225,447.911 722.382,188.496 600.798,188.496 "/>
<g class="st9">
	<polygon class="st5" points="600.797,298.496 650.072,298.496 653.475,260.364 600.797,260.364 600.797,223.125 600.926,223.125 
		694.172,223.125 693.279,233.116 684.127,335.732 600.797,335.732 	"/>
	<polygon class="st1" points="601.02,395.204 600.857,395.25 559.385,384.051 556.733,354.354 536.581,354.354 519.354,354.354 
		524.57,412.82 600.848,433.996 601.02,433.948 	"/>
	<polygon class="st5" points="646.906,334.156 642.423,384.025 600.891,395.236 600.891,433.978 677.23,412.82 677.789,406.529 
		684.268,334.156 	"/>
	<polygon class="st1" points="600.926,223.125 600.926,246.253 600.926,260.272 600.926,260.364 511.098,260.364 511.098,260.364 
		510.979,260.364 510.232,251.994 508.534,233.116 507.645,223.125 	"/>
	<polygon class="st1" points="600.797,298.5 600.797,321.629 600.797,335.646 600.797,335.738 559.969,335.738 559.969,335.738 
		559.85,335.738 559.104,327.369 557.406,308.491 556.516,298.5 	"/>
</g>
</svg>
