<?xml version="1.0" encoding="utf-8"?>
<!-- Generator: Adobe Illustrator 16.0.0, SVG Export Plug-In . SVG Version: 6.00 Build 0)  -->
<!DOCTYPE svg PUBLIC "-//W3C//DTD SVG 1.1//EN" "http://www.w3.org/Graphics/SVG/1.1/DTD/svg11.dtd">
<svg version="1.1" xmlns="http://www.w3.org/2000/svg" xmlns:xlink="http://www.w3.org/1999/xlink" x="0px" y="0px" width="473px"
	 height="350px" viewBox="184.5 146.5 473 350" style="enable-background:new 184.5 146.5 473 350;" xml:space="preserve">
<style type="text/css">
<![CDATA[
	.st0{display:none;fill:#FFFFFF;}
	.st1{fill:#131313;}
	.st2{fill:#1572B6;}
	.st3{fill:#EBEBEB;}
	.st4{display:none;fill:#010101;}
	.st5{fill:#FFDA3E;}
	.st6{fill:#FFFFFF;}
	.st7{display:none;fill:#E44F26;}
	.st8{fill:#33A9DC;}
	.st9{display:none;fill:#EBEBEB;}
	.st10{fill:#D6BA32;}
	.st11{display:none;fill:#F1662A;}
	.st12{display:none;}
	.st13{display:inline;fill:#131313;}
]]>
</style>
<g id="Layer_1">
	<polygon class="st7" points="382.901,455.574 355.83,151.955 653.281,151.955 626.182,455.525 504.373,489.295 	"/>
	<polygon class="st11" points="504.556,463.483 602.983,436.195 626.14,176.78 504.556,176.78 	"/>
	<polygon class="st9" points="504.556,289.389 455.281,289.389 451.876,251.257 504.556,251.257 504.556,214.018 504.427,214.018 
		411.181,214.018 412.073,224.009 421.225,326.625 504.556,326.625 	"/>
	<polygon class="st9" points="504.556,386.097 504.393,386.143 462.92,374.943 460.269,345.246 440.117,345.246 422.889,345.246 
		428.106,403.713 504.384,424.889 504.556,424.841 	"/>
	<path class="st4" d="M101.505,279.443h18.925v18.696h17.311v-18.696h18.925v56.618h-18.924v-18.958h-17.31v18.958h-18.927V279.443
		L101.505,279.443z"/>
	<path class="st4" d="M181.55,298.219h-16.66v-18.775h52.252v18.775h-16.667v37.843h-18.924L181.55,298.219L181.55,298.219z"/>
	<path class="st4" d="M225.435,279.443h19.732l12.138,19.895l12.127-19.895h19.738v56.618h-18.846v-28.063l-13.021,20.131h-0.325
		l-13.028-20.131v28.063h-18.517L225.435,279.443L225.435,279.443z"/>
	<path class="st4" d="M298.588,279.443h18.93v37.903h26.611v18.714h-45.542L298.588,279.443L298.588,279.443z"/>
	<polygon class="st0" points="504.427,289.389 504.427,326.625 550.281,326.625 545.958,374.918 504.427,386.129 504.427,424.871 
		580.767,403.713 581.325,397.423 590.076,299.388 590.985,289.389 580.95,289.389 	"/>
	<polygon class="st0" points="504.427,214.018 504.427,237.146 504.427,251.165 504.427,251.257 594.253,251.257 594.253,251.257 
		594.373,251.257 595.12,242.887 596.817,224.009 597.707,214.018 	"/>
	<g class="st12">
		<path class="st13" d="M343.163,294.681h-24.688l25.674,27.859v13.261h-52.882v-15.525h25.669l-25.669-27.86v-13.28h51.896V294.681
			L343.163,294.681z M280.785,294.681h-24.688l25.673,27.859v13.261h-52.882v-15.525h25.672l-25.672-27.86v-13.28h51.896V294.681
			L280.785,294.681z M219.018,295.312h-26.64v24.313h26.64v16.176h-45.574v-56.666h45.574V295.312z"/>
	</g>
	<polygon class="st2" points="383.121,455.779 356.05,152.159 653.5,152.159 626.405,455.73 504.593,489.5 	"/>
	<polygon class="st8" points="504.778,463.688 603.204,436.4 626.362,176.985 504.778,176.985 	"/>
	<g>
		<polygon class="st6" points="504.777,286.985 554.051,286.985 557.454,248.854 504.777,248.854 504.777,211.614 504.906,211.614 
			598.152,211.614 597.258,221.605 588.107,324.222 504.777,324.222 		"/>
		<polygon class="st3" points="504.999,383.693 504.836,383.739 463.365,372.54 460.712,342.843 440.561,342.843 423.333,342.843 
			428.549,401.31 504.827,422.485 504.999,422.438 		"/>
		<polygon class="st6" points="550.886,322.646 546.403,372.515 504.87,383.726 504.87,422.467 581.209,401.31 581.769,395.019 
			588.247,322.646 		"/>
		<polygon class="st3" points="504.906,211.614 504.906,234.742 504.906,248.761 504.906,248.854 415.077,248.854 415.077,248.854 
			414.958,248.854 414.211,240.483 412.514,221.605 411.624,211.614 		"/>
		<polygon class="st3" points="504.777,286.989 504.777,310.118 504.777,324.136 504.777,324.228 463.948,324.228 463.948,324.228 
			463.829,324.228 463.083,315.858 461.385,296.98 460.495,286.989 		"/>
	</g>
	<polygon class="st1" points="351.507,267.228 279.445,267.228 279.445,338.615 322.798,338.615 322.798,353.955 279.445,353.955 
		279.445,382.664 351.507,382.664 351.507,309.906 308,309.906 308,296.5 351.507,296.5 	"/>
	<polyline class="st1" points="263.445,269.5 234.736,269.5 234.736,353.955 191.383,353.955 191.383,382.664 263.445,382.664 	"/>
</g>
<g id="Layer_2">
	<polygon class="st10" points="356.05,152.159 654.08,152.159 627.421,456.342 509.851,491.654 502.331,491.654 382.709,457.709 	
		"/>
	<polygon class="st5" points="505.748,179.501 627.421,179.501 604.181,439.252 505.748,467.962 	"/>
	<polygon class="st6" points="612.383,216.413 516.686,216.413 516.686,347.656 576.156,336.72 574.787,366.112 516.686,382.518 
		516.686,417.379 597.345,396.188 604.864,298.44 546.079,304.592 546.079,253.325 608.282,253.325 	"/>
	<polygon class="st6" points="493.445,216.413 464.736,216.413 464.736,374.315 405.949,357.91 405.949,392.771 493.445,417.379 	
		"/>
</g>
</svg>
