<?xml version="1.0" encoding="utf-8"?>
<!-- Generator: Adobe Illustrator 16.0.0, SVG Export Plug-In . SVG Version: 6.00 Build 0)  -->
<!DOCTYPE svg PUBLIC "-//W3C//DTD SVG 1.1//EN" "http://www.w3.org/Graphics/SVG/1.1/DTD/svg11.dtd">
<svg version="1.1" id="Layer_1" xmlns="http://www.w3.org/2000/svg" xmlns:xlink="http://www.w3.org/1999/xlink" x="0px" y="0px"
	 width="337px" height="211px" viewBox="0 0 337 211" style="enable-background:new 0 0 337 211;" xml:space="preserve">
<path d="M308.797,205.572H30.205c-13.075,0-23.637-10.561-23.637-23.636V29.063c0-13.074,10.562-23.635,23.637-23.635h278.592
	c13.074,0,23.635,10.561,23.635,23.635v153.377C331.93,195.012,321.367,205.572,308.797,205.572L308.797,205.572z M30.205,21.016
	c-4.526,0-8.048,3.52-8.048,8.046v153.377c0,4.525,3.521,8.046,8.048,8.046h278.592c4.525,0,8.047-3.521,8.047-8.046V29.062
	c0-4.526-3.521-8.046-8.047-8.046H30.205L30.205,21.016z M53.337,158.805V52.697h31.179l31.178,39.225l31.179-39.225h31.179v106.608
	h-31.179V97.955l-31.179,39.225L84.515,97.955v60.849L53.337,158.805L53.337,158.805z M248.953,158.805l-46.768-51.797h31.18V52.697
	h31.178v54.813h31.18L248.953,158.805L248.953,158.805z"/>
</svg>
