<?xml version="1.0" encoding="utf-8"?>
<!-- Generator: Adobe Illustrator 16.0.0, SVG Export Plug-In . SVG Version: 6.00 Build 0)  -->
<!DOCTYPE svg PUBLIC "-//W3C//DTD SVG 1.1//EN" "http://www.w3.org/Graphics/SVG/1.1/DTD/svg11.dtd">
<svg version="1.1" id="Layer_1" xmlns="http://www.w3.org/2000/svg" xmlns:xlink="http://www.w3.org/1999/xlink" x="0px" y="0px"
	 width="581.5px" height="206px" viewBox="30.5 325.5 581.5 206" style="enable-background:new 30.5 325.5 581.5 206;"
	 xml:space="preserve">
<style type="text/css">
<![CDATA[
	.st0{fill:#4D4D4D;}
	.st1{fill:#808080;}
	.st2{fill:#ED1C24;}
	.st3{fill:#F7BD89;}
	.st4{fill:#C1272D;}
	.st5{fill:#FBD5A0;}
	.st6{fill:#FF931E;}
	.st7{fill:#FFB81E;}
	.st8{fill:#FFFFFF;}
	.st9{fill:none;stroke:#4D4D4D;stroke-width:4.1593;stroke-miterlimit:10;}
	.st10{display:none;fill:#F2F2F2;}
]]>
</style>
<g>
	<circle class="st10" cx="167.153" cy="396.03" r="167.152"/>
	<path class="st2" d="M217.498,494.96c-33.017,12.161-69.256,12.161-102.273,0c-3.04-1.095-5.473-4.683-5.473-7.783
		c0-2.676,0-5.29,0-7.966c0-3.101,2.433-4.621,5.473-3.526c33.018,12.161,69.257,12.161,102.273,0
		c3.041-1.095,5.473,0.426,5.473,3.526c0,2.676,0,5.29,0,7.966C222.91,490.277,220.478,493.865,217.498,494.96z"/>
	<path class="st4" d="M217.498,485.231c-33.017,16.903-69.256,16.903-102.273,0c-3.04-1.521-5.473-6.507-5.473-10.823
		c0-3.648,0-7.357,0-11.006c0-4.317,2.433-6.445,5.473-4.864c33.018,16.903,69.257,16.903,102.273,0
		c3.041-1.521,5.473,0.547,5.473,4.864c0,3.648,0,7.357,0,11.006C222.91,478.725,220.478,483.711,217.498,485.231z"/>
	<circle class="st4" cx="166.362" cy="499.094" r="4.682"/>
	<circle class="st6" cx="166.362" cy="498.425" r="4.013"/>
	<circle class="st7" cx="167.517" cy="499.824" r="1.398"/>
	<path class="st3" d="M267.845,412.387c3.04,41.651-42.016,79.046-100.875,78.985c-58.798,0.061-103.915-37.334-100.875-78.985
		c3.04-41.772,48.34-76.249,100.996-76.31C219.809,336.138,264.744,370.614,267.845,412.387z"/>
	<path class="st5" d="M166.787,330.24c-55.332,0-106.712,38.976-96.983,98.321c1.945,5.473,5.168,19.701,20.552,32.288
		c4.621,3.77,12.587,6.932,16.356,4.378c9.668-6.567-7.479-25.417,12.101-42.807c0,0-0.122,0-0.426,0
		c10.641-8.088,25.721-14.533,48.279-14.533s37.638,6.445,48.278,14.533c-0.243,0-0.426,0-0.426,0
		c19.579,17.39,2.493,36.239,12.101,42.807c3.77,2.554,11.796-0.608,16.356-4.378c15.384-12.587,18.667-26.815,20.612-32.288
		C273.318,369.155,222.119,330.24,166.787,330.24z"/>
	<path d="M214.398,428.804c-9.304-11.431-26.937-22.497-47.428-22.497h-0.183h-0.061c-20.552,0-38.186,11.066-47.428,22.497
		c-9.607,11.675-6.142,16.661-6.142,27.849c0,40.496,14.168,28.7,23.714,33.564c9.729,4.743,19.579,3.04,29.916,3.04l0,0h0.183
		c10.337,0,20.188,1.703,29.916-3.101c9.485-4.864,23.714,7.054,23.714-33.442C220.539,445.586,224.005,440.479,214.398,428.804z"/>
	<g>
		<circle class="st3" cx="98.504" cy="410.806" r="16.965"/>
		<circle class="st3" cx="102.882" cy="403.206" r="4.378"/>
	</g>
	<g>
		<circle cx="100.024" cy="407.948" r="16.965"/>
		<circle class="st8" cx="104.341" cy="400.348" r="4.378"/>
	</g>
	<g>
		<circle class="st3" cx="234.706" cy="410.806" r="16.965"/>
		<circle class="st3" cx="239.084" cy="403.206" r="4.378"/>
	</g>
	<g>
		<circle cx="233.734" cy="407.948" r="16.965"/>
		<circle class="st8" cx="238.051" cy="400.348" r="4.378"/>
	</g>
	<path class="st3" d="M131.095,345.441c0,0-57.46,9.911-59.771,78.56c-0.062,1.033-1.156,1.702-2.067,1.155l-1.824-1.095
		l-1.398-17.999l2.614-36.726l23.957-17.694l21.524-8.695L131.095,345.441z"/>
	<path class="st3" d="M202.419,345.441c0,0,57.46,9.911,59.771,78.56c0.062,1.033,1.155,1.702,2.067,1.155l1.824-1.095l1.398-17.999
		l-2.614-36.726l-23.957-17.694l-21.524-8.695L202.419,345.441z"/>
	<line class="st9" x1="166.848" y1="433.061" x2="166.848" y2="469.361"/>
	<g>
		<path d="M131.095,345.441c0,0-67.676,9.364-61.838,76.553c0.304,3.405-13.499-14.532-24.201-20.005
			c-10.701-5.472-10.336-23.167-10.336-23.167s-0.183-30.828,43.05-39.949C120.941,329.814,131.095,345.441,131.095,345.441z"/>
		<path d="M202.419,345.441c0,0,67.676,9.364,61.838,76.553c-0.304,3.405,13.499-14.532,24.201-20.005
			c10.701-5.472,10.336-23.167,10.336-23.167s0.183-30.828-43.05-39.949C212.573,329.814,202.419,345.441,202.419,345.441z"/>
	</g>
	<path class="st3" d="M166.848,393.841c-21.038,0-42.319,20.674-37.881,18.364c8.209-4.318,12.951-11.918,37.881-11.918
		c24.931,0,29.612,7.6,37.882,11.918C209.168,414.516,187.887,393.841,166.848,393.841z"/>
	<path class="st3" d="M166.848,384.782c-15.991,0-32.104,15.687-28.761,13.924c6.264-3.284,14.29-9.06,28.761-9.06
		c14.472,0,22.498,5.776,28.761,9.06C198.953,400.469,182.84,384.782,166.848,384.782z"/>
	<path class="st3" d="M166.727,333.888c-17.634,0-35.51,10.094-31.801,8.938c6.932-2.128,15.809-5.837,31.801-5.837
		c15.991,0,24.869,3.709,31.801,5.837C202.237,343.981,184.421,333.888,166.727,333.888z"/>
	<g>
		<path class="st0" d="M167.153,467.537c-3.892,0.121-9.121,2.554-14.168,4.073c-4.804,1.643-9.425,2.311-7.601,2.615
			c6.263,0.243,13.194-2.128,21.769-2.007c8.513-0.121,15.444,2.25,21.768,2.007c1.824-0.243-2.797-0.912-7.601-2.615
			C176.273,470.091,170.983,467.658,167.153,467.537z"/>
	</g>
	<path class="st0" d="M182.718,421.386c2.007,4.439-4.925,11.675-15.931,11.675s-17.938-7.235-15.931-11.675
		c1.945-4.56,8.938-6.02,15.931-6.08C173.78,415.366,180.773,416.826,182.718,421.386z"/>
	<path class="st1" d="M170.801,418.953c0.486,1.096-1.217,2.858-3.953,2.858s-4.438-1.763-3.952-2.858
		c0.486-1.094,2.189-1.459,3.952-1.52C168.551,417.434,170.314,417.799,170.801,418.953z"/>
	<circle class="st6" cx="166.362" cy="514.295" r="12.526"/>
	<circle class="st7" cx="166.362" cy="514.417" r="11.249"/>
	<g>
		<path class="st6" d="M169.646,510.83c0.668,0.607,1.033,1.459,1.033,2.675c0,1.217-0.365,2.067-1.033,2.676
			c-0.73,0.547-1.764,0.852-3.223,0.852h-1.277v2.736h-2.189v-9.79h3.467C167.882,509.979,168.977,510.222,169.646,510.83z
			 M168.065,514.66c0.243-0.304,0.364-0.729,0.364-1.276c0-0.548-0.183-0.973-0.486-1.216c-0.364-0.244-0.852-0.365-1.581-0.365
			h-1.216v3.283h1.459C167.335,515.086,167.822,514.965,168.065,514.66z"/>
	</g>
	<g>
		<path class="st0" d="M395.784,353.406h26.085v0.851c1.824-0.79,3.71-1.459,5.655-1.945c1.945-0.487,3.892-0.73,5.959-0.73
			c4.378,0,8.452,0.852,12.222,2.493s7.054,3.892,9.789,6.749c2.798,2.858,4.926,6.202,6.507,9.972
			c1.581,3.831,2.311,7.844,2.311,12.1c0,4.317-0.729,8.391-2.25,12.161c-1.521,3.831-3.648,7.114-6.385,9.972
			s-6.02,5.047-9.789,6.689c-3.771,1.641-7.905,2.432-12.404,2.432c-2.554,0-4.926-0.243-7.114-0.73
			c-2.189-0.486-4.317-1.154-6.324-2.066v13.072h11.432v15.81h-38.976v-15.81h9.789v-55.332h-6.445v-15.688H395.784z
			 M432.206,367.574c-2.432,0-4.682,0.608-6.81,1.885c-2.129,1.277-3.892,3.04-5.352,5.351v16.843
			c1.217,1.946,2.919,3.587,5.047,4.804c2.129,1.216,4.5,1.824,7.176,1.824c1.945,0,3.83-0.364,5.594-1.155
			c1.764-0.73,3.283-1.824,4.621-3.162c1.276-1.337,2.371-2.979,3.101-4.864c0.791-1.885,1.155-3.892,1.155-6.081
			c0-2.432-0.364-4.621-1.155-6.506c-0.729-1.946-1.763-3.527-3.101-4.865c-1.338-1.337-2.858-2.371-4.621-3.04
			C436.098,367.938,434.213,367.574,432.206,367.574z"/>
		<path class="st0" d="M506.936,353.406h28.274v43.962h7.235v15.81H517.09v-5.107c-2.067,1.824-4.438,3.283-7.175,4.256
			s-5.898,1.52-9.485,1.52c-3.284,0-6.445-0.547-9.364-1.58c-2.919-1.034-5.473-2.615-7.661-4.682
			c-2.189-2.068-3.892-4.744-5.107-7.905c-1.277-3.162-1.886-6.871-1.886-11.127v-19.396h-7.782v-15.809h26.449v35.206
			c0,4.013,1.034,6.993,3.041,9c2.067,2.006,4.682,2.979,7.965,2.979c2.311,0,4.378-0.729,6.263-2.127
			c1.886-1.398,3.223-3.345,4.074-5.777v-23.41h-9.485V353.406z"/>
		<path class="st0" d="M592.549,410.076c-2.129,1.217-4.317,2.129-6.445,2.676c-2.129,0.547-4.378,0.79-6.567,0.79
			c-4.621,0-8.877-0.79-12.769-2.371s-7.236-3.771-10.094-6.567c-2.797-2.797-5.047-6.08-6.628-9.911
			c-1.581-3.831-2.371-7.965-2.371-12.404c0-4.196,0.729-8.148,2.25-11.857c1.52-3.709,3.647-6.932,6.384-9.729
			c2.736-2.797,6.02-4.986,9.79-6.627c3.83-1.642,7.965-2.432,12.404-2.493c2.736,0.061,5.229,0.304,7.539,0.852
			c2.312,0.547,4.439,1.277,6.445,2.189v-1.277H610v57.339c0,5.046-0.852,9.425-2.615,13.073c-1.702,3.647-4.074,6.688-6.932,9.12
			c-2.919,2.433-6.263,4.195-10.154,5.351c-3.831,1.155-7.904,1.764-12.101,1.764c-5.229,0-10.093-0.729-14.532-2.128
			c-4.438-1.398-8.391-3.345-11.856-5.776l7.235-12.83c2.676,1.703,5.533,3.04,8.635,4.013c3.101,0.974,6.566,1.46,10.397,1.46
			c2.067,0,4.013-0.243,5.716-0.669c1.763-0.486,3.283-1.216,4.56-2.311c1.277-1.095,2.311-2.554,3.041-4.438
			c0.729-1.824,1.094-4.195,1.094-6.993v-0.243H592.549z M580.084,397.551c2.675,0,5.107-0.669,7.296-2.067
			c2.189-1.338,3.892-3.162,5.169-5.412l0.121-14.533c-1.338-2.432-3.101-4.317-5.351-5.776c-2.25-1.398-4.743-2.128-7.357-2.189
			c-1.885,0.061-3.709,0.426-5.533,1.155c-1.824,0.73-3.405,1.703-4.682,3.041c-1.338,1.337-2.372,2.857-3.162,4.621
			c-0.79,1.763-1.155,3.77-1.155,5.958c0,2.311,0.365,4.378,1.155,6.263s1.824,3.466,3.101,4.804
			c1.277,1.337,2.858,2.311,4.621,3.04C576.071,397.186,578.017,397.551,580.084,397.551z"/>
	</g>
</g>
</svg>
