<?xml version="1.0" encoding="utf-8"?>
<!-- Generator: Adobe Illustrator 16.0.0, SVG Export Plug-In . SVG Version: 6.00 Build 0)  -->
<!DOCTYPE svg PUBLIC "-//W3C//DTD SVG 1.1//EN" "http://www.w3.org/Graphics/SVG/1.1/DTD/svg11.dtd">
<svg version="1.1" id="Layer_1" xmlns="http://www.w3.org/2000/svg" xmlns:xlink="http://www.w3.org/1999/xlink" x="0px" y="0px"
	 width="498.152px" height="149.23px" viewBox="0 0 498.152 149.23" style="enable-background:new 0 0 498.152 149.23;"
	 xml:space="preserve">
<style type="text/css">
<![CDATA[
	.st0{fill:#E01765;}
	.st1{fill:#E8A723;}
	.st2{fill:#1A937D;}
	.st3{fill:#65863A;}
	.st4{fill:#CC2027;}
	.st5{fill:#361238;}
	.st6{fill:#3EB890;}
	.st7{fill:#70CADB;}
	.st8{fill:#443642;}
]]>
</style>
<title>background</title>
<title>Layer 1</title>
<path class="st8" d="M175.998,75.543c0-14.818,10.805-25.165,30.438-25.165c11.979,0,21.783,3.825,27.094,7.572
	c0.76,0.535,2.116,1.833,1.303,4.247c-1.042,2.6-2.952,6.51-4.323,9.05c-0.799,1.479-2.836,1.285-3.881,0.756
	c-3.782-1.917-9.987-5.16-15.688-5.758c-1.399-0.147-2.869-0.228-4.347-0.188c-5.021,0.112-9.214,1.855-10.691,5.686
	c-0.297,0.762-0.457,1.522-0.477,2.273c-0.139,5.046,6.886,6.873,15.395,8.333c15.819,2.711,27.787,7.35,27.787,23.631
	c0,13.826-10.989,26.322-32.52,25.939c-14.194-0.287-24.265-5.082-29.66-9.736c-0.185-0.158-2.238-2.25-1.138-4.766
	c1.261-3.24,3.388-6.951,5.057-8.922c0.928-1.268,3.377-1.467,4.649-0.68c4.448,2.766,11.769,7.197,20.206,7.49
	c0.666,0.023,1.326,0.027,1.975,0.01c7.59-0.184,12.182-3.061,12.086-7.908c-0.082-4.271-6.101-6.768-15.684-8.572
	C188.296,95.957,176,90.918,176,75.543"/>
<path class="st8" d="M314.851,96.642c-10.778,0.141-20.66,3.086-20.945,11.51c-0.003,6.684,5.419,9.967,13.029,9.537
	c7.3-0.703,12.867-3.869,15.32-8.07c0.907-1.557,1.045-7.383,0.99-9.873c-0.015-0.529-1.063-1.533-1.521-1.727
	c-2.29-0.965-3.985-1.262-6.874-1.379 M278.988,62.702c5.04-4.511,15.033-11.53,30.959-11.16c21.018,0.437,32.12,10.29,33.154,33.86
	c0.426,9.721-0.28,36.832-0.448,43.588c-0.024,0.969-0.353,1.639-1.658,1.664c-3.462,0.139-11.457,0.084-15.132,0.035
	c-1.854-0.09-2.068-1.01-2.093-1.973c-0.016-0.631-0.07-2.498-0.109-4.021c-0.021-0.809-0.779-0.785-0.974-0.578
	c-4.93,5.264-13.004,7.807-21.59,7.807c-13.05,0-26.061-7.678-26.021-22.881c0.04-15.57,11.08-23.25,23.209-25.061
	c7.766-1.156,16.52-0.129,23.148,2.506c0.424,0.17,1.29-0.076,1.297-0.678c0.027-1.982-0.068-5.764-0.45-7.557
	c-0.973-4.566-4.781-8.24-12.783-9.23c-1.648-0.202-3.308-0.27-4.969-0.138c-6.36,0.5-14.016,5.46-17.186,7.317
	c-0.746,0.436-1.914,0.117-2.292-0.369c-1.851-2.39-6.5-9.38-6.866-10.498c-0.366-1.114,0.149-2.052,0.801-2.638L278.988,62.702z"/>
<path class="st8" d="M350.031,91.685c-0.125-21.714,15.006-40.033,39.573-40.194c15.33-0.101,26.467,6.85,28.432,10.128
	c0.398,0.77,0.193,1.413-0.082,2.188c-1.299,2.74-4.576,8.034-6.912,11.034c-0.995,1.278-2.075,0.183-3.33-0.652
	c-3.483-2.319-10.102-5.156-16.614-5.156c-11.816,0.002-20.615,8.104-20.517,23.01c0.092,14.303,8.52,22.164,20.558,22.449
	c6.293,0.158,12.39-3.459,15.67-6.422c1.03-0.898,2.096-0.449,3.273,0.471c2.31,2.361,5.623,6.006,7.46,8.516
	c1.203,1.395,0.303,2.758-0.13,3.307c-4.984,6.307-14.61,11.613-27.35,11.686c-26.674,0.188-39.906-18.568-40.028-40.359"/>
<path class="st8" d="M477.358,131.07c1.252-0.094,14.613-1.938,18.714-2.877c1.019-0.232,1.38-1.088,0.812-1.936
	c-2.29-3.434-8.312-13.186-14.617-21.916c-5.8-8.027-11.913-15.088-13.89-17.803c-0.482-0.66-0.456-1.311,0.068-1.822
	c3.762-3.68,19.493-19.105,25.408-25.475c2.29-2.479,0.915-3.544-1.03-4.123c-3.757-1.12-9.834-2.517-13.29-3.245
	c-1.457-0.309-3.212-0.2-4.485,1.109c-5.914,5.516-23.963,23.63-29.352,29.046c-0.97,0.977-1.535,0.76-1.54-0.637
	c-0.044-10.44-0.25-55.138-0.623-62.49c-0.025-0.973-1.194-1.711-1.854-1.745c-3.388-0.178-11.947-0.229-15.32-0.03
	c-0.944,0.106-1.848,1.07-1.93,1.884c-0.778,11.756,0.33,98.053,0.792,110.125c0.033,0.873,0.683,1.551,1.512,1.6
	c3.365,0.195,11.688,0.182,15.574,0.109c1.912,0,2.146-1.344,2.146-1.344l0.288-23.158c0,0,0.197-1.029,0.517-1.369
	c1.37-1.475,5.16-5.537,6.775-7.107c0.389-0.377,1-0.35,1.396,0.184c1.92,2.59,7.395,11.01,12.47,18.529
	c4.663,6.908,9.017,13.039,9.32,13.473c0.702,1,1.521,1.039,2.14,1.021L477.358,131.07L477.358,131.07z"/>
<path class="st8" d="M250.125,130.99c1.176,0.039,10.091,0.029,14.04,0.023c1.33,0.027,2.021-0.98,2.065-1.869
	c0.839-16.926,0.479-97.512-0.05-110.237c-0.044-1.101-0.516-1.514-1.267-1.613c-3.39-0.454-13.023-0.348-16.111,0.46
	c-0.604,0.157-0.96,0.616-0.979,1.206c-0.756,32.8-0.246,108.42-0.086,109.852c0.159,1.434,0.909,2.127,2.391,2.178H250.125z"/>
<g>
	<g>
		<path class="st7" d="M15.997,80.336c-5.494,0.043-10.147-3.232-11.864-8.341c-0.065-0.198-0.123-0.391-0.178-0.583
			c-1.87-6.544,1.756-13.391,8.255-15.582l104.24-34.923c1.267-0.363,2.543-0.549,3.807-0.557
			c5.641-0.044,10.423,3.303,12.181,8.521l0.155,0.504c1.95,6.815-2.895,12.899-8.699,14.85c-0.004,0.003-1.061,0.36-103.662,35.391
			C18.844,80.086,17.421,80.324,15.997,80.336L15.997,80.336z"/>
	</g>
	<g>
		<path class="st0" d="M33.372,131.601c-5.537,0.039-10.207-3.188-11.902-8.225c-0.064-0.193-0.125-0.385-0.181-0.58
			c-1.896-6.621,1.727-13.539,8.247-15.734L133.78,71.82c1.347-0.45,2.738-0.681,4.137-0.693c5.553-0.042,10.431,3.35,12.151,8.444
			l0.16,0.529c1.007,3.521,0.412,7.479-1.59,10.602c-1.492,2.322-6.198,4.365-6.198,4.365L37.8,130.845
			c-1.458,0.488-2.944,0.744-4.428,0.758V131.601z"/>
	</g>
	<g>
		<path class="st1" d="M120.148,131.824c-5.561,0.043-10.483-3.465-12.255-8.723l-34.79-103.34l-0.174-0.58
			c-1.886-6.59,1.739-13.464,8.236-15.653c1.3-0.438,2.645-0.665,3.997-0.678c2.01-0.015,3.955,0.438,5.787,1.344
			c3.063,1.524,5.354,4.149,6.449,7.392l34.787,103.331l0.101,0.332c1.954,6.842-1.663,13.721-8.16,15.91
			C122.84,131.588,121.5,131.812,120.148,131.824L120.148,131.824z"/>
	</g>
	<g>
		<path class="st6" d="M68.435,149.23c-5.561,0.043-10.487-3.465-12.261-8.73L21.394,37.164c-0.061-0.19-0.12-0.38-0.179-0.575
			c-1.88-6.588,1.734-13.463,8.229-15.655c1.295-0.43,2.634-0.656,3.985-0.668c5.561-0.044,10.484,3.463,12.257,8.724l34.782,103.34
			c0.064,0.18,0.123,0.379,0.177,0.568c1.884,6.594-1.732,13.473-8.237,15.664c-1.292,0.432-2.629,0.656-3.978,0.666h0.004V149.23z"
			/>
	</g>
	<path class="st4" d="M102.997,108.552l24.258-8.295l-7.93-23.549l-24.286,8.207L102.997,108.552z"/>
	<path class="st5" d="M51.364,126.207l24.256-8.293l-7.99-23.73l-24.279,8.209L51.364,126.207z"/>
	<path class="st3" d="M85.727,57.256l24.26-8.283l-7.837-23.274l-24.305,8.143L85.727,57.256z"/>
	<path class="st2" d="M34.088,74.886l24.261-8.283l-7.934-23.571L26.11,51.173L34.088,74.886L34.088,74.886z"/>
</g>
</svg>
