<?xml version="1.0" encoding="utf-8"?>
<!-- Generator: Adobe Illustrator 16.0.0, SVG Export Plug-In . SVG Version: 6.00 Build 0)  -->
<!DOCTYPE svg PUBLIC "-//W3C//DTD SVG 1.1//EN" "http://www.w3.org/Graphics/SVG/1.1/DTD/svg11.dtd">
<svg version="1.1" id="logo-stylus" xmlns="http://www.w3.org/2000/svg" xmlns:xlink="http://www.w3.org/1999/xlink" x="0px"
	 y="0px" width="612px" height="604.47px" viewBox="0 92.605 612 604.47" style="enable-background:new 0 92.605 612 604.47;"
	 xml:space="preserve">
<path d="M75.892,339.567c6.811,0,12.648,0.973,16.541,2.919c3.892,1.946,6.811,3.892,6.811,6.811c0,3.892-0.974,7.784-2.919,11.676
	c-1.946,4.865-3.892,7.784-4.865,10.703c-0.973,0.973-0.973,0.973-1.945,0c-0.974,0-0.974-0.973-0.974-2.919
	c0.974-1.946,0.974-5.838,0.974-9.729c0-4.865-0.974-7.784-3.893-10.703c-1.945-2.919-5.838-3.892-9.729-3.892
	c-5.838,0-9.729,1.946-12.648,4.865s-4.865,7.784-4.865,13.622c0,4.865,0.974,9.729,3.893,14.595
	c2.918,4.865,5.837,8.757,8.756,13.622s6.812,9.73,9.73,14.595c2.919,4.864,3.892,10.702,3.892,17.513
	c0,11.676-4.865,20.433-13.622,26.271c-8.757,6.811-21.405,9.729-36,9.729c-10.702,0-19.459-1.946-25.297-4.864
	C3.892,450.486,0,447.567,0,442.703c0-0.974,0-2.919,0.973-4.865s1.946-4.865,3.892-6.811c1.946-2.919,2.919-4.865,4.865-7.784
	s3.892-4.864,5.838-5.838c0.973-0.973,1.946,0,2.919,0c0.973,0.974,0.973,1.946,0,2.919c-1.946,1.946-2.919,3.892-3.892,5.838
	c-0.974,1.946-0.974,4.865-0.974,8.757c0,5.838,1.946,10.703,5.838,13.622c3.893,3.892,8.757,5.838,14.595,5.838
	c7.784,0,14.595-1.946,19.46-6.812c4.864-4.864,6.811-9.729,6.811-16.54c0-5.838-0.973-11.676-3.892-16.541
	s-5.838-10.703-8.757-15.567c-2.919-4.865-5.838-9.729-8.757-14.595c-2.919-4.865-3.893-10.703-3.893-16.541
	c0-7.784,3.893-15.567,10.703-20.432C51.568,341.514,62.271,339.567,75.892,339.567z M205.297,341.514
	c1.946,0.973,1.946,1.946,1.946,2.919c0,0.973-1.946,1.946-3.892,2.919c-4.865,0-9.73,0-16.541,0
	c-5.838,0-12.648,0.973-19.459,0.973c-6.812,15.568-11.676,30.162-15.568,45.73c-3.892,14.594-5.838,26.27-5.838,36
	c0,10.703,3.893,16.541,12.649,16.541c7.783,0,17.513-6.811,27.243-21.405c0.973-0.974,1.945-0.974,2.919,0
	c0.973,0.973,0.973,1.945,0.973,2.919c-5.838,8.757-12.648,16.54-20.433,23.352c-7.783,6.811-16.54,9.729-24.324,9.729
	s-14.595-1.946-18.486-5.838s-5.838-9.729-5.838-16.541c0-8.757,1.946-21.405,6.811-37.945c4.865-16.541,9.729-33.082,17.514-49.622
	c-7.784,0.973-15.567,1.946-22.378,3.892c-1.946,0-1.946-0.973-0.974-1.946c0.974-0.973,1.946-2.919,3.893-3.892
	c1.945-0.973,4.864-2.919,7.783-3.892c2.919-0.973,5.838-1.946,7.784-1.946c0.973,0,2.919,0,3.892,0s2.919,0,3.892,0
	c3.893-8.757,8.757-18.486,12.649-26.27c4.864-8.757,8.756-16.541,13.621-23.352c1.946-1.946,4.865-3.892,7.784-5.838
	s6.811-2.919,9.729-3.892c2.919-0.973,5.838-1.946,7.783-1.946c1.946,0,2.919,0,2.919,1.946
	c-5.837,7.784-10.702,17.513-15.567,27.243c-4.864,9.729-9.729,20.432-14.595,32.108c5.838,0,11.676,0,18.487,0
	C194.595,341.514,199.459,341.514,205.297,341.514z M493.297,104.108c4.865,0,8.757,0.973,11.676,3.892
	c2.919,1.946,4.864,5.838,5.838,9.73c0.973,3.892,0.973,8.756,0,13.622c-0.974,4.865-2.919,9.729-5.838,15.567
	c-0.973,0.973-0.973,0.973-1.946,0c-0.973-0.973-1.945-0.973-1.945-1.946c0.973-3.892-0.974-6.811-3.893-9.73
	s-8.757-3.892-15.567-3.892c-12.648,0-26.271,4.865-38.919,14.594c-13.622,9.73-26.271,22.378-37.946,37.946
	c-12.648,15.567-24.324,34.054-35.026,54.486c-10.703,20.433-20.433,41.838-28.217,63.243
	c-7.783,21.405-14.595,43.784-18.486,65.189c-4.864,21.405-6.811,40.865-6.811,59.351c0,9.729,2.919,14.595,7.783,14.595
	c3.893,0,7.784-1.946,10.703-4.865c3.892-2.919,7.784-7.783,12.648-14.595c0.974-0.973,1.946-0.973,2.919,0
	c0.973,0.974,0.973,1.946,0.973,2.919c-6.811,9.73-13.621,17.514-22.378,23.352c-8.757,6.812-16.54,9.729-23.352,9.729
	c-5.838,0-9.729-1.945-12.648-4.864c-1.945-3.892-3.892-7.784-3.892-13.622c0-14.595,2.919-33.08,9.729-55.459
	c6.811-22.378,14.595-45.73,25.297-71.027c10.703-25.297,23.352-49.622,36.974-73.946c13.621-24.324,28.216-46.703,43.783-67.135
	c14.595-19.459,30.162-36,45.73-48.648C466.054,109.946,480.649,104.108,493.297,104.108z M72,687.892
	c-4.865,0-8.757-0.973-11.676-3.892c-2.919-1.946-4.865-5.838-5.838-9.729c-0.973-3.893-0.973-8.757,0-13.622
	c0.973-4.864,2.919-9.729,5.838-15.567c0.973-0.973,0.973-0.973,1.945,0c0.974,0.973,1.946,0.973,1.946,1.946
	c-0.973,3.892,0.973,6.811,3.892,9.729s8.757,3.892,15.568,3.892c12.648,0,26.27-4.864,38.919-14.595
	c13.621-9.729,26.27-22.378,37.945-37.945c12.648-15.567,24.324-34.055,35.027-54.486c10.703-20.433,20.433-41.838,28.216-63.243
	c7.784-21.406,14.595-43.784,18.486-65.189c4.865-21.406,6.812-40.865,6.812-59.352c0-9.729-2.919-14.595-7.784-14.595
	c-3.892,0-7.783,1.946-10.702,4.865c-3.893,2.918-7.784,7.784-12.649,14.594c-0.973,0.973-1.945,0.973-2.919,0
	c-0.973-0.973-0.973-1.946-0.973-2.919c6.811-9.729,13.622-17.513,22.379-23.351c8.756-6.811,16.54-9.73,23.351-9.73
	c5.838,0,9.73,1.946,12.649,4.865c1.945,3.892,3.892,7.784,3.892,13.622c0,14.594-2.919,33.081-9.729,55.459
	c-6.812,22.379-14.595,45.73-25.298,71.027c-10.702,25.297-23.352,49.621-36.973,73.946c-13.622,24.324-28.217,46.702-43.784,67.135
	c-14.595,19.459-30.162,36-45.729,48.648C99.243,681.081,84.649,687.892,72,687.892z M393.081,461.189
	c-13.622,0-20.433-6.811-20.433-21.405c0-4.865,0.973-10.703,1.945-17.514c0.974-6.812,2.919-13.622,4.865-20.433
	c1.946-6.811,4.865-14.595,8.757-21.405c2.919-6.811,6.811-14.595,11.676-20.433c-3.892,1.946-6.811,4.865-9.729,6.811
	c-2.919,1.946-5.838,4.865-8.757,7.784c-0.974,0.973-1.946,0-2.919-0.973c-0.974-0.973-0.974-1.946,0-2.919
	c5.838-5.838,12.648-11.676,23.352-17.513c9.729-5.838,19.459-10.703,29.188-14.595c1.946,0,2.919,0,3.893,0.973
	c0.973,0.973,0.973,1.946,0,2.919c-9.73,13.622-18.487,27.244-24.325,42.811c-5.838,15.568-9.729,30.162-9.729,44.756
	c0,8.757,2.919,13.622,8.757,13.622c3.892,0,8.757-2.919,15.567-8.757c5.838-5.838,12.649-12.648,19.46-21.405
	s13.621-19.459,20.433-30.162c6.811-11.676,12.648-23.352,18.486-35.027c0.973-1.946,3.892-3.892,8.757-5.838
	c4.864-1.946,9.729-2.919,13.621-2.919c4.865,0,5.838,0.973,3.893,3.892c-4.865,7.784-8.757,15.567-11.676,23.352
	c-2.919,6.811-5.838,14.594-8.757,21.405c-1.946,6.811-3.893,13.622-4.865,21.405c-0.973,6.812-1.946,14.595-1.946,23.352
	c0,9.73,2.919,15.568,7.784,15.568c5.838,0,11.676-4.865,18.486-14.595c0.974-0.974,1.946-0.974,2.919,0
	c0.973,0.973,0.973,1.945,0.973,2.919c-5.837,7.783-11.675,14.594-17.513,18.486c-6.812,3.892-12.649,6.811-17.514,6.811
	c-13.622,0-20.433-7.783-20.433-23.352c0-16.54,2.919-32.107,8.757-47.675c-11.676,21.406-24.324,38.918-37.946,51.568
	C413.513,454.379,401.837,461.189,393.081,461.189z M588.649,339.567c6.811,0,12.648,0.973,16.54,2.919
	c3.893,1.946,6.812,3.892,6.812,6.811c0,3.892-0.974,7.784-2.919,11.676c-1.946,4.865-3.893,7.784-4.865,10.703
	c-0.973,0.973-0.973,0.973-1.946,0c-0.973,0-0.973-0.973-0.973-2.919c0.973-1.946,0.973-5.838,0.973-9.729
	c0-4.865-0.973-7.784-3.892-10.703c-1.946-2.919-5.838-3.892-9.729-3.892c-5.838,0-9.73,1.946-12.648,4.865
	c-2.919,2.919-4.865,7.784-4.865,13.622c0,4.865,0.973,9.73,3.892,14.595s5.838,8.757,8.757,13.622s6.811,9.73,9.729,14.595
	c2.919,4.864,3.893,10.702,3.893,17.513c0,11.676-4.865,20.433-13.622,26.271c-8.757,6.811-21.405,9.729-36,9.729
	c-10.702,0-19.459-1.946-25.297-4.864c-5.838-3.893-9.73-6.812-9.73-11.676c0-0.974,0-2.919,0.974-4.865
	c0.973-1.946,1.945-4.865,3.892-6.811c1.946-2.919,2.919-4.865,4.865-7.784c1.945-2.919,3.892-4.864,5.838-5.838
	c0.973-0.973,1.945,0,2.919,0c0.973,0.974,0.973,1.946,0,2.919c-1.946,1.946-2.919,3.893-3.893,5.838
	c-0.973,1.946-0.973,4.865-0.973,8.757c0,5.838,1.946,10.703,5.838,13.622c3.892,3.892,8.757,5.838,14.595,5.838
	c7.783,0,14.595-1.946,19.459-6.812c4.865-4.864,6.812-9.729,6.812-16.54c0-5.838-0.974-11.676-3.893-16.541
	s-5.838-10.703-8.757-15.567c-2.919-4.865-5.838-9.729-8.757-14.595c-2.919-4.865-3.892-10.703-3.892-16.541
	c0-7.784,3.892-15.567,10.703-20.432C565.297,341.514,575.027,339.567,588.649,339.567z"/>
</svg>
