<?xml version="1.0" encoding="utf-8"?>
<!-- Generator: Adobe Illustrator 16.0.0, SVG Export Plug-In . SVG Version: 6.00 Build 0)  -->
<!DOCTYPE svg PUBLIC "-//W3C//DTD SVG 1.1//EN" "http://www.w3.org/Graphics/SVG/1.1/DTD/svg11.dtd">
<svg version="1.1" id="Layer_1" xmlns="http://www.w3.org/2000/svg" xmlns:xlink="http://www.w3.org/1999/xlink" x="0px" y="0px"
	 width="549px" height="162px" viewBox="0 0 549 162" style="enable-background:new 0 0 549 162;" xml:space="preserve">
<style type="text/css">
<![CDATA[
	.st0{fill:#1B83B8;}
	.st1{fill:#FFFFFF;}
]]>
</style>
<image style="display:none;overflow:visible;" width="2000" height="615" xlink:href="Trello-logo-blue.svg.png"  transform="matrix(0.2851 0 0 0.2851 -26.541 4.0991)">
</image>
<path class="st0" d="M264.297,35.455c0,0-6.557-16.818-44.754-9.122c-38.198,7.697-44.184,4.54-49.601,3.553
	c-5.416-0.987-6.556,3.288-6.556,3.288s-3.991,12.258,3.136,14.539c7.126,2.28,11.688,2.28,18.529,1.995
	c6.842-0.285,3.991-1.14,1.425,3.706c-2.566,4.846-27.65,68.128-29.076,87.797c0,0-1.141,9.407,1.995,10.263
	c3.136,0.855,7.412,5.986,15.963,5.13c0,0,5.701-1.14,4.846-7.696c0,0,3.135-46.179,35.347-101.48l-0.285-2.281
	c0,0,25.37-6.556,31.927-1.425c0,0,5.827,5.417,11.323,2.566C258.517,46.288,266.007,42.867,264.297,35.455z"/>
<path class="st0" d="M540.802,73.083c0,0-3.991-4.275-13.112-3.42l-15.108,0.57c0,0-4.847,1.71-7.127-5.417
	c0,0-5.7-19.384-28.22-10.262c0,0-35.063,29.361-37.344,64.708c0,0-9.976,6.556-15.678,13.968
	c-5.701,7.411-12.257,7.981-10.547,8.266c0,0-5.986,0.855-0.285-17.673c0,0,17.674-48.745,31.926-63.568l23.091-35.938
	c0,0,6.841-7.961,1.425-16.228c0,0,0.855-1.996-9.977-3.991h-6.272c0,0-7.695,2.28-9.121,9.407s-4.562,10.812-4.562,10.812
	s-43.043,73.851-46.178,94.374c0,0-9.408,5.986-15.108,12.543c-5.702,6.556-12.543,10.262-12.543,10.262s-5.986,1.711,1.425-21.949
	c0,0,8.552-19.669,9.408-22.805c0,0,28.505-53.591,33.351-55.871c0,0,13.968-19.099,13.968-23.09c0,0,1.426-7.982-2.28-10.832
	c0,0,0-2.851-10.832-2.851c0,0-7.125,0.285-9.691,2.851c-2.565,2.565-7.412,14.252-7.412,14.252s-36.202,62.428-44.183,86.087
	l-0.286,2.28c0,0-15.393,10.547-21.949,16.819c0,0-22.804,18.813-30.786,12.542c0,0-4.276-4.275-3.136-6.556
	c0,0,29.932-17.958,49.03-45.324c0,0,19.098-25.084,2.851-35.917c0,0-25.37-16.818-51.881,21.379c0,0-9.692-8.837-23.374-4.276
	c0,0-21.094,16.819-21.094,12.543v-9.692c0,0-1.996-7.412-5.132-7.697c-3.135-0.285-5.416-5.986-17.388,1.996
	c0,0-1.14,3.463,1.996,5.58c0,0-8.267,38.604-15.108,51.146c-6.841,12.543-10.832,15.393-9.407,21.665
	c0,0,5.986,15.963,16.819,10.833c0,0,4.273-4.277,5.558-8.267c0,0,8.125-43.899,52.308-60.433l4.276,1.14
	c0,0-16.533,25.085-11.117,41.619c0,0,2.565,19.954,20.238,24.229c0,0,12.828,8.267,24.801,0.57c0,0,11.973-6.557,26.225-16.819
	c0,0,0,16.25,25.085,20.098c0,0,7.127,3.562,23.66-12.686c0,0,8.837,14.062,25.37,13.016c16.533-1.043,24.8-18.433,25.085-17.007
	s12.258,14.823,23.659,14.253c11.402-0.57,26.227-16.533,34.777-35.347c0,0,4.847-11.402,10.263-30.216c0,0,0-2.28,3.99-1.425
	c0,0,10.262-0.57,13.683-3.136c0,0,5.781-0.57,10.262-2.851C539.091,81.349,548.498,77.644,540.802,73.083z M306.77,86.195
	c14.253-19.099,22.52-21.379,22.52-21.379c1.426,11.688-26.51,38.198-26.51,38.198c-8.837,7.696-7.412,4.276-7.412,4.276
	C294.229,103.584,306.77,86.195,306.77,86.195z M489.682,87.43c-1.33,10.262-12.733,31.167-12.733,31.167
	c-1.139,1.9-9.882,14.823-9.882,14.823c-0.76,2.09-3.99,3.8-3.99,3.8c-5.131-0.95-4.751-9.312-4.751-9.312
	c-2.471-19.574,25.655-54.921,25.655-54.921c3.23-3.611,3.611,0,3.611,0C491.393,74.698,489.682,87.43,489.682,87.43z"/>
<g>
	<g>
		<path class="st0" d="M18.734,27.82h102.848c6.894,0,12.482,5.588,12.482,12.481V143.15c0,6.894-5.588,12.481-12.482,12.481H18.734
			c-6.894,0-12.482-5.588-12.482-12.481V40.301C6.252,33.408,11.84,27.82,18.734,27.82z"/>
		<path class="st1" d="M84.457,44.435h27c3.309,0,5.991,2.683,5.991,5.992v43.936c0,3.309-2.683,5.99-5.991,5.99h-27
			c-3.309,0-5.991-2.682-5.991-5.99V50.427C78.466,47.118,81.148,44.435,84.457,44.435z"/>
		<path class="st1" d="M28.859,44.435h27c3.31,0,5.991,2.683,5.991,5.992v75.888c0,3.309-2.681,5.992-5.991,5.992h-27
			c-3.31,0-5.992-2.683-5.992-5.992V50.427C22.867,47.118,25.55,44.435,28.859,44.435z"/>
	</g>
</g>
</svg>
