<svg xmlns="http://www.w3.org/2000/svg" viewBox="0 0 470 470" width="512" height="512"><g fill="#FFF"><path d="M452.16 16.364H17.84C8.004 16.364 0 24.367 0 34.204V363.41c0 9.837 8.003 17.84 17.84 17.84H181.65v57.387h-70.74c-4.14 0-7.5 3.358-7.5 7.5s3.36 7.5 7.5 7.5h248.183c4.144 0 7.5-3.358 7.5-7.5s-3.356-7.5-7.5-7.5h-70.737V381.25H452.16c9.838 0 17.84-8.003 17.84-17.84V34.204c0-9.838-8.003-17.84-17.84-17.84zM273.352 438.636h-76.705V381.25h76.705v57.386zM455 363.41c0 1.54-1.3 2.84-2.84 2.84H17.84c-1.54 0-2.84-1.3-2.84-2.84V34.204c0-1.54 1.3-2.84 2.84-2.84h434.32c1.54 0 2.84 1.3 2.84 2.84V363.41z"/><path d="M431.478 305.227H38.523c-4.142 0-7.5 3.358-7.5 7.5s3.358 7.5 7.5 7.5h392.955c4.143 0 7.5-3.358 7.5-7.5s-3.358-7.5-7.5-7.5zM110 280.227h40c4.142 0 7.5-3.358 7.5-7.5V163.92c0-4.143-3.358-7.5-7.5-7.5h-40c-4.142 0-7.5 3.357-7.5 7.5v108.807c0 4.142 3.358 7.5 7.5 7.5zm7.5-108.808h25v93.807h-25V171.42zM180 280.227h40c4.142 0 7.5-3.358 7.5-7.5v-144.29c0-4.143-3.358-7.5-7.5-7.5h-40c-4.142 0-7.5 3.357-7.5 7.5v144.29c0 4.142 3.358 7.5 7.5 7.5zm7.5-144.29h25v129.29h-25v-129.29zM250 280.227h40c4.143 0 7.5-3.358 7.5-7.5V94.887c0-4.143-3.357-7.5-7.5-7.5h-40c-4.143 0-7.5 3.357-7.5 7.5v177.84c0 4.142 3.357 7.5 7.5 7.5zm7.5-177.84h25v162.84h-25v-162.84zM320 280.227h40c4.143 0 7.5-3.358 7.5-7.5v-74.29c0-4.143-3.357-7.5-7.5-7.5h-40c-4.143 0-7.5 3.357-7.5 7.5v74.29c0 4.142 3.357 7.5 7.5 7.5zm7.5-74.29h25v59.29h-25v-59.29z"/></g></svg>