<?xml version="1.0" encoding="utf-8"?>
<!-- Generator: Adobe Illustrator 16.0.0, SVG Export Plug-In . SVG Version: 6.00 Build 0)  -->
<!DOCTYPE svg PUBLIC "-//W3C//DTD SVG 1.1//EN" "http://www.w3.org/Graphics/SVG/1.1/DTD/svg11.dtd">
<svg version="1.1" id="Layer_1" xmlns="http://www.w3.org/2000/svg" xmlns:xlink="http://www.w3.org/1999/xlink" x="0px" y="0px"
	 width="120px" height="120px" viewBox="0 0 120 120" style="enable-background:new 0 0 120 120;" xml:space="preserve">
<style type="text/css">

	.st1{
		stroke-dasharray: 800;
		stroke-dashoffset: 0;
		-webkit-animation: dash 5s linear forwards;
		animation: dash 5s linear forwards;
	}
  .st6{
		-webkit-animation: arrow 2s ease-in forwards;
		animation: arrow 2s ease-in forwards;
  }

  @-webkit-keyframes arrow{
  	from{fill:transparent;}
  	to{fill:#03A9F4;}
  }
	@-webkit-keyframes dash{
  	from{stroke-dashoffset: 800;}
  	to{stroke-dashoffset: 0;}
  }

	.st0{display:none;fill:none;stroke:#03A9F4;stroke-width:1.5;stroke-miterlimit:10;}
	.st1{fill:none;stroke:#03A9F4;stroke-width:1.5;stroke-miterlimit:10;}
	.st2{display:inline;fill:#03A9F4;stroke:#03A9F4;stroke-width:1.5;stroke-miterlimit:10;}
	.st3{display:inline;fill:none;stroke:#FFFFFF;stroke-width:1.5;stroke-miterlimit:10;}
	.st4{display:inline;}
	.st5{display:inline;fill:#03A9F4;}
	.st6{fill:#03A9F4;}
	.st7{display:none;}
	.st8{display:inline;fill:none;stroke:#03A9F4;stroke-width:1.5;stroke-miterlimit:10;}
</style>
<g id="atomic">
	<path class="st1" d="M111.121,75.579c0,1.94-1.309,3.517-2.923,3.517H10.784c-1.615,0-2.924-1.576-2.924-3.517V9.086
		c0-1.942,1.31-3.518,2.924-3.518h97.415c1.614,0,2.923,1.575,2.923,3.518V75.579z"/>
	<path class="st1" d="M109.222,85.967c0-0.794-1.494-1.436-3.337-1.436H12.261c-1.843,0-3.336,0.642-3.336,1.436l-5.728,27.132
		c0,0.794,1.494,1.436,3.337,1.436h105.914c1.843,0,3.337-0.642,3.337-1.436L109.222,85.967z"/>
	<rect x="7.859" y="13.269" class="st1" width="103.262" height="57.08"/>
	<path class="st1" d="M71,9.914c0,0.481-0.39,0.872-0.871,0.872H44.214c-0.481,0-0.872-0.39-0.872-0.872l0,0
		c0-0.481,0.391-0.871,0.872-0.871h25.915C70.61,9.042,71,9.432,71,9.914L71,9.914z"/>
	<line class="st1" x1="18.348" y1="104.081" x2="100.44" y2="104.081"/>
	<line class="st1" x1="21.335" y1="95.371" x2="96.858" y2="95.371"/>
	<path class="st1" d="M106.595,74.463c0,0.688-0.554,1.244-1.242,1.244c-0.686,0-1.242-0.557-1.242-1.244
		c0-0.684,0.557-1.243,1.242-1.243C106.041,73.22,106.595,73.779,106.595,74.463z"/>
	<path class="st1" d="M100.635,74.463c0,0.688-0.558,1.244-1.243,1.244c-0.687,0-1.243-0.557-1.243-1.244
		c0-0.684,0.557-1.243,1.243-1.243C100.077,73.22,100.635,73.779,100.635,74.463z"/>
	<path class="st1" d="M50.905,58.672H33.688c-5.635,0-10.203-4.568-10.203-10.203c0-5.635,4.123-9.637,9.757-9.637
		c0-8.721,7.069-15.791,15.791-15.791c5.37,0,10.115,2.68,12.968,6.776c0,0,3.315-1.933,5.369-1.933
		c4.532,0,8.207,3.674,8.207,8.205c7.334,0,13.281,3.924,13.281,11.259c0,9.688-6.377,11.199-13.712,11.199H64.889"/>
	<g>
		<g>
			<line class="st1" x1="57.56" y1="64.485" x2="57.56" y2="44.864"/>
			<g>
				<polygon class="st6" points="59.803,45.52 57.56,41.634 55.316,45.52 				"/>
			</g>
		</g>
	</g>
</g>
<g id="global-cdn" class="st7">
	<path class="st8" d="M111.382,35.87c13.645,28.519,1.584,62.704-26.934,76.348c-28.524,13.645-62.706,1.585-76.351-26.938
		C-5.545,56.76,6.515,22.579,35.037,8.935C63.556-4.71,97.735,7.35,111.382,35.87z"/>
	<path class="st8" d="M8.222,85.543c-8.117-17.026,8.426-41.823,36.993-55.44c28.562-13.617,58.242-10.859,66.359,6.167"/>
	<path class="st8" d="M84.118,112.377c17.016-8.142,19.732-37.825,6.074-66.37C76.538,17.462,51.72,0.95,34.707,9.091"/>
	<path class="st8" d="M84.774,112.063c-17.016,8.138-41.834-8.375-55.488-36.918c-13.657-28.543-10.94-58.227,6.077-66.368"/>
	<path class="st8" d="M5.018,43.753c-5.429,18.065,14.701,40.049,45.006,49.155c30.305,9.108,59.217,1.862,64.643-16.2"/>
	<path class="st8" d="M4.808,44.449c5.432-18.063,34.345-25.31,64.65-16.203c30.303,9.106,50.434,31.091,45.002,49.157"/>
	<path class="st2" d="M85.733,34.497c-0.445,1.261-1.828,1.922-3.088,1.478l0,0c-1.26-0.445-1.92-1.827-1.477-3.087l0,0
		c0.443-1.26,1.826-1.921,3.086-1.477l0,0C85.515,31.855,86.177,33.237,85.733,34.497L85.733,34.497z"/>
	<path class="st8" d="M7.907,84.888c8.118,17.025,37.8,19.782,66.361,6.163c28.564-13.618,45.107-38.412,36.992-55.438"/>
	<path class="st2" d="M65.618,96.452c-0.576,1.636-2.367,2.491-4.002,1.916l0,0c-1.634-0.577-2.492-2.368-1.914-4.003l0,0
		c0.574-1.634,2.367-2.492,4.002-1.914l0,0C65.339,93.026,66.196,94.817,65.618,96.452L65.618,96.452z"/>
</g>
<g class="st7">
	<circle class="st8" cx="59.683" cy="55.218" r="52.729"/>
	<circle class="st8" cx="59.683" cy="55.217" r="47.153"/>
	<circle class="st8" cx="59.683" cy="55.216" r="3.526"/>
	<line class="st8" x1="83.33" y1="31.576" x2="62.12" y2="52.789"/>
	<line class="st8" x1="55.429" y1="55.218" x2="30.952" y2="55.218"/>
	<line class="st8" x1="15.42" y1="55.218" x2="19.906" y2="55.218"/>
	<line class="st8" x1="99.386" y1="55.218" x2="103.873" y2="55.218"/>
	<line class="st8" x1="59.616" y1="99.735" x2="59.616" y2="95.248"/>
	<line class="st8" x1="59.616" y1="15.356" x2="59.616" y2="10.869"/>
	<path class="st8" d="M86.19,114.619c0,1.499-1.791,2.715-4,2.715H37.418c-2.209,0-4-1.216-4-2.715v-0.227
		c0-1.499,9.791-3.393,12-3.393H75.19c2.209,0,11,1.894,11,3.393V114.619z"/>
</g>
<g id="instant-cache-validation" class="st7">
	<circle class="st8" cx="59.269" cy="58.35" r="50.891"/>
	<g class="st4">
		<g>
			<path class="st1" d="M115.41,63.997c-2.79,28.292-26.654,50.391-55.677,50.391c-17.125,0-32.454-7.694-42.717-19.813
				c-0.244-0.289-0.486-0.581-0.724-0.875"/>
			<g>
				<polygon class="st6" points="18.489,92.814 14.328,91.136 14.954,95.579 				"/>
			</g>
		</g>
	</g>
	<g class="st4">
		<g>
			<path class="st1" d="M3.785,58.438c0-30.896,25.049-55.949,55.948-55.949c18.283,0,34.52,8.772,44.73,22.335"/>
			<g>
				<polygon class="st6" points="102.241,25.613 106.331,27.458 105.885,22.993 				"/>
			</g>
		</g>
	</g>
	<path class="st8" d="M53.73,75.867c-2.127,8.437,1.438,14.079,2.205,15.164l12.598,5.53c0,0-6.563-8.133-5.569-16.45
		c1.3-10.892,6.718-18.153,6.718-18.153l-24.34-10.75c0,0-8.031,8.31-10.646,17.812c-1.78,6.479-0.136,12.626-0.136,12.626
		l17.705,7.775C50.695,81.133,53.73,75.867,53.73,75.867z"/>
	<polygon class="st8" points="71.539,59.499 46.386,48.3 48.738,42.863 73.893,54.059 	"/>
	<polygon class="st8" points="61.257,45.098 63.632,46.308 73.022,26.87 70.646,25.655 	"/>
</g>
<path class="st0" d="M66.689,20.297L49.226,17.83l-41.82,6.473c0,0,0,4.48,0,42.317c0,37.836,42.317,50.783,42.317,50.783
	c46.8-22.902,41.818-50.783,41.818-50.783l-0.292-1.495"/>
<path class="st0" d="M63.774,83.467c0,1.495-1.214,2.706-2.706,2.706H38.408c-1.494,0-2.706-1.211-2.706-2.706V62.156
	c0-1.494,1.211-2.705,2.706-2.705h22.661c1.492,0,2.706,1.211,2.706,2.705V83.467L63.774,83.467z"/>
<path class="st0" d="M58.153,59.34v-8.386c0-4.647-3.769-8.413-8.416-8.413s-8.414,3.767-8.414,8.413v8.273"/>
<path class="st0" d="M49.107,72.511c-0.995-0.484-1.68-1.507-1.68-2.688c0-1.648,1.337-2.987,2.987-2.987
	c1.651,0,2.989,1.339,2.989,2.987c0,1.149-0.649,2.146-1.598,2.647l0.027,0.342c1.381,2.824,3.169,6.892,2.522,6.892
	c-1.081,0-6.179,0-7.897,0c-0.595,0,1.276-4.067,2.645-6.892L49.107,72.511z"/>
<circle class="st0" cx="90.6" cy="27.74" r="24.147"/>
<path class="st0" d="M91.147,51.686"/>
<path class="st0" d="M13.331,69.312"/>
<path class="st0" d="M77.976,53.949"/>
<path class="st0" d="M61.322,63.332"/>
<path class="st0" d="M38.25,79.931"/>
<path class="st0" d="M13.331,65.874"/>
<path class="st0" d="M74.592,46.3"/>
<path class="st0" d="M56.509,56.715"/>
<path class="st0" d="M37.763,70.202"/>
<path class="st0" d="M13.331,55.793"/>
<g class="st7">
	<path class="st5" d="M79.462,28.62l1.666-0.162c0.103,0.56,0.305,0.972,0.612,1.233c0.307,0.263,0.72,0.394,1.242,0.394
		c0.552,0,0.968-0.117,1.248-0.351c0.279-0.234,0.42-0.506,0.42-0.82c0-0.201-0.061-0.371-0.177-0.512
		c-0.117-0.14-0.323-0.265-0.617-0.368c-0.201-0.069-0.659-0.192-1.371-0.37c-0.921-0.228-1.564-0.508-1.936-0.839
		c-0.521-0.467-0.78-1.037-0.78-1.709c0-0.432,0.121-0.837,0.366-1.213c0.244-0.377,0.598-0.663,1.059-0.86
		c0.462-0.197,1.019-0.295,1.671-0.295c1.066,0,1.867,0.233,2.405,0.701c0.541,0.466,0.823,1.091,0.851,1.87l-1.714,0.076
		c-0.073-0.437-0.231-0.75-0.473-0.941c-0.24-0.192-0.605-0.287-1.085-0.287c-0.499,0-0.89,0.103-1.17,0.307
		c-0.182,0.132-0.271,0.306-0.271,0.526c0,0.201,0.084,0.373,0.254,0.516c0.216,0.181,0.741,0.37,1.574,0.568
		c0.835,0.197,1.452,0.401,1.851,0.61c0.401,0.21,0.714,0.499,0.939,0.863c0.225,0.365,0.338,0.816,0.338,1.353
		c0,0.486-0.135,0.942-0.404,1.366c-0.271,0.425-0.653,0.74-1.146,0.947c-0.496,0.207-1.112,0.309-1.848,0.309
		c-1.072,0-1.897-0.248-2.474-0.744C79.917,30.293,79.574,29.57,79.462,28.62z"/>
	<path class="st5" d="M87.373,28.62l1.667-0.162c0.099,0.56,0.305,0.972,0.611,1.233c0.305,0.263,0.719,0.394,1.24,0.394
		c0.552,0,0.969-0.117,1.249-0.351c0.278-0.234,0.419-0.506,0.419-0.82c0-0.201-0.06-0.371-0.176-0.512
		c-0.118-0.142-0.324-0.265-0.616-0.368c-0.201-0.069-0.66-0.192-1.372-0.37c-0.921-0.228-1.564-0.508-1.937-0.839
		c-0.52-0.467-0.781-1.037-0.781-1.709c0-0.432,0.123-0.837,0.371-1.213c0.242-0.377,0.595-0.663,1.058-0.86
		c0.461-0.197,1.017-0.295,1.671-0.295c1.064,0,1.867,0.233,2.405,0.701c0.538,0.466,0.821,1.091,0.848,1.87l-1.713,0.076
		c-0.074-0.437-0.231-0.75-0.473-0.941c-0.242-0.192-0.603-0.287-1.086-0.287c-0.499,0-0.889,0.103-1.17,0.307
		c-0.181,0.132-0.271,0.306-0.271,0.526c0,0.201,0.084,0.373,0.255,0.516c0.216,0.181,0.739,0.37,1.574,0.568
		c0.835,0.197,1.452,0.401,1.851,0.61c0.4,0.21,0.713,0.499,0.939,0.863c0.226,0.365,0.337,0.816,0.337,1.353
		c0,0.486-0.135,0.942-0.404,1.366c-0.271,0.425-0.653,0.74-1.147,0.947s-1.111,0.309-1.846,0.309c-1.074,0-1.897-0.248-2.475-0.744
		C87.826,30.293,87.483,29.57,87.373,28.62z"/>
	<path class="st5" d="M95.761,31.383v-8.42h1.716v6.99h4.263v1.431L95.761,31.383L95.761,31.383z"/>
</g>
<g class="st7">
	<line class="st8" x1="9.776" y1="32.642" x2="112.648" y2="32.642"/>
	<circle class="st8" cx="105.813" cy="22.767" r="2.751"/>
	<circle class="st8" cx="95.153" cy="22.767" r="2.751"/>
	<circle class="st8" cx="84.49" cy="22.767" r="2.751"/>
	<g class="st4">
		<path class="st6" d="M43.862,60.921h1.838v6.307h0.042c0.293-0.522,0.752-1.004,1.316-1.295c0.543-0.335,1.19-0.522,1.879-0.522
			c1.357,0,3.53,0.835,3.53,4.324v6.014h-1.839v-5.806c0-1.65-0.606-3.006-2.339-3.006c-1.19,0-2.109,0.834-2.464,1.837
			c-0.104,0.251-0.125,0.522-0.125,0.877v6.098h-1.838L43.862,60.921L43.862,60.921z"/>
		<path class="st6" d="M57.584,63.219v2.421h2.631v1.399h-2.631v5.452c0,1.253,0.354,1.964,1.378,1.964
			c0.501,0,0.793-0.041,1.064-0.126l0.084,1.399c-0.355,0.126-0.919,0.252-1.63,0.252c-0.855,0-1.545-0.293-1.983-0.773
			c-0.501-0.563-0.71-1.461-0.71-2.651v-5.515h-1.566v-1.398h1.566v-1.859L57.584,63.219z"/>
		<path class="st6" d="M64.498,63.219v2.421h2.63v1.399h-2.63v5.452c0,1.253,0.354,1.964,1.377,1.964
			c0.502,0,0.795-0.041,1.064-0.126l0.085,1.399c-0.355,0.126-0.92,0.252-1.631,0.252c-0.855,0-1.545-0.293-1.983-0.773
			c-0.5-0.563-0.711-1.461-0.711-2.651v-5.515h-1.565v-1.398h1.565v-1.859L64.498,63.219z"/>
		<path class="st6" d="M69.196,68.94c0-1.294-0.021-2.339-0.083-3.301h1.65l0.105,1.735h0.04c0.73-1.254,1.942-1.964,3.571-1.964
			c2.464,0,4.303,2.067,4.303,5.137c0,3.635-2.234,5.431-4.594,5.431c-1.358,0-2.507-0.585-3.113-1.586h-0.04v5.49h-1.84V68.94
			L69.196,68.94z M71.034,71.635c0,0.251,0.021,0.522,0.083,0.754c0.313,1.271,1.44,2.149,2.735,2.149
			c1.943,0,3.071-1.586,3.071-3.904c0-2.025-1.044-3.758-2.987-3.758c-1.253,0-2.443,0.875-2.8,2.255
			c-0.04,0.249-0.103,0.521-0.103,0.751V71.635L71.034,71.635z"/>
		<path class="st6" d="M81.854,75.979c-0.712,0-1.211-0.563-1.211-1.295c0-0.771,0.521-1.316,1.23-1.316
			c0.753,0,1.231,0.544,1.231,1.316c0,0.731-0.48,1.295-1.231,1.295H81.854z M81.873,68.606c-0.709,0-1.21-0.565-1.21-1.295
			c0-0.772,0.522-1.316,1.232-1.316c0.752,0,1.232,0.544,1.232,1.316c0,0.729-0.481,1.295-1.232,1.295H81.873z"/>
		<path class="st6" d="M83.857,76.585l5.806-15.143h1.44l-5.847,15.143H83.857z"/>
		<path class="st6" d="M91.021,76.585l5.806-15.143h1.441L92.42,76.585H91.021z"/>
	</g>
	<path class="st8" d="M34.901,75.73c0,0.63-0.511,1.142-1.141,1.142h-9.562c-0.631,0-1.142-0.512-1.142-1.142v-8.991
		c0-0.63,0.511-1.142,1.142-1.142h9.562c0.63,0,1.141,0.512,1.141,1.142V75.73L34.901,75.73z"/>
	<path class="st8" d="M32.529,65.551v-3.537c0-1.961-1.589-3.55-3.55-3.55c-1.961,0-3.55,1.589-3.55,3.55v3.49"/>
	<path class="st8" d="M29.354,71.202c0.312-0.142,0.528-0.454,0.528-0.82c0-0.497-0.404-0.902-0.902-0.902
		c-0.498,0-0.902,0.404-0.902,0.902c0,0.366,0.216,0.679,0.528,0.82c-0.415,0.868-1.004,2.165-0.821,2.165c0.519,0,2.058,0,2.385,0
		C30.369,73.367,29.773,72.07,29.354,71.202z"/>
	<path class="st8" d="M18.125,76.557"/>
	<path class="st8" d="M17.727,68.628"/>
	<path class="st8" d="M112.455,105.517c0,1.494-1.211,2.705-2.705,2.705H12.481c-1.493,0-2.705-1.211-2.705-2.705V16.627
		c0-1.494,1.21-2.704,2.705-2.704h97.269c1.494,0,2.705,1.21,2.705,2.704V105.517L112.455,105.517z"/>
</g>
<g id="secure" class="st7">
	<path class="st8" d="M100.992,86.666c-6.084,9.249-40.659,28.095-40.659,28.095S25.756,95.915,19.674,86.666
		c-11.171-16.984,0-70.763,0-70.763L60.333,5.239l40.659,10.664C100.992,15.903,112.164,69.682,100.992,86.666z"/>
	<path class="st8" d="M93.618,81.829c-4.98,7.572-33.285,23-33.285,23s-28.306-15.428-33.286-23c-9.146-13.903,0-57.929,0-57.929
		l33.286-8.729L93.618,23.9C93.618,23.9,102.763,67.926,93.618,81.829z"/>
	<path class="st8" d="M85.391,22.52"/>
	<polyline class="st8" points="38.556,60.122 52.841,73.998 84.509,42.331 	"/>
</g>
<g id="database" class="st7">
	<rect x="10.371" y="11.315" class="st8" width="75.616" height="32.781"/>
	<polyline class="st8" points="68.504,76.441 10.371,76.441 10.371,43.659 85.986,43.659 85.986,52.182 	"/>
	<polyline class="st8" points="85.986,100.699 85.986,108.785 10.371,108.785 10.371,76.004 68.504,76.004 	"/>
	<path class="st8" d="M30.477,27.705c0,2.897-2.348,5.245-5.245,5.245l0,0c-2.896,0-5.245-2.348-5.245-5.245l0,0
		c0-2.896,2.348-5.245,5.245-5.245l0,0C28.128,22.46,30.477,24.809,30.477,27.705L30.477,27.705z"/>
	<path class="st8" d="M30.477,60.05c0,2.897-2.348,5.243-5.245,5.243l0,0c-2.896,0-5.245-2.346-5.245-5.243l0,0
		c0-2.896,2.348-5.245,5.245-5.245l0,0C28.128,54.805,30.477,57.153,30.477,60.05L30.477,60.05z"/>
	<path class="st8" d="M30.477,92.394c0,2.896-2.348,5.245-5.245,5.245l0,0c-2.896,0-5.245-2.349-5.245-5.245l0,0
		c0-2.896,2.348-5.245,5.245-5.245l0,0C28.128,87.148,30.477,89.498,30.477,92.394L30.477,92.394z"/>
	<circle class="st8" cx="92.105" cy="76.44" r="24.259"/>
	<line class="st8" x1="79.867" y1="65.293" x2="102.924" y2="88.351"/>
	<line class="st8" x1="102.924" y1="65.293" x2="79.867" y2="88.351"/>
	<rect x="6" y="18.745" class="st8" width="4.371" height="16.609"/>
	<rect x="6" y="51.089" class="st8" width="4.371" height="16.609"/>
	<rect x="6" y="84.09" class="st8" width="4.371" height="16.609"/>
</g>
<g id="git" class="st7">
	<path class="st3" d="M6.074,64.543c-1.469-15.339,3.67-31.19,15.416-42.937c20.882-20.882,54.739-20.882,75.621,0
		c14.703,14.703,19.053,35.838,13.051,54.348"/>
	<path class="st3" d="M73.187,111.062c-17.849,4.781-37.69,0.171-51.696-13.833c-5.788-5.791-9.971-12.575-12.551-19.805"/>
	<path class="st3" d="M92.745,83.716l5.396-5.395c3.973-3.975,10.414-3.975,14.386,0l0,0c3.975,3.972,3.975,10.413,0,14.385
		l-5.394,5.397L92.745,83.716z"/>
	<path class="st3" d="M84.683,91.337l-5.395,5.397c-3.974,3.972-3.974,10.413,0,14.388l0,0c3.973,3.972,10.414,3.972,14.387,0
		l5.396-5.396L84.683,91.337z"/>
	<line class="st3" x1="95.404" y1="86.834" x2="91.013" y2="91.228"/>
	<line class="st3" x1="100.724" y1="98.519" x2="96.582" y2="102.66"/>
	<circle class="st3" cx="54.003" cy="83.365" r="6.294"/>
	<circle class="st3" cx="54.003" cy="29.479" r="6.294"/>
	<circle class="st3" cx="76.574" cy="45.478" r="6.293"/>
	<line class="st3" x1="54.003" y1="77.071" x2="54.003" y2="36.5"/>
	<path class="st3" d="M54.003,71.561c0,0,5.346-7.984,12.164-8.061c10.26-0.116,10.229-8.397,10.337-11.728"/>
</g>
<g id="webhooks" class="st7">
	<circle class="st3" cx="61.012" cy="31.989" r="6.84"/>
	<circle class="st3" cx="13.213" cy="33.863" r="6.839"/>
	<circle class="st3" cx="108.199" cy="33.863" r="6.84"/>
	<circle class="st3" cx="61.012" cy="31.989" r="2.242"/>
	<path class="st3" d="M55.521,42.328c-3.291-1.844-5.644-5.227-6.006-9.267C48.93,26.553,53.732,20.804,60.24,20.22
		c6.507-0.584,12.255,4.218,12.84,10.725"/>
	<line class="st3" x1="64" y1="38.83" x2="81.141" y2="89.608"/>
	<polyline class="st3" points="55.813,41.688 39.306,84.819 38.871,85.598 	"/>
	<circle class="st3" cx="84.298" cy="95.675" r="6.84"/>
	<circle class="st3" cx="84.298" cy="95.675" r="2.242"/>
	<path class="st3" d="M89.793,85.336c3.29,1.844,5.642,5.229,6.004,9.269c0.582,6.509-4.221,12.257-10.729,12.84
		c-6.508,0.582-12.256-4.222-12.838-10.728"/>
	<circle class="st3" cx="34.66" cy="95.675" r="6.84"/>
	<circle class="st3" cx="34.661" cy="95.675" r="2.242"/>
	<path class="st3" d="M39.892,85.209c3.332,1.768,5.76,5.096,6.216,9.128c0.732,6.492-3.937,12.35-10.43,13.083
		c-6.493,0.731-12.349-3.938-13.082-10.43"/>
	<line class="st3" x1="31.093" y1="89.842" x2="15.034" y2="39.785"/>
	<line class="st3" x1="105.121" y1="39.751" x2="89.793" y2="85.336"/>
</g>
<g id="rollback" class="st7">
	<polyline class="st3" points="69.787,15.227 69.787,3.033 100.122,9.522 106.414,16.138 106.414,66.222 91.088,63.507 	"/>
	<line class="st3" x1="91.466" y1="51.967" x2="100.854" y2="53.878"/>
	<line class="st3" x1="91.088" y1="40.69" x2="100.854" y2="42.679"/>
	<line class="st3" x1="91.088" y1="29.86" x2="100.854" y2="31.848"/>
	<polyline class="st3" points="54.735,25.648 54.735,13.453 85.072,19.943 91.364,26.559 91.364,76.644 76.037,73.928 	"/>
	<line class="st3" x1="76.416" y1="62.388" x2="85.801" y2="64.299"/>
	<line class="st3" x1="76.037" y1="51.11" x2="85.801" y2="53.099"/>
	<line class="st3" x1="76.037" y1="40.28" x2="85.801" y2="42.269"/>
	<polygon class="st3" points="76.037,35.474 76.037,85.558 39.409,79.068 39.409,22.368 69.745,28.858 	"/>
	<polyline class="st3" points="68.814,28.542 68.814,35.751 75.416,35.751 	"/>
	<polyline class="st3" points="84.439,20.291 84.439,27.5 91.041,27.5 	"/>
	<polyline class="st3" points="106.414,66.222 106.414,76.713 56.109,113.139 16.858,104.373 17.112,72.564 	"/>
	<circle class="st3" cx="16.858" cy="58.708" r="13.858"/>
	<line class="st3" x1="45.928" y1="45.049" x2="66.289" y2="49.196"/>
	<line class="st3" x1="45.928" y1="55.487" x2="66.289" y2="59.633"/>
	<line class="st3" x1="45.928" y1="65.964" x2="66.289" y2="70.111"/>
	<path class="st3" d="M71.638,64.882"/>
	<polyline class="st3" points="10.396,60.273 14.416,64.293 25.033,53.677 	"/>
</g>
<path class="st0" d="M98.115,50.688c9.656-3.16,16.633-12.236,16.633-22.948c0-13.336-10.812-24.147-24.148-24.147
	c-13.336,0-24.146,10.811-24.146,24.147c0,10.711,6.977,19.788,16.632,22.948"/>
<circle class="st0" cx="90.6" cy="27.74" r="24.147"/>
<path class="st0" d="M114.748,27.74c0-13.336-10.812-24.147-24.148-24.147c-13.336,0-24.146,10.811-24.146,24.147
	c0,8.063,3.955,15.196,10.027,19.581v31.128L90.76,64.25l13.961,14.198V47.32C110.794,42.936,114.748,35.802,114.748,27.74z"/>
<line class="st0" x1="83.568" y1="71.4" x2="83.568" y2="50.844"/>
<line class="st0" x1="97.667" y1="71.4" x2="97.667" y2="50.844"/>
</svg>
