<svg version="1.1" xmlns="http://www.w3.org/2000/svg" xmlns:xlink="http://www.w3.org/1999/xlink" x="0px" y="0px" width="729px"
	 height="459px" viewBox="0 0 729 459" style="enable-background:new 0 0 729 459;" xml:space="preserve">
<style type="text/css">

	.st6{
		opacity:0;
		fill:#FF8A80;
		-webkit-animation:blink 1s linear 1.5s infinite alternate;
		-moz-animation:blink 1s linear 1.5s infinite alternate;
  	animation:blink 1s linear 1.5s infinite alternate;
		}

	.st5{
		fill:#FDD835;
		opacity:0;
		-webkit-animation:blink 1s linear 2s infinite alternate;
		-moz-animation:blink 1s linear 2s infinite alternate;
  	animation:blink 1s linear 2s infinite alternate;
	}
	.st14{
		fill:#78909C;
		opacity:0;
		-webkit-animation:blink 1s linear 3s infinite alternate;
		-moz-animation:blink 1s linear 3s infinite alternate;
  	animation:blink 1s linear 3s infinite alternate;
	}

	.rotation{
		-webkit-animation: rotation 4s reverse linear;
    -moz-animation: rotation 4s reverse linear;
    -o-animation: rotation 4s reverse linear;
    animation: rotation 4s reverse linear;
    transform-origin: 50% 50%;
    -webkit-transform-origin: 50% 50%;
    -moz-transform-origin: 50% 50%;
	}

	@-webkit-keyframes rotation{
		from {-webkit-transform: rotate(360deg);}
    to   {-webkit-transform: rotate(0deg);}
	}

	@-moz-keyframes rotation{
		from {-moz-transform: rotate(360deg);}
    to   {-moz-transform: rotate(0deg);}
	}

	@-webkit-keyframes blink{
	  	0% 	{opacity:0;}
	  	50% {opacity:0.5;}
	  	100%{opacity:1;}
	}

	@-moz-keyframes blink{
	  	0% 	{-moz-opacity:0;}
	  	50% {-moz-opacity:0.5;}
	  	100%{-moz-opacity:1;}
	}



	.st0{fill:#8C9194;}
	.st1{fill:#F2F2F2;}
	.st2{fill:#F9F9F9;}
	.st3{fill:#969696;}
	.st4{fill:none;stroke:#969696;stroke-width:3;stroke-miterlimit:10;}
	.st5{fill:#FDD835;}
	.st6{fill:#FF8A80;}
	.st7{fill:none;}
	.st8{display:none;fill:#4F5051;}
	.st9{fill:#CECECE;}
	.st10{display:inline;fill:#03A9F4;}
	.st11{fill:#359B19;}
	.st12{fill:none;stroke:#969696;stroke-width:2;stroke-miterlimit:10;}
	.st13{display:none;}
	.st14{fill:#78909C;}

</style>

<g id="footer">
	<path class="st9" d="M729,0H5.122C2.139,0-0.28,5.729-0.28,12.794v83.164H729V12.794C729,5.729,729,0,729,0z"/>
	<rect x="-0.28" y="41.582" class="st1" width="729.28" height="54.376"/>
	<rect x="-0.28" y="94.762" class="st2" width="729.28" height="363.824"/>
	<g>
		<g>
			<line class="st4" x1="38.103" y1="68.77" x2="21.188" y2="68.77"/>
			<g>
				<polygon class="st3" points="28.147,60.181 29.579,61.719 21.995,68.768 29.579,75.818 28.147,77.356 18.911,68.768 				"/>
			</g>
		</g>
	</g>
	<g>
		<g>
			<line class="st4" x1="57.294" y1="68.77" x2="74.208" y2="68.77"/>
			<g>
				<polygon class="st3" points="67.25,77.359 65.818,75.821 73.402,68.772 65.818,61.722 67.25,60.184 76.486,68.772 				"/>
			</g>
		</g>
	</g>
	<g class="rotation">
		<g>
			<g>
				<path class="st12" d="M114.869,73.63c-1.756,3.37-5.282,5.67-9.344,5.67c-5.816,0-10.531-4.714-10.531-10.53
					c0-5.816,4.714-10.53,10.531-10.531c1.976,0,3.825,0.544,5.406,1.492"/>
				<g>
					<polygon class="st3" points="107.131,61.97 114.869,63.91 112.681,56.239 					"/>
				</g>
			</g>
		</g>
	</g>
	<rect x="155.994" y="49.578" class="st2" width="573.006" height="38.383"/>
	<path class="st1" d="M364.964,37.72c0,2.65,13.129,4.798,9.596,4.798H134.061c-3.532,0,9.596,0,10.2-4.798l8.991-19.191
		c0-2.65,2.865-4.798,6.397-4.798h188.718c3.532,0,6.396,2.148,6.396,4.798L364.964,37.72z"/>
	<circle class="st6" cx="23.709" cy="18.528" r="4.798"/>
	<circle class="st14" cx="62.092" cy="18.528" r="4.798"/>
	<circle class="st5" cx="42.901" cy="18.528" r="4.798"/>
	<g>
		<path class="st11" d="M172.444,61.921h1.313v4.51h0.03c0.209-0.374,0.537-0.717,0.941-0.926c0.389-0.239,0.851-0.374,1.344-0.374
			c0.971,0,2.524,0.597,2.524,3.091v4.301h-1.315v-4.152c0-1.18-0.433-2.15-1.672-2.15c-0.852,0-1.509,0.597-1.763,1.314
			c-0.074,0.18-0.09,0.374-0.09,0.627v4.361h-1.313V61.921z"/>
		<path class="st11" d="M182.252,63.564v1.732h1.882v1h-1.882v3.898c0,0.896,0.253,1.403,0.985,1.403
			c0.358,0,0.567-0.029,0.762-0.089l0.06,1c-0.254,0.09-0.657,0.18-1.165,0.18c-0.612,0-1.104-0.209-1.418-0.553
			c-0.359-0.403-0.509-1.045-0.509-1.896v-3.943h-1.12v-1h1.12v-1.329L182.252,63.564z"/>
		<path class="st11" d="M187.192,63.564v1.732h1.882v1h-1.882v3.898c0,0.896,0.253,1.403,0.985,1.403
			c0.358,0,0.567-0.029,0.762-0.089l0.06,1c-0.254,0.09-0.657,0.18-1.165,0.18c-0.612,0-1.104-0.209-1.418-0.553
			c-0.359-0.403-0.508-1.045-0.508-1.896v-3.943h-1.121v-1h1.121v-1.329L187.192,63.564z"/>
		<path class="st11" d="M190.55,67.656c0-0.926-0.015-1.673-0.06-2.36h1.18l0.075,1.24h0.029c0.522-0.896,1.389-1.404,2.554-1.404
			c1.763,0,3.077,1.479,3.077,3.674c0,2.599-1.599,3.883-3.286,3.883c-0.971,0-1.792-0.418-2.226-1.135h-0.03v3.928h-1.313V67.656z
			 M191.863,69.583c0,0.179,0.016,0.374,0.061,0.537c0.224,0.911,1.03,1.539,1.957,1.539c1.389,0,2.194-1.135,2.194-2.792
			c0-1.449-0.746-2.688-2.136-2.688c-0.896,0-1.747,0.627-2.001,1.613c-0.03,0.179-0.075,0.374-0.075,0.538V69.583z"/>
		<path class="st11" d="M198.863,71.196c0.403,0.239,1.091,0.508,1.747,0.508c0.941,0,1.39-0.463,1.39-1.075
			c0-0.627-0.373-0.971-1.329-1.329c-1.314-0.478-1.927-1.18-1.927-2.046c0-1.165,0.955-2.121,2.494-2.121
			c0.731,0,1.374,0.194,1.762,0.448l-0.313,0.941c-0.284-0.165-0.807-0.418-1.479-0.418c-0.776,0-1.195,0.448-1.195,0.986
			c0,0.612,0.419,0.881,1.36,1.24c1.239,0.462,1.896,1.09,1.896,2.18c0,1.284-1,2.181-2.688,2.181c-0.791,0-1.522-0.209-2.03-0.508
			L198.863,71.196z"/>
		<path class="st0" d="M205.507,72.689c-0.509,0-0.866-0.403-0.866-0.926c0-0.552,0.372-0.94,0.881-0.94
			c0.538,0,0.881,0.388,0.881,0.94c0,0.523-0.343,0.926-0.881,0.926H205.507z M205.521,67.417c-0.509,0-0.866-0.404-0.866-0.926
			c0-0.552,0.373-0.941,0.882-0.941c0.537,0,0.881,0.389,0.881,0.941c0,0.522-0.344,0.926-0.881,0.926H205.521z"/>
		<path class="st0" d="M206.939,73.123l4.151-10.828h1.03l-4.182,10.828H206.939z"/>
		<path class="st0" d="M212.059,73.123l4.151-10.828h1.031l-4.182,10.828H212.059z"/>
		<path class="st0" d="M218.806,65.296l0.971,3.659c0.194,0.807,0.389,1.568,0.522,2.315h0.046c0.163-0.731,0.403-1.508,0.642-2.3
			l1.18-3.674h1.105l1.12,3.615c0.269,0.851,0.479,1.628,0.642,2.359h0.045c0.12-0.731,0.314-1.493,0.553-2.345l1.031-3.629h1.299
			l-2.33,7.229h-1.194l-1.105-3.45c-0.254-0.821-0.462-1.538-0.642-2.389h-0.03c-0.179,0.866-0.402,1.628-0.657,2.404l-1.165,3.435
			h-1.195l-2.18-7.229H218.806z"/>
		<path class="st0" d="M229.792,65.296l0.97,3.659c0.195,0.807,0.389,1.568,0.524,2.315h0.045c0.163-0.731,0.402-1.508,0.641-2.3
			l1.18-3.674h1.106l1.12,3.615c0.269,0.851,0.478,1.628,0.642,2.359h0.046c0.118-0.731,0.313-1.493,0.552-2.345l1.03-3.629h1.3
			l-2.33,7.229h-1.194l-1.106-3.45c-0.254-0.821-0.462-1.538-0.642-2.389h-0.029c-0.18,0.866-0.403,1.628-0.657,2.404l-1.165,3.435
			h-1.195l-2.181-7.229H229.792z"/>
		<path class="st0" d="M240.777,65.296l0.971,3.659c0.194,0.807,0.389,1.568,0.522,2.315h0.046c0.163-0.731,0.403-1.508,0.642-2.3
			l1.18-3.674h1.105l1.12,3.615c0.269,0.851,0.479,1.628,0.642,2.359h0.045c0.12-0.731,0.314-1.493,0.553-2.345l1.031-3.629h1.299
			l-2.33,7.229h-1.194l-1.105-3.45c-0.254-0.821-0.463-1.538-0.642-2.389h-0.03c-0.179,0.866-0.402,1.628-0.657,2.404l-1.165,3.435
			h-1.195l-2.18-7.229H240.777z"/>
		<path class="st0" d="M251.212,72.689c-0.509,0-0.866-0.403-0.866-0.941c0-0.537,0.372-0.94,0.896-0.94
			c0.522,0,0.881,0.388,0.881,0.94c0,0.538-0.358,0.941-0.896,0.941H251.212z"/>
		<path class="st0" d="M254.271,65.296l0.971,3.659c0.194,0.807,0.389,1.568,0.522,2.315h0.046c0.163-0.731,0.403-1.508,0.642-2.3
			l1.18-3.674h1.105l1.12,3.615c0.269,0.851,0.479,1.628,0.642,2.359h0.045c0.12-0.731,0.314-1.493,0.553-2.345l1.031-3.629h1.299
			l-2.33,7.229h-1.194l-1.105-3.45c-0.254-0.821-0.463-1.538-0.642-2.389h-0.03c-0.179,0.866-0.402,1.628-0.657,2.404l-1.165,3.435
			h-1.195l-2.18-7.229H254.271z"/>
		<path class="st0" d="M265.347,69.135c0.03,1.777,1.151,2.509,2.465,2.509c0.941,0,1.523-0.164,2.001-0.358l0.24,0.926
			c-0.464,0.209-1.271,0.463-2.42,0.463c-2.211,0-3.555-1.479-3.555-3.644c0-2.195,1.299-3.913,3.404-3.913
			c2.36,0,2.973,2.076,2.973,3.405c0,0.269-0.016,0.478-0.045,0.627L265.347,69.135z M269.186,68.194
			c0.015-0.821-0.343-2.136-1.807-2.136c-1.345,0-1.912,1.225-2.017,2.136H269.186z"/>
		<path class="st0" d="M272.078,61.921h1.314v4.525h0.03c0.463-0.806,1.299-1.314,2.464-1.314c1.792,0,3.047,1.493,3.047,3.674
			c0,2.599-1.643,3.883-3.256,3.883c-1.045,0-1.867-0.403-2.42-1.359h-0.029l-0.074,1.195h-1.135
			c0.044-0.493,0.059-1.225,0.059-1.867V61.921z M273.393,69.628c0,0.164,0.016,0.329,0.045,0.478
			c0.254,0.911,1.03,1.538,1.972,1.538c1.389,0,2.195-1.12,2.195-2.777c0-1.464-0.747-2.704-2.15-2.704
			c-0.896,0-1.732,0.627-1.986,1.613c-0.045,0.165-0.075,0.344-0.075,0.553V69.628z"/>
		<path class="st0" d="M280.586,67.552c0-0.851-0.015-1.583-0.06-2.255h1.151l0.059,1.419h0.045
			c0.328-0.971,1.135-1.583,2.016-1.583c0.135,0,0.24,0.015,0.359,0.045v1.225c-0.149-0.015-0.284-0.03-0.463-0.03
			c-0.926,0-1.584,0.702-1.763,1.672c-0.029,0.194-0.045,0.403-0.045,0.627v3.853h-1.314L280.586,67.552z"/>
		<path class="st0" d="M286.14,63.967c-0.493,0-0.821-0.388-0.821-0.851s0.344-0.837,0.851-0.837c0.509,0,0.836,0.374,0.836,0.837
			s-0.327,0.851-0.851,0.851H286.14z M285.512,72.525v-7.229h1.314v7.229H285.512z"/>
		<path class="st0" d="M293.935,71.42h-0.03c-0.389,0.702-1.195,1.27-2.359,1.27c-1.688,0-3.063-1.449-3.063-3.659
			c0-2.703,1.747-3.898,3.271-3.898c1.12,0,1.867,0.552,2.227,1.254h0.029l0.044-1.09h1.255c-0.045,0.598-0.06,1.225-0.06,1.987
			v8.199h-1.313V71.42z M293.935,68.224c0-0.194-0.016-0.388-0.061-0.552c-0.209-0.807-0.896-1.494-1.882-1.494
			c-1.358,0-2.18,1.15-2.18,2.778c0,1.448,0.686,2.688,2.136,2.688c0.851,0,1.582-0.522,1.881-1.434
			c0.061-0.179,0.105-0.433,0.105-0.627V68.224z"/>
		<path class="st0" d="M297.663,72.689c-0.508,0-0.866-0.403-0.866-0.941c0-0.537,0.373-0.94,0.896-0.94
			c0.523,0,0.882,0.388,0.882,0.94c0,0.538-0.358,0.941-0.896,0.941H297.663z"/>
		<path class="st0" d="M305.354,72.271c-0.344,0.165-1.105,0.418-2.076,0.418c-2.181,0-3.6-1.479-3.6-3.704
			c0-2.225,1.523-3.853,3.883-3.853c0.776,0,1.464,0.194,1.822,0.389l-0.298,1c-0.314-0.165-0.808-0.344-1.524-0.344
			c-1.658,0-2.553,1.24-2.553,2.748c0,1.673,1.074,2.704,2.508,2.704c0.748,0,1.24-0.18,1.614-0.343L305.354,72.271z"/>
		<path class="st0" d="M309.74,72.689c-1.942,0-3.465-1.434-3.465-3.719c0-2.419,1.598-3.838,3.584-3.838
			c2.075,0,3.48,1.508,3.48,3.704c0,2.688-1.867,3.854-3.585,3.854H309.74z M309.785,71.704c1.254,0,2.194-1.18,2.194-2.823
			c0-1.225-0.612-2.763-2.164-2.763c-1.539,0-2.211,1.434-2.211,2.808c0,1.583,0.896,2.778,2.166,2.778H309.785z"/>
		<path class="st0" d="M314.993,67.253c0-0.762-0.03-1.359-0.06-1.957h1.149l0.061,1.165h0.045c0.402-0.687,1.074-1.329,2.284-1.329
			c0.972,0,1.718,0.597,2.031,1.448h0.03c0.224-0.418,0.522-0.717,0.821-0.94c0.433-0.329,0.896-0.508,1.583-0.508
			c0.971,0,2.39,0.627,2.39,3.136v4.256h-1.285v-4.092c0-1.404-0.522-2.226-1.568-2.226c-0.761,0-1.328,0.553-1.567,1.18
			c-0.06,0.194-0.104,0.433-0.104,0.657v4.48h-1.285v-4.331c0-1.165-0.507-1.986-1.507-1.986c-0.808,0-1.42,0.657-1.629,1.314
			c-0.075,0.194-0.104,0.418-0.104,0.642v4.361h-1.284V67.253z"/>
	</g>
	<rect id="_x3C_Slice_x3E_" x="-2" y="-6" class="st7" width="733" height="468"/>
</g>
<g id="header">
	<ellipse class="st8" cx="94.5" cy="553.5" rx="481.5" ry="31.5"/>
</g>
</svg>
