<svg xmlns="http://www.w3.org/2000/svg" viewBox="0 0 512 512" width="512" height="512"><g fill="#FFF"><path d="M473.6 8.533H38.4C17.067 8.533 0 25.6 0 46.933v315.733c0 21.333 17.067 38.4 38.4 38.4h152.157c1.21 14.852-5.492 29.407-17.33 37.547l-15.36 11.093c-1.584.95-2.812 2.253-3.647 3.733-10.44 3.21-17.687 12.7-17.687 24.426 0 14.507 11.093 25.6 25.6 25.6h187.733c14.507 0 25.6-11.093 25.6-25.6 0-12.35-8.044-22.223-19.388-24.885-.726-1.288-1.666-2.424-2.8-3.274l-15.36-11.093c-12.056-8.29-18.112-22.568-17.015-37.547H473.6c21.333 0 38.4-17.067 38.4-38.4V46.933c0-21.333-17.067-38.4-38.4-38.4zm-456.533 38.4c0-11.947 9.387-21.333 21.333-21.333h435.2c11.947 0 21.333 9.387 21.333 21.333V307.2H17.067V46.933zm332.8 439.467H162.133c-5.12 0-8.533-3.413-8.533-8.533s3.413-8.533 8.533-8.533H349.867c5.12 0 8.533 3.413 8.533 8.533s-3.413 8.533-8.533 8.533zm-23.04-34.133H184.32c16.213-11.947 24.747-31.573 23.893-51.2h95.573c-1.706 19.626 7.68 39.253 23.04 51.2zm168.106-89.6c0 11.947-9.387 21.333-21.333 21.333H38.4c-11.947 0-21.333-9.387-21.333-21.333v-38.4h477.867v38.4z"/><path d="M148.48 170.667l62.293-62.293c3.413-3.413 3.413-8.533 0-11.947s-8.533-3.413-11.947 0l-68.267 68.267c-2.56 2.56-3.414 5.973-1.708 9.387.853 1.708 1.707 2.56 2.56 3.414l67.413 67.413c1.707 1.707 3.413 2.56 5.973 2.56s4.267-.853 5.973-2.56c3.414-3.413 3.414-8.533 0-11.947l-62.29-62.293zM380.587 163.84l-67.413-67.413c-3.413-3.413-8.533-3.413-11.947 0s-3.413 8.533 0 11.947l62.293 62.293-62.293 62.293c-3.413 3.413-3.413 8.533 0 11.947 1.707 1.707 3.413 2.56 5.973 2.56s4.267-.853 5.973-2.56l68.267-68.267c2.56-2.56 3.413-5.973 1.707-9.387-.854-1.706-1.707-2.56-2.56-3.413zM275.627 94.72c-4.267-1.707-9.387 1.707-10.24 5.973l-34.133 136.533c-1.707 4.267 1.707 9.387 5.973 10.24h1.707c4.267 0 7.68-2.56 8.533-5.973L281.6 104.96c1.707-4.267-1.707-9.387-5.973-10.24z"/></g></svg>