<svg version="1.1" xmlns="http://www.w3.org/2000/svg" xmlns:xlink="http://www.w3.org/1999/xlink" x="0px" y="0px"
	 width="157.193px" height="156px" viewBox="0 0 157.193 156" style="enable-background:new 0 0 157.193 156;" xml:space="preserve"
	>
<style type="text/css">
<![CDATA[
	.st0{fill:none;stroke:#FCFCFC;stroke-width:1.5;stroke-miterlimit:10;}
	.st1{fill:none;stroke:#49B6D3;stroke-width:1.5;stroke-miterlimit:10;}
	.st2{fill:none;}
	.st3{fill:none;stroke:#FCFCFC;stroke-width:1.5;stroke-miterlimit:10;stroke-dasharray:4,4;}
]]>
</style>
<g id="Layer_2">
	<circle class="st0" cx="77.67" cy="78.179" r="54"/>
	<path class="st3" d="M102.893,61.402c-1.319,2.602-5.699,5.253-9.763,3.188c-3.575-1.816-5.003-6.188-3.187-9.765
		c1.816-3.575,6.189-5.003,9.766-3.186C103.283,53.456,104.71,57.828,102.893,61.402z"/>
	<circle class="st0" cx="93.881" cy="88.04" r="5.091"/>
	<path class="st0" d="M91.715,56.636"/>
	<path class="st0" d="M69.294,58.73"/>
	<path class="st0" d="M97.277,84.25"/>
	<path class="st0" d="M100.184,64.378"/>
	<line class="st0" x1="74.38" y1="84.454" x2="70.725" y2="93.779"/>
	<line class="st0" x1="64.047" y1="63.294" x2="71.121" y2="69.94"/>
	<line class="st0" x1="84.867" y1="81.334" x2="89.743" y2="85.074"/>
	<line class="st0" x1="91.715" y1="63.294" x2="84.02" y2="70.481"/>
	<circle class="st0" cx="96.3" cy="56.746" r="1.301"/>
	<path class="st0" d="M93.881,60.882v-0.73c0-1.134,0.918-2.054,2.053-2.054h0.73c1.135,0,2.055,0.92,2.055,2.054v0.73"/>
	<circle class="st0" cx="93.92" cy="86.615" r="1.131"/>
	<path class="st0" d="M91.816,90.214v-0.637c0-0.986,0.8-1.786,1.787-1.786h0.635c0.987,0,1.787,0.8,1.787,1.786v0.637"/>
	<circle class="st0" cx="55.763" cy="86.083" r="4.104"/>
	<circle class="st0" cx="55.796" cy="85.138" r="0.913"/>
	<path class="st0" d="M54.1,88.041v-0.514c0-0.796,0.645-1.439,1.441-1.439h0.512c0.795,0,1.44,0.644,1.44,1.439v0.514"/>
	<path class="st1" d="M68.471,92.979c-3.459,0-6.264,2.804-6.264,6.262c0,3.46,2.805,6.265,6.264,6.265s6.264-2.805,6.264-6.265
		C74.734,95.783,71.93,92.979,68.471,92.979z M68.527,96.188c0.719,0,1.302,0.58,1.302,1.3c0,0.718-0.583,1.301-1.302,1.301
		c-0.718,0-1.3-0.581-1.3-1.301C67.228,96.771,67.81,96.188,68.527,96.188z M66.109,100.895c0-1.135,0.92-2.055,2.053-2.055h0.731
		c1.134,0,2.054,0.92,2.054,2.055"/>
	<circle class="st1" cx="77.662" cy="76.085" r="8.758"/>
	<circle class="st1" cx="77.719" cy="74.331" r="1.3"/>
	<path class="st1" d="M75.301,78.467v-0.729c0-1.134,0.919-2.055,2.053-2.055h0.73c1.135,0,2.055,0.921,2.055,2.055v0.729"/>
	<path class="st0" d="M62.207,56.088c-2.211,0-4.004,1.764-4.004,3.937c0,2.174,1.793,3.936,4.004,3.936s4.004-1.762,4.004-3.936
		C66.211,57.852,64.418,56.088,62.207,56.088z M62.225,57.914c0.541,0,0.98,0.432,0.98,0.963s-0.439,0.962-0.98,0.962
		c-0.54,0-0.979-0.431-0.979-0.962S61.685,57.914,62.225,57.914z M60.404,61.939v-0.542c0-0.839,0.692-1.52,1.546-1.52h0.55
		c0.854,0,1.546,0.681,1.546,1.52v0.542"/>
	<line class="st0" x1="69.92" y1="80.181" x2="59.703" y2="85.343"/>
	<rect id="_x3C_Slice_x3E__2_" x="-3" class="st2" width="157.193" height="156"/>
</g>
</svg>
