<?xml version="1.0" encoding="utf-8"?>
<!-- Generator: Adobe Illustrator 16.0.0, SVG Export Plug-In . SVG Version: 6.00 Build 0)  -->
<!DOCTYPE svg PUBLIC "-//W3C//DTD SVG 1.1//EN" "http://www.w3.org/Graphics/SVG/1.1/DTD/svg11.dtd">
<svg version="1.1" id="Layer_1" xmlns="http://www.w3.org/2000/svg" xmlns:xlink="http://www.w3.org/1999/xlink" x="0px" y="0px"
	 width="650px" height="350px" viewBox="0 0 650 350" enable-background="new 0 0 650 350" xml:space="preserve">
<g id="deployment" display="none">
	<path display="inline" fill="#FAFAFA" stroke="#78909C" stroke-width="2" stroke-miterlimit="10" d="M614.041,300.947
		c0,3.254-2.637,5.893-5.891,5.893H370.139c-3.252,0-5.891-2.639-5.891-5.893V32.295c0-3.254,2.639-5.892,5.891-5.892H608.15
		c3.254,0,5.891,2.638,5.891,5.892V300.947z"/>
	
		<circle display="inline" fill="#02A8F3" stroke="#02A8F3" stroke-width="2" stroke-miterlimit="10" cx="402.243" cy="94.99" r="10.897"/>
	<path display="inline" fill="#EEEEEE" d="M586.941,126.119c0,1.3-1.055,2.357-2.355,2.357H431.408
		c-1.303,0-2.357-1.057-2.357-2.357V98.236l-5.248-3.585l5.248-3.607v-5.772c0-1.301,1.055-2.356,2.357-2.356h153.178
		c1.301,0,2.355,1.055,2.355,2.356V126.119z"/>
	
		<line display="inline" fill="#EEEEEE" stroke="#1DE9B6" stroke-width="2" stroke-miterlimit="10" x1="438.09" y1="112.177" x2="474.617" y2="112.177"/>
	
		<line display="inline" fill="#EEEEEE" stroke="#C4C4C4" stroke-width="2" stroke-miterlimit="10" x1="438.09" y1="94.99" x2="474.617" y2="94.99"/>
	
		<line display="inline" fill="#EEEEEE" stroke="#C4C4C4" stroke-width="2" stroke-miterlimit="10" x1="438.09" y1="103.584" x2="517.035" y2="103.584"/>
	<path display="inline" fill="#02A8F3" stroke="#02A8F3" stroke-width="2" stroke-miterlimit="10" d="M580.662,120.699
		c0,1.303-1.055,2.356-2.355,2.356h-17.086c-1.301,0-2.355-1.054-2.355-2.356v-0.274c0-1.3,1.055-2.356,2.355-2.356h17.086
		c1.301,0,2.355,1.056,2.355,2.356V120.699z"/>
	<polyline display="inline" fill="none" stroke="#FFFFFF" stroke-width="2" stroke-miterlimit="10" points="397.145,95.984 
		400.459,99.299 409.074,90.682 	"/>
	
		<line display="inline" fill="none" stroke="#F5F5F5" stroke-width="2" stroke-miterlimit="10" x1="402.244" y1="107.119" x2="402.244" y2="229.859"/>
	
		<circle display="inline" fill="#02A8F3" stroke="#02A8F3" stroke-width="2" stroke-miterlimit="10" cx="402.243" cy="168.461" r="10.897"/>
	<path display="inline" fill="#EEEEEE" d="M586.941,199.59c0,1.303-1.055,2.355-2.355,2.355H431.408
		c-1.303,0-2.357-1.053-2.357-2.355v-27.884l-5.248-3.585l5.248-3.606v-5.772c0-1.301,1.055-2.356,2.357-2.356h153.178
		c1.301,0,2.355,1.055,2.355,2.356V199.59z"/>
	
		<line display="inline" fill="#EEEEEE" stroke="#1DE9B6" stroke-width="2" stroke-miterlimit="10" x1="438.09" y1="185.65" x2="474.617" y2="185.65"/>
	
		<line display="inline" fill="#EEEEEE" stroke="#C4C4C4" stroke-width="2" stroke-miterlimit="10" x1="438.09" y1="168.461" x2="474.617" y2="168.461"/>
	
		<line display="inline" fill="#EEEEEE" stroke="#C4C4C4" stroke-width="2" stroke-miterlimit="10" x1="438.09" y1="177.055" x2="517.035" y2="177.055"/>
	<path display="inline" fill="#02A8F3" stroke="#02A8F3" stroke-width="2" stroke-miterlimit="10" d="M580.662,194.172
		c0,1.301-1.055,2.357-2.355,2.357h-17.086c-1.301,0-2.355-1.057-2.355-2.357v-0.273c0-1.303,1.055-2.357,2.355-2.357h17.086
		c1.301,0,2.355,1.055,2.355,2.357V194.172z"/>
	<polyline display="inline" fill="none" stroke="#FFFFFF" stroke-width="2" stroke-miterlimit="10" points="397.145,169.456 
		400.459,172.77 409.074,164.154 	"/>
	<circle display="inline" fill="#FF8A80" stroke="#FF8A80" stroke-miterlimit="10" cx="402.243" cy="241.934" r="10.897"/>
	<path display="inline" fill="#EEEEEE" d="M586.941,273.063c0,1.301-1.055,2.355-2.355,2.355H431.408
		c-1.303,0-2.357-1.055-2.357-2.355V245.18l-5.248-3.586l5.248-3.607v-5.771c0-1.303,1.055-2.355,2.357-2.355h153.178
		c1.301,0,2.355,1.053,2.355,2.355V273.063z"/>
	
		<line display="inline" fill="#EEEEEE" stroke="#1DE9B6" stroke-width="2" stroke-miterlimit="10" x1="438.09" y1="259.121" x2="474.617" y2="259.121"/>
	
		<line display="inline" fill="#EEEEEE" stroke="#C4C4C4" stroke-width="2" stroke-miterlimit="10" x1="438.09" y1="241.934" x2="474.617" y2="241.934"/>
	
		<line display="inline" fill="#EEEEEE" stroke="#C4C4C4" stroke-width="2" stroke-miterlimit="10" x1="438.09" y1="250.527" x2="517.035" y2="250.527"/>
	<path display="inline" fill="#02A8F3" stroke="#02A8F3" stroke-width="2" stroke-miterlimit="10" d="M580.662,267.643
		c0,1.303-1.055,2.355-2.355,2.355h-17.086c-1.301,0-2.355-1.053-2.355-2.355v-0.273c0-1.301,1.055-2.357,2.355-2.357h17.086
		c1.301,0,2.355,1.057,2.355,2.357V267.643z"/>
	<path display="inline" fill="#EEEEEE" stroke="#FFFFFF" stroke-width="2" stroke-miterlimit="10" d="M409.074,237.627"/>
	<g display="inline">
		<path fill="#FFFFFF" d="M400.041,237.125l1.324,1.975c0.346,0.535,0.633,0.996,0.939,1.514h0.057
			c0.307-0.539,0.613-1.018,0.939-1.514l1.285-1.975h1.84l-3.164,4.484l3.24,4.795h-1.916l-1.361-2.094
			c-0.365-0.535-0.672-1.051-0.998-1.607h-0.037c-0.307,0.557-0.633,1.053-0.979,1.607l-1.342,2.094h-1.859l3.297-4.734
			l-3.143-4.545H400.041z"/>
	</g>
	<circle display="inline" fill="#FF8A80" stroke="#FF8A80" stroke-miterlimit="10" cx="379.96" cy="43.688" r="4.714"/>
	<circle display="inline" fill="#FDD835" stroke="#FDD835" stroke-miterlimit="10" cx="397.145" cy="43.688" r="4.713"/>
	
		<circle display="inline" fill="#78909C" stroke="#78909C" stroke-width="0.5" stroke-miterlimit="10" cx="414.319" cy="43.688" r="4.714"/>
	
		<line display="inline" fill="#FAFAFA" stroke="#78909C" stroke-width="2" stroke-miterlimit="10" x1="364.248" y1="60.577" x2="614.041" y2="60.577"/>
	<path display="inline" fill="#FFFFFF" stroke="#78909C" stroke-width="2" stroke-miterlimit="10" d="M273.246,269.063
		c0,2.539-2.06,4.6-4.6,4.6H34.111c-2.54,0-4.599-2.061-4.599-4.6V109.946c0-2.54,2.059-4.6,4.599-4.6h234.535
		c2.54,0,4.6,2.06,4.6,4.6V269.063z"/>
	
		<rect x="29.513" y="122.516" display="inline" fill="#78909C" stroke="#78909C" stroke-width="2" stroke-miterlimit="10" width="243.733" height="126.787"/>
	
		<rect x="118.729" y="273.662" display="inline" fill="#FFFFFF" stroke="#78909C" stroke-width="2" stroke-miterlimit="10" width="65.3" height="9.811"/>
	
		<polyline display="inline" fill="none" stroke="#BDBDBD" stroke-width="2" stroke-miterlimit="10" stroke-dasharray="10,7" points="
		277.967,245.008 317.371,245.008 317.371,93.312 364.248,93.312 	"/>
	
		<circle display="inline" fill="#1DE9B6" stroke="#1DE9B6" stroke-width="2" stroke-miterlimit="10" cx="318.247" cy="176.82" r="36.536"/>
	<path display="inline" fill="none" stroke="#FFFFFF" stroke-width="4" stroke-miterlimit="10" d="M334.121,192.805
		c7.268-7.277,8.711-18.886,2.857-27.837c-6.063-9.279-17.881-12.528-27.68-8.119l6.437,4.001"/>
	<path display="inline" fill="none" stroke="#FFFFFF" stroke-width="4" stroke-miterlimit="10" d="M324.754,202.354l2.277-4.77
		c-9.708,4.115-21.267,0.824-27.24-8.313c-5.842-8.939-4.413-20.529,2.83-27.809"/>
	<g display="inline">
		<path fill="#FFFFFF" d="M50.582,149.259l-3.663,1.87v-0.544l3.11-1.54v-0.015l-3.11-1.547v-0.544l3.663,1.879V149.259z"/>
	</g>
	<circle display="inline" fill="#78909C" cx="257.653" cy="261.424" r="3.48"/>
	<g display="inline">
		<path fill="#FFFFFF" d="M58.069,150.088c0,0.395,0.008,0.741,0.032,1.041h-0.616l-0.04-0.623H57.43
			c-0.174,0.307-0.584,0.71-1.263,0.71c-0.6,0-1.318-0.338-1.318-1.673v-2.234h0.695v2.108c0,0.727,0.228,1.223,0.853,1.223
			c0.465,0,0.79-0.323,0.916-0.639c0.04-0.095,0.063-0.222,0.063-0.355v-2.337h0.694V150.088z"/>
		<path fill="#FFFFFF" d="M59.224,148.556c0-0.489-0.008-0.883-0.031-1.247h0.623l0.04,0.656h0.016
			c0.277-0.474,0.734-0.742,1.35-0.742c0.932,0,1.626,0.781,1.626,1.941c0,1.375-0.845,2.053-1.736,2.053
			c-0.513,0-0.948-0.221-1.177-0.6h-0.015v2.076h-0.695V148.556z M59.919,149.574c0,0.094,0.008,0.198,0.031,0.284
			c0.118,0.481,0.545,0.813,1.034,0.813c0.734,0,1.16-0.6,1.16-1.476c0-0.767-0.395-1.421-1.128-1.421
			c-0.474,0-0.924,0.332-1.058,0.853c-0.016,0.095-0.039,0.197-0.039,0.285V149.574z"/>
		<path fill="#FFFFFF" d="M67.026,145.525v4.619c0,0.34,0.007,0.725,0.031,0.985h-0.623l-0.032-0.662h-0.016
			c-0.213,0.426-0.671,0.749-1.294,0.749c-0.924,0-1.642-0.781-1.642-1.942c-0.008-1.278,0.789-2.052,1.713-2.052
			c0.592,0,0.987,0.276,1.153,0.577h0.016v-2.274H67.026z M66.332,148.864c0-0.096-0.008-0.206-0.032-0.3
			c-0.103-0.434-0.481-0.797-1.002-0.797c-0.718,0-1.145,0.631-1.145,1.468c0,0.782,0.387,1.421,1.129,1.421
			c0.466,0,0.893-0.316,1.019-0.829c0.023-0.095,0.032-0.189,0.032-0.3V148.864z"/>
		<path fill="#FFFFFF" d="M70.873,150.214c0,0.332,0.016,0.655,0.055,0.915h-0.624l-0.063-0.48h-0.023
			c-0.205,0.299-0.624,0.567-1.168,0.567c-0.774,0-1.168-0.544-1.168-1.098c0-0.923,0.821-1.428,2.297-1.42v-0.08
			c0-0.315-0.087-0.892-0.868-0.884c-0.363,0-0.734,0.103-1.002,0.284l-0.158-0.466c0.316-0.198,0.782-0.332,1.264-0.332
			c1.176,0,1.46,0.797,1.46,1.563V150.214z M70.194,149.18c-0.758-0.016-1.619,0.118-1.619,0.86c0,0.458,0.3,0.664,0.647,0.664
			c0.505,0,0.829-0.316,0.939-0.641c0.023-0.07,0.032-0.149,0.032-0.221V149.18z"/>
		<path fill="#FFFFFF" d="M72.793,146.394v0.915h0.995v0.529h-0.995v2.06c0,0.474,0.134,0.742,0.521,0.742
			c0.189,0,0.299-0.016,0.402-0.046l0.032,0.528c-0.135,0.047-0.348,0.095-0.616,0.095c-0.324,0-0.584-0.11-0.75-0.292
			c-0.189-0.213-0.269-0.552-0.269-1.002v-2.084h-0.592v-0.529h0.592v-0.702L72.793,146.394z"/>
		<path fill="#FFFFFF" d="M74.902,146.606c-0.261,0-0.434-0.206-0.434-0.45c0-0.245,0.181-0.442,0.45-0.442
			c0.268,0,0.442,0.197,0.442,0.442c0,0.244-0.174,0.45-0.45,0.45H74.902z M74.571,151.129v-3.82h0.694v3.82H74.571z"/>
		<path fill="#FFFFFF" d="M76.419,148.343c0-0.402-0.008-0.718-0.031-1.034h0.616l0.039,0.624h0.016
			c0.189-0.354,0.632-0.71,1.263-0.71c0.529,0,1.35,0.315,1.35,1.626v2.281h-0.694v-2.202c0-0.615-0.229-1.137-0.884-1.137
			c-0.45,0-0.805,0.323-0.931,0.71c-0.032,0.087-0.047,0.213-0.047,0.323v2.305h-0.695V148.343z"/>
		<path fill="#FFFFFF" d="M84.071,150.568c0,0.885-0.182,1.414-0.545,1.753c-0.378,0.34-0.916,0.458-1.397,0.458
			c-0.458,0-0.963-0.11-1.271-0.316l0.173-0.536c0.252,0.166,0.647,0.307,1.121,0.307c0.711,0,1.231-0.372,1.231-1.341v-0.419
			h-0.016c-0.206,0.355-0.624,0.64-1.216,0.64c-0.947,0-1.626-0.806-1.626-1.87c0-1.296,0.845-2.022,1.729-2.022
			c0.663,0,1.018,0.339,1.192,0.655h0.016l0.023-0.568h0.616c-0.024,0.269-0.032,0.576-0.032,1.042V150.568z M83.375,148.809
			c0-0.11-0.007-0.214-0.039-0.309c-0.126-0.411-0.458-0.742-0.971-0.742c-0.663,0-1.137,0.561-1.137,1.454
			c0,0.741,0.387,1.373,1.129,1.373c0.434,0,0.82-0.268,0.963-0.718c0.039-0.11,0.054-0.244,0.054-0.372V148.809z"/>
		<path fill="#FFFFFF" d="M85.352,151.216c-0.269,0-0.458-0.213-0.458-0.497s0.197-0.497,0.474-0.497
			c0.276,0,0.465,0.205,0.465,0.497c0,0.284-0.189,0.497-0.474,0.497H85.352z"/>
		<path fill="#FFFFFF" d="M86.986,151.216c-0.268,0-0.458-0.213-0.458-0.497s0.198-0.497,0.474-0.497s0.466,0.205,0.466,0.497
			c0,0.284-0.189,0.497-0.474,0.497H86.986z"/>
		<path fill="#FFFFFF" d="M88.622,151.216c-0.268,0-0.458-0.213-0.458-0.497s0.197-0.497,0.474-0.497
			c0.277,0,0.466,0.205,0.466,0.497c0,0.284-0.189,0.497-0.474,0.497H88.622z"/>
		<path fill="#FFFFFF" d="M90.257,151.216c-0.269,0-0.458-0.213-0.458-0.497s0.197-0.497,0.474-0.497
			c0.276,0,0.465,0.205,0.465,0.497c0,0.284-0.189,0.497-0.474,0.497H90.257z"/>
	</g>
	<g display="inline">
		<path fill="#FFFFFF" d="M50.582,160.668l-3.663,1.871v-0.545l3.11-1.538v-0.016l-3.11-1.548v-0.545l3.663,1.88V160.668z"/>
	</g>
	<g display="inline">
		<path fill="#DBDBDB" d="M58.069,161.496c0,0.395,0.008,0.742,0.032,1.042h-0.616l-0.04-0.624H57.43
			c-0.174,0.307-0.584,0.71-1.263,0.71c-0.6,0-1.318-0.339-1.318-1.673v-2.235h0.695v2.108c0,0.726,0.228,1.223,0.853,1.223
			c0.465,0,0.79-0.324,0.916-0.639c0.04-0.096,0.063-0.221,0.063-0.356v-2.337h0.694V161.496z"/>
		<path fill="#DBDBDB" d="M59.224,159.965c0-0.489-0.008-0.884-0.031-1.248h0.623l0.04,0.656h0.016
			c0.277-0.474,0.734-0.742,1.35-0.742c0.932,0,1.626,0.781,1.626,1.941c0,1.374-0.845,2.053-1.736,2.053
			c-0.513,0-0.948-0.221-1.177-0.6h-0.015v2.076h-0.695V159.965z M59.919,160.983c0,0.096,0.008,0.198,0.031,0.284
			c0.118,0.482,0.545,0.814,1.034,0.814c0.734,0,1.16-0.601,1.16-1.477c0-0.765-0.395-1.421-1.128-1.421
			c-0.474,0-0.924,0.331-1.058,0.853c-0.016,0.094-0.039,0.198-0.039,0.284V160.983z"/>
		<path fill="#DBDBDB" d="M63.719,156.934h0.695v5.604h-0.695V156.934z"/>
		<path fill="#DBDBDB" d="M67.122,162.625c-1.026,0-1.832-0.757-1.832-1.965c0-1.278,0.845-2.028,1.894-2.028
			c1.098,0,1.839,0.797,1.839,1.957c0,1.421-0.987,2.037-1.895,2.037H67.122z M67.146,162.104c0.663,0,1.161-0.624,1.161-1.491
			c0-0.648-0.324-1.46-1.145-1.46c-0.813,0-1.168,0.757-1.168,1.483c0,0.837,0.474,1.468,1.144,1.468H67.146z"/>
		<path fill="#DBDBDB" d="M72.594,161.623c0,0.331,0.016,0.655,0.056,0.916h-0.625l-0.063-0.482h-0.024
			c-0.205,0.3-0.623,0.568-1.168,0.568c-0.773,0-1.168-0.544-1.168-1.097c0-0.924,0.821-1.429,2.297-1.421v-0.08
			c0-0.315-0.087-0.892-0.868-0.883c-0.363,0-0.734,0.102-1.003,0.284l-0.157-0.466c0.315-0.197,0.781-0.331,1.263-0.331
			c1.177,0,1.46,0.797,1.46,1.563V161.623z M71.916,160.588c-0.758-0.016-1.618,0.119-1.618,0.861c0,0.458,0.3,0.663,0.647,0.663
			c0.505,0,0.829-0.315,0.939-0.639c0.024-0.071,0.032-0.15,0.032-0.222V160.588z"/>
		<path fill="#DBDBDB" d="M77.01,156.934v4.618c0,0.339,0.008,0.726,0.031,0.987h-0.624l-0.032-0.664h-0.015
			c-0.214,0.427-0.671,0.75-1.295,0.75c-0.923,0-1.642-0.781-1.642-1.941c-0.007-1.28,0.79-2.053,1.713-2.053
			c0.592,0,0.987,0.276,1.153,0.576h0.016v-2.273H77.01z M76.315,160.273c0-0.095-0.008-0.206-0.031-0.3
			c-0.103-0.434-0.482-0.797-1.003-0.797c-0.718,0-1.145,0.632-1.145,1.468c0,0.781,0.387,1.421,1.129,1.421
			c0.465,0,0.892-0.315,1.019-0.829c0.023-0.096,0.031-0.19,0.031-0.3V160.273z"/>
		<path fill="#DBDBDB" d="M78.496,158.016c-0.26,0-0.434-0.205-0.434-0.45s0.182-0.443,0.45-0.443c0.269,0,0.442,0.198,0.442,0.443
			s-0.174,0.45-0.45,0.45H78.496z M78.165,162.539v-3.821h0.694v3.821H78.165z"/>
		<path fill="#DBDBDB" d="M80.013,159.752c0-0.403-0.008-0.718-0.031-1.035h0.615l0.039,0.624h0.016
			c0.189-0.354,0.632-0.71,1.264-0.71c0.528,0,1.35,0.315,1.35,1.625v2.282H82.57v-2.202c0-0.616-0.229-1.137-0.884-1.137
			c-0.45,0-0.805,0.323-0.932,0.71c-0.031,0.087-0.047,0.213-0.047,0.324v2.305h-0.695V159.752z"/>
		<path fill="#DBDBDB" d="M87.664,161.979c0,0.884-0.181,1.412-0.544,1.751c-0.379,0.339-0.916,0.459-1.397,0.459
			c-0.458,0-0.963-0.11-1.271-0.316l0.174-0.538c0.252,0.166,0.647,0.309,1.121,0.309c0.71,0,1.232-0.371,1.232-1.342v-0.419h-0.016
			c-0.206,0.355-0.624,0.64-1.216,0.64c-0.947,0-1.626-0.806-1.626-1.871c0-1.294,0.845-2.021,1.729-2.021
			c0.663,0,1.019,0.339,1.191,0.654h0.016l0.023-0.568h0.616c-0.023,0.27-0.032,0.577-0.032,1.042V161.979z M86.97,160.218
			c0-0.11-0.008-0.213-0.039-0.308c-0.126-0.41-0.458-0.742-0.972-0.742c-0.663,0-1.136,0.56-1.136,1.453
			c0,0.741,0.387,1.373,1.129,1.373c0.434,0,0.821-0.268,0.963-0.718c0.039-0.11,0.055-0.245,0.055-0.371V160.218z"/>
		<path fill="#DBDBDB" d="M91.322,157.803v0.915h0.995v0.529h-0.995v2.06c0,0.474,0.134,0.742,0.521,0.742
			c0.189,0,0.299-0.015,0.402-0.047l0.032,0.529c-0.135,0.047-0.348,0.094-0.616,0.094c-0.323,0-0.584-0.11-0.75-0.292
			c-0.189-0.213-0.269-0.552-0.269-1.002v-2.084h-0.592v-0.529h0.592v-0.702L91.322,157.803z"/>
		<path fill="#DBDBDB" d="M94.608,162.625c-1.026,0-1.831-0.757-1.831-1.965c0-1.278,0.844-2.028,1.895-2.028
			c1.097,0,1.839,0.797,1.839,1.957c0,1.421-0.986,2.037-1.895,2.037H94.608z M94.632,162.104c0.663,0,1.16-0.624,1.16-1.491
			c0-0.648-0.324-1.46-1.144-1.46c-0.814,0-1.169,0.757-1.169,1.483c0,0.837,0.474,1.468,1.145,1.468H94.632z"/>
		<path fill="#DBDBDB" d="M99.071,159.91c0-0.45-0.008-0.837-0.031-1.192h0.608l0.031,0.75h0.024c0.173-0.513,0.6-0.836,1.065-0.836
			c0.071,0,0.126,0.008,0.189,0.024v0.646c-0.079-0.008-0.15-0.016-0.245-0.016c-0.49,0-0.837,0.372-0.932,0.885
			c-0.015,0.102-0.023,0.213-0.023,0.331v2.037h-0.695L99.071,159.91z"/>
		<path fill="#DBDBDB" d="M101.993,160.746c0.016,0.94,0.608,1.327,1.302,1.327c0.497,0,0.806-0.087,1.058-0.19l0.126,0.49
			c-0.244,0.11-0.671,0.244-1.279,0.244c-1.168,0-1.878-0.781-1.878-1.926c0-1.16,0.687-2.068,1.8-2.068
			c1.247,0,1.57,1.098,1.57,1.8c0,0.143-0.008,0.253-0.023,0.331L101.993,160.746z M104.022,160.249
			c0.007-0.434-0.182-1.129-0.955-1.129c-0.711,0-1.011,0.648-1.066,1.129H104.022z"/>
		<path fill="#DBDBDB" d="M105.556,159.965c0-0.489-0.008-0.884-0.031-1.248h0.623l0.04,0.656h0.016
			c0.277-0.474,0.734-0.742,1.351-0.742c0.931,0,1.626,0.781,1.626,1.941c0,1.374-0.845,2.053-1.737,2.053
			c-0.513,0-0.947-0.221-1.176-0.6h-0.016v2.076h-0.695V159.965z M106.25,160.983c0,0.096,0.007,0.198,0.032,0.284
			c0.118,0.482,0.545,0.814,1.034,0.814c0.734,0,1.161-0.601,1.161-1.477c0-0.765-0.395-1.421-1.129-1.421
			c-0.474,0-0.923,0.331-1.058,0.853c-0.016,0.094-0.039,0.198-0.039,0.284V160.983z"/>
		<path fill="#DBDBDB" d="M111.613,162.625c-1.026,0-1.832-0.757-1.832-1.965c0-1.278,0.845-2.028,1.895-2.028
			c1.098,0,1.839,0.797,1.839,1.957c0,1.421-0.987,2.037-1.895,2.037H111.613z M111.636,162.104c0.664,0,1.161-0.624,1.161-1.491
			c0-0.648-0.324-1.46-1.145-1.46c-0.813,0-1.169,0.757-1.169,1.483c0,0.837,0.474,1.468,1.145,1.468H111.636z"/>
		<path fill="#DBDBDB" d="M114.299,161.836c0.213,0.126,0.577,0.268,0.924,0.268c0.497,0,0.733-0.244,0.733-0.568
			c0-0.332-0.197-0.514-0.703-0.702c-0.694-0.253-1.018-0.624-1.018-1.082c0-0.616,0.505-1.121,1.318-1.121
			c0.387,0,0.726,0.102,0.932,0.237l-0.166,0.497c-0.15-0.087-0.426-0.221-0.781-0.221c-0.411,0-0.631,0.237-0.631,0.521
			c0,0.323,0.221,0.465,0.718,0.655c0.655,0.245,1.002,0.577,1.002,1.153c0,0.678-0.529,1.152-1.421,1.152
			c-0.418,0-0.805-0.11-1.073-0.268L114.299,161.836z"/>
		<path fill="#DBDBDB" d="M117.854,158.016c-0.261,0-0.435-0.205-0.435-0.45s0.182-0.443,0.45-0.443
			c0.269,0,0.442,0.198,0.442,0.443s-0.173,0.45-0.45,0.45H117.854z M117.521,162.539v-3.821h0.695v3.821H117.521z"/>
		<path fill="#DBDBDB" d="M120.207,157.803v0.915h0.995v0.529h-0.995v2.06c0,0.474,0.134,0.742,0.521,0.742
			c0.189,0,0.3-0.015,0.403-0.047l0.032,0.529c-0.134,0.047-0.348,0.094-0.616,0.094c-0.324,0-0.584-0.11-0.75-0.292
			c-0.189-0.213-0.269-0.552-0.269-1.002v-2.084h-0.592v-0.529h0.592v-0.702L120.207,157.803z"/>
		<path fill="#DBDBDB" d="M123.492,162.625c-1.026,0-1.832-0.757-1.832-1.965c0-1.278,0.845-2.028,1.895-2.028
			c1.098,0,1.839,0.797,1.839,1.957c0,1.421-0.986,2.037-1.895,2.037H123.492z M123.515,162.104c0.664,0,1.161-0.624,1.161-1.491
			c0-0.648-0.324-1.46-1.145-1.46c-0.813,0-1.168,0.757-1.168,1.483c0,0.837,0.474,1.468,1.145,1.468H123.515z"/>
		<path fill="#DBDBDB" d="M126.281,159.91c0-0.45-0.008-0.837-0.032-1.192h0.608l0.031,0.75h0.024
			c0.174-0.513,0.6-0.836,1.066-0.836c0.071,0,0.126,0.008,0.189,0.024v0.646c-0.08-0.008-0.15-0.016-0.245-0.016
			c-0.489,0-0.836,0.372-0.932,0.885c-0.016,0.102-0.023,0.213-0.023,0.331v2.037h-0.694L126.281,159.91z"/>
		<path fill="#DBDBDB" d="M129.297,158.717l0.829,2.258c0.095,0.253,0.189,0.553,0.252,0.781h0.016
			c0.071-0.228,0.15-0.52,0.245-0.796l0.758-2.243h0.734l-1.042,2.724c-0.498,1.311-0.837,1.981-1.311,2.399
			c-0.347,0.293-0.679,0.411-0.853,0.443l-0.174-0.583c0.174-0.048,0.403-0.159,0.608-0.339c0.189-0.151,0.418-0.42,0.584-0.774
			c0.031-0.071,0.055-0.119,0.055-0.166c0-0.041-0.016-0.096-0.055-0.174l-1.405-3.529H129.297z"/>
		<path fill="#DBDBDB" d="M132.67,162.625c-0.268,0-0.458-0.213-0.458-0.497s0.197-0.497,0.474-0.497
			c0.277,0,0.466,0.205,0.466,0.497c0,0.284-0.189,0.497-0.473,0.497H132.67z"/>
		<path fill="#DBDBDB" d="M134.305,162.625c-0.269,0-0.458-0.213-0.458-0.497s0.197-0.497,0.474-0.497s0.466,0.205,0.466,0.497
			c0,0.284-0.189,0.497-0.474,0.497H134.305z"/>
		<path fill="#DBDBDB" d="M135.939,162.625c-0.268,0-0.458-0.213-0.458-0.497s0.198-0.497,0.474-0.497s0.466,0.205,0.466,0.497
			c0,0.284-0.189,0.497-0.474,0.497H135.939z"/>
	</g>
</g>
<g id="collaboration" display="none">
	<path display="inline" fill="#FAFAFA" stroke="#78909C" stroke-width="2" stroke-miterlimit="10" d="M424.735,230.203
		c0,1.783-1.653,3.227-3.691,3.227H271.937c-2.037,0-3.69-1.443-3.69-3.227V83.029c0-1.783,1.653-3.228,3.69-3.228h149.107
		c2.038,0,3.691,1.445,3.691,3.228V230.203z"/>
	<circle display="inline" fill="#FF8A80" stroke="#FF8A80" stroke-miterlimit="10" cx="278.089" cy="90.629" r="2.953"/>
	<circle display="inline" fill="#FDD835" stroke="#FDD835" stroke-miterlimit="10" cx="288.855" cy="90.629" r="2.953"/>
	
		<circle display="inline" fill="#78909C" stroke="#78909C" stroke-width="0.5" stroke-miterlimit="10" cx="299.614" cy="90.629" r="2.953"/>
	
		<line display="inline" fill="#FAFAFA" stroke="#78909C" stroke-width="2" stroke-miterlimit="10" x1="268.246" y1="101.21" x2="424.735" y2="101.21"/>
	
		<circle display="inline" fill="#1DE9B6" stroke="#1DE9B6" stroke-width="2" stroke-miterlimit="10" cx="424.735" cy="230.203" r="22.057"/>
	<path display="inline" fill="#FAFAFA" stroke="#78909C" stroke-width="2" stroke-miterlimit="10" d="M168.903,264.299
		c0,2.209-1.79,4-4,4H60.237c-2.209,0-4-1.791-4-4v-62.186c0-2.209,1.791-4,4-4h104.666c2.21,0,4,1.791,4,4V264.299z"/>
	<path display="inline" fill="#FAFAFA" stroke="#78909C" stroke-width="2" stroke-miterlimit="10" d="M168.903,275.211
		c0-0.504-1.79-0.912-4-0.912H60.237c-2.209,0-4,0.408-4,0.912l-4,12.18c0,0.504,1.791,0.912,4,0.912h112.666
		c2.21,0,4-0.408,4-0.912L168.903,275.211z"/>
	
		<rect x="56.237" y="205.934" display="inline" fill="#78909C" stroke="#78909C" stroke-width="2" stroke-miterlimit="10" width="112.666" height="53.703"/>
	
		<circle display="inline" fill="#FAFAFA" stroke="#78909C" stroke-width="2" stroke-miterlimit="10" cx="111.539" cy="256.537" r="24.353"/>
	<path display="inline" fill="#FAFAFA" stroke="#78909C" stroke-width="2" stroke-miterlimit="10" d="M75.84,302.105
		c8.053-12.863,21.051-21.217,35.715-21.217c14.78,0,27.868,8.486,35.906,21.525"/>
	
		<line display="inline" fill="none" stroke="#BBBBBB" stroke-width="2" stroke-miterlimit="10" x1="65.796" y1="215.625" x2="89.134" y2="215.625"/>
	
		<line display="inline" fill="none" stroke="#D6D6D6" stroke-width="2" stroke-miterlimit="10" x1="65.796" y1="225.631" x2="104.384" y2="225.631"/>
	
		<line display="inline" fill="#02A8F3" stroke="#64FFDA" stroke-width="2" stroke-miterlimit="10" x1="65.796" y1="235.637" x2="89.134" y2="235.637"/>
	<circle display="inline" fill="#78909C" cx="161.884" cy="255.678" r="1.25"/>
	<circle display="inline" fill="#78909C" cx="158.134" cy="255.678" r="1.25"/>
	<path display="inline" fill="#FAFAFA" stroke="#78909C" stroke-width="2" stroke-miterlimit="10" d="M168.903,103.47
		c0,2.209-1.79,4-4,4H60.237c-2.209,0-4-1.791-4-4V41.284c0-2.209,1.791-4,4-4h104.666c2.21,0,4,1.791,4,4V103.47z"/>
	<path display="inline" fill="#FAFAFA" stroke="#78909C" stroke-width="2" stroke-miterlimit="10" d="M168.903,114.382
		c0-0.504-1.79-0.912-4-0.912H60.237c-2.209,0-4,0.408-4,0.912l-4,12.18c0,0.504,1.791,0.912,4,0.912h112.666
		c2.21,0,4-0.408,4-0.912L168.903,114.382z"/>
	
		<rect x="56.237" y="45.104" display="inline" fill="#78909C" stroke="#78909C" stroke-width="2" stroke-miterlimit="10" width="112.666" height="53.703"/>
	
		<circle display="inline" fill="#FAFAFA" stroke="#78909C" stroke-width="2" stroke-miterlimit="10" cx="111.539" cy="95.708" r="24.353"/>
	<path display="inline" fill="#FAFAFA" stroke="#78909C" stroke-width="2" stroke-miterlimit="10" d="M75.84,141.277
		c8.053-12.864,21.051-21.217,35.715-21.217c14.78,0,27.868,8.486,35.906,21.524"/>
	
		<line display="inline" fill="none" stroke="#BBBBBB" stroke-width="2" stroke-miterlimit="10" x1="65.796" y1="54.796" x2="93.321" y2="54.796"/>
	
		<line display="inline" fill="none" stroke="#FF8A80" stroke-width="2" stroke-miterlimit="10" x1="65.796" y1="64.802" x2="104.384" y2="64.802"/>
	
		<line display="inline" fill="#02A8F3" stroke="#64FFDA" stroke-width="2" stroke-miterlimit="10" x1="65.796" y1="74.808" x2="89.134" y2="74.808"/>
	<circle display="inline" fill="#FF8A80" cx="161.884" cy="102.85" r="1.25"/>
	<circle display="inline" fill="#78909C" cx="158.134" cy="102.85" r="1.25"/>
	<circle display="inline" fill="#FF8A80" cx="161.884" cy="263.445" r="1.25"/>
	<circle display="inline" fill="#78909C" cx="158.134" cy="263.445" r="1.25"/>
	<path display="inline" fill="#FAFAFA" stroke="#78909C" stroke-width="2" stroke-miterlimit="10" d="M618.37,204.875
		c0,2.209-1.789,4-4,4H509.704c-2.209,0-4-1.791-4-4v-62.186c0-2.209,1.791-4,4-4H614.37c2.211,0,4,1.791,4,4V204.875z"/>
	<path display="inline" fill="#FAFAFA" stroke="#78909C" stroke-width="2" stroke-miterlimit="10" d="M618.37,215.787
		c0-0.504-1.789-0.912-4-0.912H509.704c-2.209,0-4,0.408-4,0.912l-4,12.18c0,0.504,1.791,0.912,4,0.912H618.37
		c2.211,0,4-0.408,4-0.912L618.37,215.787z"/>
	
		<rect x="505.704" y="146.51" display="inline" fill="#78909C" stroke="#78909C" stroke-width="2" stroke-miterlimit="10" width="112.666" height="53.703"/>
	
		<circle display="inline" fill="#FAFAFA" stroke="#78909C" stroke-width="2" stroke-miterlimit="10" cx="561.007" cy="197.113" r="24.354"/>
	<path display="inline" fill="#FAFAFA" stroke="#78909C" stroke-width="2" stroke-miterlimit="10" d="M525.308,242.684
		c8.053-12.865,21.051-21.217,35.716-21.217c14.78,0,27.868,8.486,35.906,21.523"/>
	
		<line display="inline" fill="none" stroke="#BBBBBB" stroke-width="2" stroke-miterlimit="10" x1="515.265" y1="156.201" x2="538.602" y2="156.201"/>
	
		<line display="inline" fill="none" stroke="#82B1FF" stroke-width="2" stroke-miterlimit="10" x1="515.265" y1="166.207" x2="553.852" y2="166.207"/>
	
		<line display="inline" fill="#02A8F3" stroke="#64FFDA" stroke-width="2" stroke-miterlimit="10" x1="515.265" y1="176.213" x2="523.425" y2="176.213"/>
	<circle display="inline" fill="#FF8A80" cx="611.352" cy="204.256" r="1.25"/>
	<circle display="inline" fill="#78909C" cx="607.602" cy="204.256" r="1.25"/>
	
		<line display="inline" fill="none" stroke="#78909C" stroke-width="2" stroke-miterlimit="10" x1="58.489" y1="280.889" x2="62.071" y2="280.889"/>
	
		<line display="inline" fill="none" stroke="#78909C" stroke-width="2" stroke-miterlimit="10" x1="64.989" y1="280.889" x2="68.571" y2="280.889"/>
	<polyline display="inline" fill="none" stroke="#FCFCFC" stroke-width="4" stroke-miterlimit="10" points="412.96,230.342 
		419.849,237.23 433.905,223.176 	"/>
	
		<polyline display="inline" fill="none" stroke="#FF8A80" stroke-width="2" stroke-linecap="round" stroke-miterlimit="10" stroke-dasharray="1,5" points="
		189.738,87.677 226.238,87.677 226.238,248.113 189.738,248.113 	"/>
	
		<line display="inline" fill="none" stroke="#FF8A80" stroke-width="2" stroke-linecap="round" stroke-miterlimit="10" stroke-dasharray="1,5" x1="263.405" y1="179.113" x2="231.738" y2="179.113"/>
	
		<line display="inline" fill="none" stroke="#FF8A80" stroke-width="2" stroke-linecap="round" stroke-miterlimit="10" stroke-dasharray="1,5" x1="501.704" y1="179.113" x2="427.905" y2="179.113"/>
	
		<circle display="inline" fill="#1DE9B6" stroke="#78909C" stroke-width="2" stroke-miterlimit="10" cx="294.009" cy="157.989" r="4.781"/>
	
		<circle display="inline" fill="#1DE9B6" stroke="#78909C" stroke-width="2" stroke-miterlimit="10" cx="330.165" cy="157.989" r="4.781"/>
	
		<circle display="inline" fill="#7C4DFF" stroke="#78909C" stroke-width="2" stroke-miterlimit="10" cx="349.214" cy="175.136" r="4.781"/>
	
		<circle display="inline" fill="#FAFAFA" stroke="#78909C" stroke-width="2" stroke-miterlimit="10" cx="366.321" cy="192.908" r="4.781"/>
	
		<line display="inline" fill="#FAFAFA" stroke="#78909C" stroke-width="2" stroke-miterlimit="10" x1="298.789" y1="157.988" x2="325.638" y2="157.989"/>
	
		<circle display="inline" fill="#1DE9B6" stroke="#78909C" stroke-width="2" stroke-miterlimit="10" cx="367.165" cy="157.989" r="4.781"/>
	
		<line display="inline" fill="#FAFAFA" stroke="#78909C" stroke-width="2" stroke-miterlimit="10" x1="335.79" y1="157.988" x2="362.638" y2="157.989"/>
	
		<circle display="inline" fill="#1DE9B6" stroke="#78909C" stroke-width="2" stroke-miterlimit="10" cx="404.499" cy="157.989" r="4.781"/>
	
		<line display="inline" fill="#FAFAFA" stroke="#78909C" stroke-width="2" stroke-miterlimit="10" x1="372.124" y1="157.988" x2="398.972" y2="157.989"/>
	<path display="inline" fill="#FAFAFA" stroke="#78909C" stroke-width="2" stroke-miterlimit="10" d="M302.976,157.988
		c0,0,4.787,5.458,4.845,10.638c0.062,5.427,3.266,6.387,6.061,6.497c1.22,0.048,28.922-0.065,29.69-0.04"/>
	<path display="inline" fill="#FAFAFA" stroke="#78909C" stroke-width="2" stroke-miterlimit="10" d="M395.611,157.988
		c0,0-4.787,5.458-4.845,10.638c-0.062,5.427-3.266,6.387-6.061,6.497c-1.22,0.048-28.922-0.065-29.69-0.04"/>
	<path display="inline" fill="#FAFAFA" stroke="#78909C" stroke-width="2" stroke-miterlimit="10" d="M321.226,175.761
		c0,0,4.787,5.459,4.845,10.639c0.062,5.426,3.266,6.387,6.061,6.496c1.22,0.049,28.922-0.064,29.69-0.039"/>
	<g display="inline">
		<path fill="#78909C" d="M335.677,137.794c0,1.757-0.36,2.808-1.082,3.482c-0.753,0.674-1.819,0.91-2.776,0.91
			c-0.909,0-1.913-0.22-2.525-0.627l0.345-1.066c0.502,0.329,1.287,0.612,2.228,0.612c1.412,0,2.447-0.737,2.447-2.667v-0.831
			h-0.031c-0.408,0.706-1.239,1.271-2.416,1.271c-1.882,0-3.231-1.6-3.231-3.718c0-2.572,1.679-4.016,3.436-4.016
			c1.318,0,2.023,0.675,2.369,1.302h0.031l0.047-1.129h1.224c-0.048,0.533-0.063,1.145-0.063,2.07V137.794z M334.297,134.296
			c0-0.219-0.016-0.423-0.078-0.612c-0.251-0.815-0.91-1.474-1.93-1.474c-1.317,0-2.259,1.114-2.259,2.886
			c0,1.474,0.769,2.729,2.243,2.729c0.862,0,1.632-0.533,1.913-1.427c0.079-0.22,0.11-0.486,0.11-0.737V134.296z"/>
		<path fill="#78909C" d="M338.606,129.92c-0.518,0-0.862-0.408-0.862-0.894s0.36-0.878,0.894-0.878s0.879,0.392,0.879,0.878
			s-0.346,0.894-0.895,0.894H338.606z M337.948,138.908v-7.592h1.38v7.592H337.948z"/>
		<path fill="#78909C" d="M343.279,129.497v1.82h1.977v1.051h-1.977v4.094c0,0.941,0.267,1.475,1.035,1.475
			c0.377,0,0.597-0.031,0.8-0.094l0.063,1.051c-0.267,0.094-0.69,0.188-1.224,0.188c-0.644,0-1.161-0.219-1.49-0.58
			c-0.377-0.424-0.533-1.098-0.533-1.992v-4.141h-1.177v-1.051h1.177v-1.396L343.279,129.497z"/>
		<path fill="#78909C" d="M346.808,127.771h1.38v4.737h0.031c0.22-0.392,0.564-0.753,0.988-0.973
			c0.408-0.251,0.895-0.392,1.412-0.392c1.02,0,2.65,0.627,2.65,3.247v4.518h-1.38v-4.361c0-1.239-0.455-2.259-1.757-2.259
			c-0.895,0-1.585,0.627-1.852,1.38c-0.078,0.188-0.094,0.392-0.094,0.659v4.58h-1.38V127.771z"/>
		<path fill="#78909C" d="M361.862,136.838c0,0.784,0.016,1.474,0.063,2.07h-1.224l-0.078-1.239h-0.031
			c-0.346,0.612-1.161,1.412-2.51,1.412c-1.192,0-2.62-0.674-2.62-3.325v-4.439h1.381v4.188c0,1.443,0.455,2.431,1.694,2.431
			c0.925,0,1.568-0.643,1.819-1.271c0.078-0.188,0.125-0.439,0.125-0.706v-4.643h1.381V136.838z"/>
		<path fill="#78909C" d="M364.149,127.771h1.38v4.753h0.031c0.486-0.847,1.365-1.38,2.589-1.38c1.882,0,3.199,1.569,3.199,3.859
			c0,2.729-1.726,4.078-3.419,4.078c-1.099,0-1.961-0.423-2.542-1.427h-0.031l-0.078,1.255h-1.192
			c0.048-0.518,0.063-1.286,0.063-1.961V127.771z M365.529,135.865c0,0.172,0.016,0.345,0.047,0.502
			c0.267,0.957,1.083,1.616,2.071,1.616c1.458,0,2.306-1.177,2.306-2.918c0-1.537-0.784-2.839-2.259-2.839
			c-0.941,0-1.82,0.659-2.087,1.694c-0.047,0.173-0.078,0.361-0.078,0.581V135.865z"/>
	</g>
</g>
<g id="rules" display="none">
	
		<circle display="inline" fill="#1DE9B6" stroke="#1DE9B6" stroke-width="2" stroke-miterlimit="10" cx="472.839" cy="189.753" r="30.687"/>
	<path display="inline" fill="#64FFDA" stroke="#64FFDA" stroke-width="2" stroke-miterlimit="10" d="M472.841,159.067
		c16.946,0,30.685,13.738,30.685,30.686s-13.738,30.688-30.685,30.688V159.067z"/>
	
		<circle display="inline" fill="none" stroke="#FCFCFC" stroke-width="4" stroke-miterlimit="10" cx="464.248" cy="189.821" r="6.605"/>
	
		<line display="inline" fill="none" stroke="#FCFCFC" stroke-width="4" stroke-miterlimit="10" x1="471.834" y1="189.821" x2="490.813" y2="189.821"/>
	
		<line display="inline" fill="none" stroke="#FCFCFC" stroke-width="5" stroke-miterlimit="10" x1="485.803" y1="189.03" x2="485.803" y2="183.94"/>
	
		<path display="inline" fill-rule="evenodd" clip-rule="evenodd" fill="#02A8F3" stroke="#02A8F3" stroke-width="2" stroke-miterlimit="10" d="
		M298.514,204.864c0-1.602,0-3.203,0-4.803c0.119-0.273,0.289-0.537,0.35-0.822c1.324-6.105,5.061-10.557,11.227-13.078
		c1.918-0.785,2.908-1.563,2.709-3.531c-0.086-0.824,0.213-1.703,0.445-2.533c2.637-9.367,11.633-14.922,22.152-13.701
		c0.973,0.113,1.773,0.279,2.65-0.645c5.582-5.893,12.652-8.203,21.098-7.088c11.117,1.467,19.916,11.861,18.674,22.043
		c-0.066,0.543,0.412,1.293,0.885,1.715c1.865,1.666,3.98,3.113,5.723,4.875c2.83,2.861,3.936,6.494,4.811,10.178
		c0,1.602,0,3.203,0,4.805c-0.113,0.34-0.266,0.676-0.336,1.025c-2.133,10.475-11.188,17.4-22.781,17.402
		c-15.904,0.004-31.807,0.023-47.711-0.008c-5.869-0.014-10.789-2.064-14.801-6.006
		C300.766,211.897,299.432,208.479,298.514,204.864z"/>
	
		<path display="inline" fill-rule="evenodd" clip-rule="evenodd" fill="#40C4FF" stroke="#40C4FF" stroke-width="2" stroke-miterlimit="10" d="
		M341.875,162.237c4.816-3.264,10.494-4.432,16.988-3.574c11.117,1.467,19.916,11.861,18.674,22.043
		c-0.066,0.543,0.412,1.293,0.885,1.715c1.865,1.666,3.98,3.113,5.723,4.875c2.83,2.861,3.936,6.494,4.811,10.178
		c0,1.602,0,3.203,0,4.805c-0.113,0.34-0.266,0.676-0.336,1.025c-2.133,10.475-11.188,17.4-22.781,17.402
		c-10.863,0.002-17.113,0.012-23.963,0.008V162.237z"/>
	<path display="inline" fill="#FAFAFA" stroke="#78909C" stroke-width="2" stroke-miterlimit="10" d="M248.211,200.999h-91.869
		H87.221c-2.498,0-4.524-2.027-4.524-4.525V61.466c0-2.498,2.026-4.522,4.524-4.522h162.71c2.5,0,4.524,2.024,4.524,4.522v133.453
		c0,0,0.056,2.131-1.874,3.922C250.281,200.974,248.211,200.999,248.211,200.999z"/>
	
		<line display="inline" fill="#FAFAFA" stroke="#78909C" stroke-width="2" stroke-miterlimit="10" x1="82.696" y1="88.255" x2="254.78" y2="88.255"/>
	<circle display="inline" fill="#FF8A80" stroke="#FF8A80" stroke-miterlimit="10" cx="97.77" cy="71.737" r="4.603"/>
	<circle display="inline" fill="#FDD835" stroke="#FDD835" stroke-miterlimit="10" cx="115.764" cy="71.737" r="4.603"/>
	
		<circle display="inline" fill="#78909C" stroke="#78909C" stroke-width="0.5" stroke-miterlimit="10" cx="133.769" cy="71.737" r="4.603"/>
	<g display="inline">
		<path fill="#78909C" d="M95.085,131.318h1.227v4.209h0.028c0.195-0.35,0.501-0.669,0.877-0.864
			c0.363-0.224,0.795-0.349,1.255-0.349c0.905,0,2.355,0.558,2.355,2.886v4.013h-1.227v-3.873c0-1.102-0.404-2.008-1.561-2.008
			c-0.794,0-1.407,0.558-1.645,1.227c-0.07,0.167-0.083,0.349-0.083,0.585v4.069h-1.227V131.318z"/>
		<path fill="#78909C" d="M104.246,132.851v1.618h1.756v0.934h-1.756v3.637c0,0.837,0.236,1.311,0.92,1.311
			c0.333,0,0.529-0.028,0.711-0.084l0.055,0.935c-0.237,0.083-0.613,0.167-1.087,0.167c-0.571,0-1.031-0.196-1.324-0.516
			c-0.334-0.377-0.474-0.976-0.474-1.771v-3.679h-1.045v-0.934h1.045v-1.241L104.246,132.851z"/>
		<path fill="#78909C" d="M108.861,132.851v1.618h1.756v0.934h-1.756v3.637c0,0.837,0.237,1.311,0.919,1.311
			c0.334,0,0.529-0.028,0.71-0.084l0.056,0.935c-0.237,0.083-0.613,0.167-1.087,0.167c-0.571,0-1.032-0.196-1.324-0.516
			c-0.334-0.377-0.474-0.976-0.474-1.771v-3.679h-1.045v-0.934h1.045v-1.241L108.861,132.851z"/>
		<path fill="#78909C" d="M111.999,136.67c0-0.864-0.014-1.561-0.056-2.201h1.101l0.07,1.156h0.028
			c0.488-0.837,1.296-1.311,2.383-1.311c1.645,0,2.871,1.38,2.871,3.429c0,2.425-1.491,3.624-3.065,3.624
			c-0.906,0-1.673-0.391-2.077-1.06h-0.028v3.666h-1.227V136.67z M113.226,138.468c0,0.167,0.014,0.349,0.055,0.502
			c0.209,0.851,0.962,1.436,1.826,1.436c1.296,0,2.049-1.06,2.049-2.606c0-1.352-0.697-2.509-1.993-2.509
			c-0.836,0-1.631,0.586-1.868,1.506c-0.028,0.167-0.069,0.348-0.069,0.502V138.468z"/>
		<path fill="#78909C" d="M120.449,141.367c-0.474,0-0.809-0.376-0.809-0.864c0-0.516,0.349-0.878,0.823-0.878
			c0.502,0,0.822,0.362,0.822,0.878c0,0.488-0.32,0.864-0.822,0.864H120.449z M120.463,136.447c-0.474,0-0.808-0.377-0.808-0.864
			c0-0.516,0.348-0.878,0.822-0.878c0.502,0,0.822,0.362,0.822,0.878c0,0.487-0.32,0.864-0.822,0.864H120.463z"/>
		<path fill="#78909C" d="M121.788,141.771l3.875-10.104h0.962l-3.903,10.104H121.788z"/>
		<path fill="#78909C" d="M126.57,141.771l3.875-10.104h0.962l-3.903,10.104H126.57z"/>
		<path fill="#78909C" d="M132.873,134.469l0.906,3.414c0.181,0.752,0.362,1.463,0.488,2.159h0.042
			c0.153-0.682,0.376-1.407,0.599-2.146l1.101-3.428h1.032l1.045,3.372c0.25,0.794,0.446,1.52,0.599,2.201h0.042
			c0.111-0.682,0.292-1.394,0.516-2.188l0.962-3.386h1.212l-2.174,6.744h-1.115l-1.032-3.219c-0.236-0.767-0.432-1.436-0.599-2.23
			h-0.028c-0.167,0.809-0.376,1.521-0.613,2.243l-1.087,3.206h-1.115l-2.035-6.744H132.873z"/>
		<path fill="#78909C" d="M143.136,134.469l0.905,3.414c0.182,0.752,0.363,1.463,0.488,2.159h0.042
			c0.153-0.682,0.376-1.407,0.599-2.146l1.101-3.428h1.031l1.045,3.372c0.25,0.794,0.446,1.52,0.599,2.201h0.042
			c0.111-0.682,0.292-1.394,0.516-2.188l0.961-3.386h1.212l-2.174,6.744h-1.115l-1.031-3.219c-0.237-0.767-0.432-1.436-0.599-2.23
			h-0.028c-0.167,0.809-0.376,1.521-0.613,2.243l-1.087,3.206h-1.115l-2.035-6.744H143.136z"/>
		<path fill="#78909C" d="M153.398,134.469l0.906,3.414c0.181,0.752,0.362,1.463,0.488,2.159h0.042
			c0.153-0.682,0.376-1.407,0.599-2.146l1.101-3.428h1.031l1.045,3.372c0.25,0.794,0.446,1.52,0.599,2.201h0.042
			c0.112-0.682,0.292-1.394,0.516-2.188l0.961-3.386h1.213l-2.174,6.744h-1.115l-1.032-3.219c-0.237-0.767-0.432-1.436-0.599-2.23
			h-0.028c-0.167,0.809-0.375,1.521-0.613,2.243l-1.087,3.206h-1.115l-2.035-6.744H153.398z"/>
		<path fill="#78909C" d="M163.145,141.367c-0.474,0-0.808-0.376-0.808-0.879c0-0.501,0.348-0.877,0.836-0.877
			c0.487,0,0.822,0.361,0.822,0.877c0,0.503-0.334,0.879-0.836,0.879H163.145z"/>
		<path fill="#78909C" d="M171.341,131.318v8.153c0,0.6,0.014,1.281,0.055,1.741h-1.1l-0.056-1.171h-0.027
			c-0.377,0.753-1.185,1.325-2.287,1.325c-1.63,0-2.898-1.38-2.898-3.429c-0.014-2.259,1.394-3.624,3.024-3.624
			c1.046,0,1.743,0.489,2.036,1.018h0.027v-4.014H171.341z M170.115,137.213c0-0.166-0.014-0.362-0.056-0.528
			c-0.181-0.767-0.85-1.408-1.77-1.408c-1.268,0-2.021,1.115-2.021,2.592c0,1.38,0.683,2.509,1.993,2.509
			c0.822,0,1.575-0.557,1.798-1.462c0.042-0.168,0.056-0.335,0.056-0.531V137.213z"/>
		<path fill="#78909C" d="M176.126,141.367c-1.812,0-3.234-1.338-3.234-3.471c0-2.257,1.492-3.582,3.345-3.582
			c1.938,0,3.247,1.407,3.247,3.457c0,2.508-1.742,3.596-3.345,3.596H176.126z M176.168,140.447c1.171,0,2.048-1.102,2.048-2.635
			c0-1.143-0.571-2.578-2.021-2.578c-1.436,0-2.063,1.338-2.063,2.62c0,1.478,0.836,2.593,2.021,2.593H176.168z"/>
		<path fill="#78909C" d="M181.036,136.294c0-0.711-0.028-1.269-0.056-1.825h1.073l0.056,1.086h0.042
			c0.376-0.641,1.004-1.24,2.132-1.24c0.906,0,1.603,0.558,1.896,1.353h0.028c0.208-0.391,0.487-0.669,0.766-0.879
			c0.404-0.307,0.836-0.474,1.477-0.474c0.906,0,2.229,0.586,2.229,2.928v3.971h-1.198v-3.818c0-1.31-0.487-2.076-1.463-2.076
			c-0.711,0-1.241,0.516-1.463,1.101c-0.056,0.182-0.098,0.404-0.098,0.614v4.18h-1.199v-4.042c0-1.086-0.474-1.853-1.407-1.853
			c-0.753,0-1.324,0.612-1.52,1.227c-0.069,0.181-0.098,0.39-0.098,0.599v4.069h-1.198V136.294z"/>
		<path fill="#78909C" d="M197.417,139.597c0,0.585,0.028,1.156,0.097,1.616h-1.101l-0.111-0.85h-0.042
			c-0.362,0.53-1.101,1.004-2.063,1.004c-1.365,0-2.063-0.962-2.063-1.938c0-1.631,1.449-2.522,4.055-2.51v-0.138
			c0-0.559-0.153-1.575-1.532-1.563c-0.641,0-1.296,0.183-1.771,0.502l-0.279-0.821c0.557-0.348,1.38-0.586,2.23-0.586
			c2.077,0,2.579,1.407,2.579,2.76V139.597z M196.219,137.771c-1.338-0.028-2.857,0.209-2.857,1.519c0,0.809,0.53,1.171,1.143,1.171
			c0.892,0,1.463-0.557,1.658-1.129c0.042-0.125,0.056-0.265,0.056-0.391V137.771z"/>
		<path fill="#78909C" d="M199.972,133.228c-0.46,0-0.767-0.362-0.767-0.794c0-0.433,0.32-0.781,0.794-0.781s0.78,0.349,0.78,0.781
			c0,0.432-0.306,0.794-0.794,0.794H199.972z M199.386,141.213v-6.744h1.227v6.744H199.386z"/>
		<path fill="#78909C" d="M202.649,136.294c0-0.711-0.015-1.269-0.056-1.825h1.087l0.07,1.101h0.028
			c0.334-0.628,1.115-1.255,2.23-1.255c0.933,0,2.383,0.558,2.383,2.871v4.027h-1.227v-3.888c0-1.087-0.404-2.007-1.561-2.007
			c-0.794,0-1.421,0.571-1.644,1.254c-0.056,0.153-0.083,0.377-0.083,0.571v4.069h-1.227V136.294z"/>
		<path fill="#78909C" d="M210.903,141.367c-0.474,0-0.808-0.376-0.808-0.879c0-0.501,0.348-0.877,0.836-0.877
			c0.488,0,0.822,0.361,0.822,0.877c0,0.503-0.334,0.879-0.836,0.879H210.903z"/>
		<path fill="#78909C" d="M218.083,140.977c-0.321,0.152-1.032,0.391-1.937,0.391c-2.035,0-3.359-1.38-3.359-3.457
			c0-2.076,1.422-3.596,3.624-3.596c0.725,0,1.366,0.182,1.7,0.363l-0.278,0.934c-0.292-0.153-0.752-0.321-1.421-0.321
			c-1.547,0-2.383,1.157-2.383,2.564c0,1.562,1.004,2.522,2.341,2.522c0.697,0,1.157-0.166,1.505-0.32L218.083,140.977z"/>
		<path fill="#78909C" d="M222.183,141.367c-1.812,0-3.234-1.338-3.234-3.471c0-2.257,1.492-3.582,3.345-3.582
			c1.938,0,3.247,1.407,3.247,3.457c0,2.508-1.742,3.596-3.345,3.596H222.183z M222.225,140.447c1.17,0,2.048-1.102,2.048-2.635
			c0-1.143-0.571-2.578-2.021-2.578c-1.436,0-2.063,1.338-2.063,2.62c0,1.478,0.836,2.593,2.021,2.593H222.225z"/>
		<path fill="#78909C" d="M227.093,136.294c0-0.711-0.027-1.269-0.055-1.825h1.073l0.056,1.086h0.042
			c0.376-0.641,1.004-1.24,2.132-1.24c0.906,0,1.603,0.558,1.896,1.353h0.028c0.209-0.391,0.487-0.669,0.767-0.879
			c0.404-0.307,0.836-0.474,1.477-0.474c0.906,0,2.229,0.586,2.229,2.928v3.971h-1.198v-3.818c0-1.31-0.488-2.076-1.463-2.076
			c-0.711,0-1.241,0.516-1.463,1.101c-0.056,0.182-0.098,0.404-0.098,0.614v4.18h-1.199v-4.042c0-1.086-0.474-1.853-1.408-1.853
			c-0.753,0-1.324,0.612-1.519,1.227c-0.069,0.181-0.098,0.39-0.098,0.599v4.069h-1.199V136.294z"/>
	</g>
	
		<path display="inline" fill-rule="evenodd" clip-rule="evenodd" fill="#02A8F3" stroke="#02A8F3" stroke-width="2" stroke-miterlimit="10" d="
		M365.811,212.015"/>
	<path display="inline" fill="#FAFAFA" stroke="#78909C" stroke-width="2" stroke-miterlimit="10" d="M251.035,75.404"/>
	<path display="inline" fill="#FAFAFA" stroke="#78909C" stroke-width="2" stroke-miterlimit="10" d="M202.858,252.716h-91.869
		H41.868c-2.498,0-4.524-2.027-4.524-4.525V113.183c0-2.498,2.026-4.523,4.524-4.523h162.71c2.5,0,4.524,2.025,4.524,4.523v133.453
		c0,0,0.056,2.129-1.874,3.922C204.928,252.69,202.858,252.716,202.858,252.716z"/>
	<path display="inline" fill="#78909C" stroke="#78909C" stroke-width="2" stroke-miterlimit="10" d="M202.858,252.716h-91.869
		H41.868c-2.498,0-4.524-1.587-4.524-3.542V143.511c0-1.955,2.026-3.539,4.524-3.539h162.71c2.5,0,4.524,1.584,4.524,3.539v104.446
		c0,0,0.056,1.666-1.874,3.069C204.928,252.696,202.858,252.716,202.858,252.716z"/>
	
		<line display="inline" fill="#FAFAFA" stroke="#78909C" stroke-width="2" stroke-miterlimit="10" x1="37.343" y1="139.972" x2="209.427" y2="139.972"/>
	<circle display="inline" fill="#FF8A80" stroke="#FF8A80" stroke-miterlimit="10" cx="52.417" cy="123.453" r="4.603"/>
	<circle display="inline" fill="#FDD835" stroke="#FDD835" stroke-miterlimit="10" cx="70.411" cy="123.453" r="4.603"/>
	
		<circle display="inline" fill="#78909C" stroke="#78909C" stroke-width="0.5" stroke-miterlimit="10" cx="88.416" cy="123.453" r="4.603"/>
	
		<polyline display="inline" fill-rule="evenodd" clip-rule="evenodd" fill="none" stroke="#FF6E40" stroke-width="2" stroke-linecap="round" stroke-miterlimit="10" stroke-dasharray="1,5" points="
		122.675,252.716 122.675,282.878 348.475,282.878 348.475,221.44 	"/>
	
		<polyline display="inline" fill-rule="evenodd" clip-rule="evenodd" fill="none" stroke="#FF6E40" stroke-width="2" stroke-linecap="round" stroke-miterlimit="10" stroke-dasharray="1,5" points="
		352.475,282.878 473.004,282.878 473.004,221.44 	"/>
	
		<circle display="inline" fill="#FFD740" stroke="#FFD740" stroke-width="2" stroke-miterlimit="10" cx="582.589" cy="189.753" r="30.687"/>
	<path display="inline" fill="#FFE57F" stroke="#FFE57F" stroke-width="2" stroke-miterlimit="10" d="M582.591,159.067
		c16.946,0,30.685,13.738,30.685,30.686s-13.738,30.688-30.685,30.688V159.067z"/>
	
		<polyline display="inline" fill-rule="evenodd" clip-rule="evenodd" fill="none" stroke="#FF6E40" stroke-width="2" stroke-linecap="round" stroke-miterlimit="10" stroke-dasharray="1,5" points="
		479.004,282.878 582.754,282.878 582.754,221.44 	"/>
	<g display="inline">
		<g>
			<path fill="none" stroke="#FCFCFC" stroke-width="4" stroke-miterlimit="10" d="M602.781,189.553
				c0,11.152-9.04,20.192-20.192,20.192c-3.669,0-7.108-0.979-10.073-2.688"/>
			<g>
				<polygon fill="#FCFCFC" points="577.916,203.387 566.14,201.267 570.19,212.525 				"/>
			</g>
		</g>
	</g>
	<g display="inline">
		<g>
			<path fill="none" stroke="#FCFCFC" stroke-width="4" stroke-miterlimit="10" d="M562.396,189.553
				c0-11.152,9.04-20.192,20.192-20.192c4.242,0,8.179,1.308,11.428,3.542"/>
			<g>
				<polygon fill="#FCFCFC" points="588.349,176.121 599.917,179.18 596.783,167.632 				"/>
			</g>
		</g>
	</g>
	
		<circle display="inline" fill="none" stroke="#FCFCFC" stroke-width="2" stroke-miterlimit="10" cx="327.8" cy="196.136" r="5.333"/>
	
		<circle display="inline" fill="none" stroke="#FCFCFC" stroke-width="2" stroke-miterlimit="10" cx="358.466" cy="178.47" r="5.333"/>
	
		<circle display="inline" fill="none" stroke="#FCFCFC" stroke-width="2" stroke-miterlimit="10" cx="357.466" cy="204.136" r="5.333"/>
	
		<line display="inline" fill="none" stroke="#FCFCFC" stroke-width="2" stroke-miterlimit="10" x1="333.134" y1="193.427" x2="354.475" y2="180.94"/>
	<g display="inline">
		<path fill="#EEEEEE" d="M49.732,186.034h1.227v4.209h0.028c0.195-0.35,0.501-0.668,0.877-0.863c0.363-0.225,0.795-0.35,1.255-0.35
			c0.905,0,2.355,0.559,2.355,2.887v4.012h-1.227v-3.873c0-1.102-0.404-2.008-1.561-2.008c-0.794,0-1.407,0.559-1.645,1.227
			c-0.07,0.168-0.083,0.35-0.083,0.586v4.068h-1.227V186.034z"/>
		<path fill="#EEEEEE" d="M58.893,187.567v1.617h1.756v0.934h-1.756v3.637c0,0.838,0.236,1.311,0.92,1.311
			c0.333,0,0.529-0.027,0.711-0.084l0.055,0.936c-0.237,0.082-0.613,0.166-1.087,0.166c-0.571,0-1.031-0.195-1.324-0.516
			c-0.334-0.377-0.474-0.975-0.474-1.77v-3.68h-1.045v-0.934h1.045v-1.24L58.893,187.567z"/>
		<path fill="#EEEEEE" d="M63.508,187.567v1.617h1.756v0.934h-1.756v3.637c0,0.838,0.237,1.311,0.919,1.311
			c0.334,0,0.529-0.027,0.71-0.084l0.056,0.936c-0.237,0.082-0.613,0.166-1.087,0.166c-0.571,0-1.032-0.195-1.324-0.516
			c-0.334-0.377-0.474-0.975-0.474-1.77v-3.68h-1.045v-0.934h1.045v-1.24L63.508,187.567z"/>
		<path fill="#EEEEEE" d="M66.646,191.386c0-0.863-0.014-1.561-0.056-2.201h1.101l0.07,1.156h0.028
			c0.488-0.836,1.296-1.311,2.383-1.311c1.645,0,2.871,1.381,2.871,3.43c0,2.424-1.491,3.623-3.065,3.623
			c-0.906,0-1.673-0.391-2.077-1.059h-0.028v3.666h-1.227V191.386z M67.873,193.185c0,0.166,0.014,0.348,0.055,0.502
			c0.209,0.85,0.962,1.436,1.826,1.436c1.296,0,2.049-1.061,2.049-2.607c0-1.352-0.697-2.508-1.993-2.508
			c-0.836,0-1.631,0.586-1.868,1.506c-0.028,0.166-0.069,0.348-0.069,0.502V193.185z"/>
		<path fill="#EEEEEE" d="M75.096,196.083c-0.474,0-0.809-0.375-0.809-0.863c0-0.516,0.349-0.879,0.823-0.879
			c0.502,0,0.822,0.363,0.822,0.879c0,0.488-0.32,0.863-0.822,0.863H75.096z M75.11,191.163c-0.474,0-0.808-0.377-0.808-0.863
			c0-0.516,0.348-0.879,0.822-0.879c0.502,0,0.822,0.363,0.822,0.879c0,0.486-0.32,0.863-0.822,0.863H75.11z"/>
		<path fill="#EEEEEE" d="M76.435,196.487l3.875-10.104h0.962l-3.903,10.104H76.435z"/>
		<path fill="#EEEEEE" d="M81.217,196.487l3.875-10.104h0.962l-3.903,10.104H81.217z"/>
		<path fill="#EEEEEE" d="M87.52,189.185l0.906,3.414c0.181,0.752,0.362,1.463,0.488,2.16h0.042
			c0.153-0.682,0.376-1.408,0.599-2.146l1.101-3.428h1.032l1.045,3.373c0.25,0.793,0.446,1.52,0.599,2.201h0.042
			c0.111-0.682,0.292-1.395,0.516-2.188l0.962-3.387h1.212l-2.174,6.744h-1.115l-1.032-3.219c-0.236-0.766-0.432-1.436-0.599-2.23
			h-0.028c-0.167,0.809-0.376,1.521-0.613,2.244l-1.087,3.205H88.3l-2.035-6.744H87.52z"/>
		<path fill="#EEEEEE" d="M97.783,189.185l0.905,3.414c0.182,0.752,0.363,1.463,0.488,2.16h0.042
			c0.153-0.682,0.376-1.408,0.599-2.146l1.101-3.428h1.031l1.045,3.373c0.25,0.793,0.446,1.52,0.599,2.201h0.042
			c0.111-0.682,0.292-1.395,0.516-2.188l0.961-3.387h1.212l-2.174,6.744h-1.115l-1.031-3.219c-0.237-0.766-0.432-1.436-0.599-2.23
			h-0.028c-0.167,0.809-0.376,1.521-0.613,2.244l-1.087,3.205h-1.115l-2.035-6.744H97.783z"/>
		<path fill="#EEEEEE" d="M108.045,189.185l0.906,3.414c0.181,0.752,0.362,1.463,0.488,2.16h0.042
			c0.153-0.682,0.376-1.408,0.599-2.146l1.101-3.428h1.031l1.045,3.373c0.25,0.793,0.446,1.52,0.599,2.201h0.042
			c0.112-0.682,0.292-1.395,0.516-2.188l0.961-3.387h1.213l-2.174,6.744h-1.115l-1.032-3.219c-0.237-0.766-0.432-1.436-0.599-2.23
			h-0.028c-0.167,0.809-0.375,1.521-0.613,2.244l-1.087,3.205h-1.115l-2.035-6.744H108.045z"/>
		<path fill="#EEEEEE" d="M117.792,196.083c-0.474,0-0.808-0.375-0.808-0.879c0-0.5,0.348-0.877,0.836-0.877
			c0.487,0,0.822,0.361,0.822,0.877c0,0.504-0.334,0.879-0.836,0.879H117.792z"/>
		<path fill="#EEEEEE" d="M125.988,186.034v8.154c0,0.6,0.014,1.281,0.055,1.74h-1.1l-0.056-1.17h-0.027
			c-0.377,0.752-1.185,1.324-2.287,1.324c-1.63,0-2.898-1.379-2.898-3.428c-0.014-2.26,1.394-3.625,3.024-3.625
			c1.046,0,1.743,0.49,2.036,1.018h0.027v-4.014H125.988z M124.762,191.929c0-0.166-0.014-0.361-0.056-0.527
			c-0.181-0.768-0.85-1.408-1.77-1.408c-1.268,0-2.021,1.115-2.021,2.592c0,1.379,0.683,2.508,1.993,2.508
			c0.822,0,1.575-0.557,1.798-1.461c0.042-0.168,0.056-0.336,0.056-0.531V191.929z"/>
		<path fill="#EEEEEE" d="M130.773,196.083c-1.812,0-3.234-1.338-3.234-3.471c0-2.256,1.492-3.582,3.345-3.582
			c1.938,0,3.247,1.408,3.247,3.457c0,2.508-1.742,3.596-3.345,3.596H130.773z M130.815,195.163c1.171,0,2.048-1.102,2.048-2.635
			c0-1.143-0.571-2.578-2.021-2.578c-1.436,0-2.063,1.338-2.063,2.621c0,1.477,0.836,2.592,2.021,2.592H130.815z"/>
		<path fill="#EEEEEE" d="M135.683,191.011c0-0.711-0.028-1.27-0.056-1.826h1.073l0.056,1.086h0.042
			c0.376-0.641,1.004-1.24,2.132-1.24c0.906,0,1.603,0.559,1.896,1.354h0.028c0.208-0.391,0.487-0.67,0.766-0.879
			c0.404-0.307,0.836-0.475,1.477-0.475c0.906,0,2.229,0.586,2.229,2.928v3.971h-1.198v-3.818c0-1.309-0.487-2.076-1.463-2.076
			c-0.711,0-1.241,0.516-1.463,1.102c-0.056,0.182-0.098,0.404-0.098,0.613v4.18h-1.199v-4.041c0-1.086-0.474-1.854-1.407-1.854
			c-0.753,0-1.324,0.613-1.52,1.227c-0.069,0.182-0.098,0.391-0.098,0.6v4.068h-1.198V191.011z"/>
		<path fill="#EEEEEE" d="M152.064,194.313c0,0.584,0.028,1.156,0.097,1.615h-1.101l-0.111-0.85h-0.042
			c-0.362,0.531-1.101,1.004-2.063,1.004c-1.365,0-2.063-0.961-2.063-1.938c0-1.631,1.449-2.521,4.055-2.51v-0.137
			c0-0.559-0.153-1.576-1.532-1.563c-0.641,0-1.296,0.182-1.771,0.502l-0.279-0.822c0.557-0.348,1.38-0.586,2.23-0.586
			c2.077,0,2.579,1.408,2.579,2.76V194.313z M150.866,192.487c-1.338-0.027-2.857,0.209-2.857,1.52c0,0.809,0.53,1.17,1.143,1.17
			c0.892,0,1.463-0.557,1.658-1.129c0.042-0.125,0.056-0.264,0.056-0.391V192.487z"/>
		<path fill="#EEEEEE" d="M154.619,187.944c-0.46,0-0.767-0.363-0.767-0.795s0.32-0.781,0.794-0.781s0.78,0.35,0.78,0.781
			s-0.306,0.795-0.794,0.795H154.619z M154.033,195.929v-6.744h1.227v6.744H154.033z"/>
		<path fill="#EEEEEE" d="M157.296,191.011c0-0.711-0.015-1.27-0.056-1.826h1.087l0.07,1.102h0.028
			c0.334-0.629,1.115-1.256,2.23-1.256c0.933,0,2.383,0.559,2.383,2.871v4.027h-1.227v-3.887c0-1.088-0.404-2.008-1.561-2.008
			c-0.794,0-1.421,0.572-1.644,1.254c-0.056,0.154-0.083,0.377-0.083,0.572v4.068h-1.227V191.011z"/>
		<path fill="#EEEEEE" d="M165.55,196.083c-0.474,0-0.808-0.375-0.808-0.879c0-0.5,0.348-0.877,0.836-0.877
			c0.488,0,0.822,0.361,0.822,0.877c0,0.504-0.334,0.879-0.836,0.879H165.55z"/>
		<path fill="#EEEEEE" d="M172.729,195.692c-0.321,0.152-1.032,0.391-1.937,0.391c-2.035,0-3.359-1.379-3.359-3.457
			c0-2.076,1.422-3.596,3.624-3.596c0.725,0,1.366,0.182,1.7,0.363l-0.278,0.934c-0.292-0.152-0.752-0.32-1.421-0.32
			c-1.547,0-2.383,1.156-2.383,2.564c0,1.561,1.004,2.521,2.341,2.521c0.697,0,1.157-0.166,1.505-0.32L172.729,195.692z"/>
		<path fill="#EEEEEE" d="M176.83,196.083c-1.812,0-3.234-1.338-3.234-3.471c0-2.256,1.492-3.582,3.345-3.582
			c1.938,0,3.247,1.408,3.247,3.457c0,2.508-1.742,3.596-3.345,3.596H176.83z M176.872,195.163c1.17,0,2.048-1.102,2.048-2.635
			c0-1.143-0.571-2.578-2.021-2.578c-1.436,0-2.063,1.338-2.063,2.621c0,1.477,0.836,2.592,2.021,2.592H176.872z"/>
		<path fill="#EEEEEE" d="M181.74,191.011c0-0.711-0.027-1.27-0.055-1.826h1.073l0.056,1.086h0.042
			c0.376-0.641,1.004-1.24,2.132-1.24c0.906,0,1.603,0.559,1.896,1.354h0.028c0.209-0.391,0.487-0.67,0.767-0.879
			c0.404-0.307,0.836-0.475,1.477-0.475c0.906,0,2.229,0.586,2.229,2.928v3.971h-1.198v-3.818c0-1.309-0.488-2.076-1.463-2.076
			c-0.711,0-1.241,0.516-1.463,1.102c-0.056,0.182-0.098,0.404-0.098,0.613v4.18h-1.199v-4.041c0-1.086-0.474-1.854-1.408-1.854
			c-0.753,0-1.324,0.613-1.519,1.227c-0.069,0.182-0.098,0.391-0.098,0.6v4.068h-1.199V191.011z"/>
	</g>
	
		<line display="inline" fill="none" stroke="#FCFCFC" stroke-width="2" stroke-miterlimit="10" x1="332.864" y1="197.804" x2="352.133" y2="203.136"/>
	<path display="inline" fill="none" stroke="#03A9F4" stroke-width="4" stroke-miterlimit="10" d="M836.4,388.443"/>
</g>
<g id="multiple-environment" display="none">
	<path display="inline" fill="#FAFAFA" stroke="#78909C" stroke-width="2" stroke-miterlimit="10" d="M361.689,215.561
		c0,2.162-1.753,3.914-3.915,3.914H199.613c-2.161,0-3.915-1.752-3.915-3.914V37.037c0-2.163,1.754-3.915,3.915-3.915h158.161
		c2.162,0,3.915,1.752,3.915,3.915V215.561z"/>
	
		<circle display="inline" fill="#02A8F3" stroke="#02A8F3" stroke-width="2" stroke-miterlimit="10" cx="220.947" cy="78.698" r="7.241"/>
	<path display="inline" fill="#EEEEEE" d="M343.682,99.383c0,0.864-0.7,1.567-1.565,1.567H240.327c-0.865,0-1.566-0.703-1.566-1.567
		V80.855l-3.487-2.382l3.487-2.397V72.24c0-0.865,0.701-1.566,1.566-1.566h101.789c0.865,0,1.565,0.701,1.565,1.566V99.383z"/>
	
		<line display="inline" fill="#EEEEEE" stroke="#1DE9B6" stroke-width="2" stroke-miterlimit="10" x1="244.767" y1="90.119" x2="269.04" y2="90.119"/>
	
		<line display="inline" fill="#EEEEEE" stroke="#C4C4C4" stroke-width="2" stroke-miterlimit="10" x1="244.767" y1="78.698" x2="269.04" y2="78.698"/>
	
		<line display="inline" fill="#EEEEEE" stroke="#C4C4C4" stroke-width="2" stroke-miterlimit="10" x1="244.767" y1="84.409" x2="297.228" y2="84.409"/>
	<path display="inline" fill="#02A8F3" stroke="#02A8F3" stroke-width="2" stroke-miterlimit="10" d="M425.134,123.194
		c0,0.8-0.647,1.446-1.446,1.446H413.2c-0.799,0-1.447-0.646-1.447-1.446v-0.168c0-0.798,0.648-1.446,1.447-1.446h10.487
		c0.799,0,1.446,0.648,1.446,1.446V123.194z"/>
	<polyline display="inline" fill="none" stroke="#FFFFFF" stroke-width="2" stroke-miterlimit="10" points="217.558,79.358 
		219.761,81.561 225.486,75.835 	"/>
	
		<line display="inline" fill="none" stroke="#F5F5F5" stroke-width="2" stroke-miterlimit="10" x1="220.947" y1="86.758" x2="220.947" y2="168.322"/>
	
		<circle display="inline" fill="#02A8F3" stroke="#02A8F3" stroke-width="2" stroke-miterlimit="10" cx="220.947" cy="127.521" r="7.241"/>
	<path display="inline" fill="#EEEEEE" d="M343.682,148.207c0,0.864-0.7,1.564-1.565,1.564H240.327c-0.865,0-1.566-0.7-1.566-1.564
		v-18.529l-3.487-2.383l3.487-2.396v-3.836c0-0.865,0.701-1.566,1.566-1.566h101.789c0.865,0,1.565,0.701,1.565,1.566V148.207z"/>
	
		<line display="inline" fill="#EEEEEE" stroke="#1DE9B6" stroke-width="2" stroke-miterlimit="10" x1="244.767" y1="138.944" x2="269.04" y2="138.944"/>
	
		<line display="inline" fill="#EEEEEE" stroke="#C4C4C4" stroke-width="2" stroke-miterlimit="10" x1="244.767" y1="127.521" x2="269.04" y2="127.521"/>
	
		<line display="inline" fill="#EEEEEE" stroke="#C4C4C4" stroke-width="2" stroke-miterlimit="10" x1="244.767" y1="133.23" x2="297.228" y2="133.23"/>
	<path display="inline" fill="#02A8F3" stroke="#02A8F3" stroke-width="2" stroke-miterlimit="10" d="M425.134,168.295
		c0,0.797-0.647,1.447-1.446,1.447H413.2c-0.799,0-1.447-0.65-1.447-1.447v-0.17c0-0.798,0.648-1.447,1.447-1.447h10.487
		c0.799,0,1.446,0.649,1.446,1.447V168.295z"/>
	<polyline display="inline" fill="none" stroke="#FFFFFF" stroke-width="2" stroke-miterlimit="10" points="217.558,128.182 
		219.761,130.383 225.486,124.658 	"/>
	<circle display="inline" fill="#FF8A80" stroke="#FF8A80" stroke-miterlimit="10" cx="220.947" cy="176.346" r="7.241"/>
	<path display="inline" fill="#FF8A80" stroke="#FF8A80" stroke-miterlimit="10" d="M343.682,197.029c0,0.865-0.7,1.566-1.565,1.566
		H240.327c-0.865,0-1.566-0.701-1.566-1.566v-18.527l-3.487-2.383l3.487-2.398v-3.834c0-0.867,0.701-1.564,1.566-1.564h101.789
		c0.865,0,1.565,0.697,1.565,1.564V197.029z"/>
	
		<line display="inline" fill="#FF8A80" stroke="#FFCDD2" stroke-width="2" stroke-miterlimit="10" x1="244.767" y1="187.768" x2="269.04" y2="187.768"/>
	
		<line display="inline" fill="#EDEDED" stroke="#EDEDED" stroke-width="2" stroke-miterlimit="10" x1="244.767" y1="176.346" x2="269.04" y2="176.346"/>
	
		<line display="inline" fill="#EDEDED" stroke="#EDEDED" stroke-width="2" stroke-miterlimit="10" x1="244.767" y1="182.055" x2="297.228" y2="182.055"/>
	<path display="inline" fill="#02A8F3" stroke="#02A8F3" stroke-width="2" stroke-miterlimit="10" d="M425.134,213.393
		c0,0.799-0.647,1.443-1.446,1.443H413.2c-0.799,0-1.447-0.645-1.447-1.443v-0.17c0-0.799,0.648-1.447,1.447-1.447h10.487
		c0.799,0,1.446,0.648,1.446,1.447V213.393z"/>
	<path display="inline" fill="#EEEEEE" stroke="#FFFFFF" stroke-width="2" stroke-miterlimit="10" d="M225.486,173.484"/>
	<g display="inline">
		<path fill="#FFFFFF" d="M219.483,173.148l0.879,1.313c0.23,0.357,0.422,0.662,0.625,1.006h0.039
			c0.203-0.357,0.406-0.676,0.623-1.006l0.854-1.313h1.223l-2.103,2.98l2.153,3.186h-1.273l-0.905-1.391
			c-0.242-0.354-0.445-0.697-0.662-1.068h-0.025c-0.204,0.371-0.421,0.701-0.65,1.068l-0.891,1.391h-1.236l2.191-3.146l-2.09-3.02
			H219.483z"/>
	</g>
	<circle display="inline" fill="#FF8A80" stroke="#FF8A80" stroke-miterlimit="10" cx="206.139" cy="44.607" r="3.132"/>
	<circle display="inline" fill="#FDD835" stroke="#FDD835" stroke-miterlimit="10" cx="217.559" cy="44.607" r="3.132"/>
	
		<circle display="inline" fill="#78909C" stroke="#78909C" stroke-width="0.5" stroke-miterlimit="10" cx="228.972" cy="44.607" r="3.133"/>
	
		<line display="inline" fill="#FAFAFA" stroke="#78909C" stroke-width="2" stroke-miterlimit="10" x1="195.698" y1="55.83" x2="361.689" y2="55.83"/>
	<path display="inline" fill="#FAFAFA" stroke="#78909C" stroke-width="2" stroke-miterlimit="10" d="M158.849,159.457
		c0,1.508-1.223,2.729-2.729,2.729H45.824c-1.507,0-2.729-1.222-2.729-2.729V34.962c0-1.508,1.223-2.73,2.729-2.73h110.295
		c1.507,0,2.729,1.222,2.729,2.73V159.457z"/>
	
		<circle display="inline" fill="#02A8F3" stroke="#02A8F3" stroke-width="2" stroke-miterlimit="10" cx="60.701" cy="64.015" r="5.05"/>
	<path display="inline" fill="#EEEEEE" d="M146.292,78.44c0,0.603-0.488,1.093-1.092,1.093H74.216c-0.603,0-1.092-0.49-1.092-1.093
		V65.519l-2.432-1.661l2.432-1.672v-2.675c0-0.603,0.489-1.092,1.092-1.092H145.2c0.604,0,1.092,0.489,1.092,1.092V78.44z"/>
	
		<line display="inline" fill="#EEEEEE" stroke="#1DE9B6" stroke-width="2" stroke-miterlimit="10" x1="77.313" y1="71.979" x2="94.239" y2="71.979"/>
	
		<line display="inline" fill="#EEEEEE" stroke="#C4C4C4" stroke-width="2" stroke-miterlimit="10" x1="77.313" y1="64.015" x2="94.239" y2="64.015"/>
	
		<line display="inline" fill="#EEEEEE" stroke="#C4C4C4" stroke-width="2" stroke-miterlimit="10" x1="77.313" y1="67.998" x2="113.896" y2="67.998"/>
	<polyline display="inline" fill="none" stroke="#FFFFFF" stroke-width="2" stroke-miterlimit="10" points="58.339,64.476 
		59.874,66.012 63.867,62.019 	"/>
	
		<line display="inline" fill="none" stroke="#F5F5F5" stroke-width="2" stroke-miterlimit="10" x1="60.702" y1="69.636" x2="60.702" y2="126.515"/>
	
		<circle display="inline" fill="#02A8F3" stroke="#02A8F3" stroke-width="2" stroke-miterlimit="10" cx="60.701" cy="98.062" r="5.05"/>
	<path display="inline" fill="#EEEEEE" d="M146.292,112.487c0,0.603-0.488,1.091-1.092,1.091H74.216
		c-0.603,0-1.092-0.488-1.092-1.091V99.566l-2.432-1.662l2.432-1.671v-2.676c0-0.604,0.489-1.092,1.092-1.092H145.2
		c0.604,0,1.092,0.488,1.092,1.092V112.487z"/>
	
		<line display="inline" fill="#EEEEEE" stroke="#1DE9B6" stroke-width="2" stroke-miterlimit="10" x1="77.313" y1="106.028" x2="94.239" y2="106.028"/>
	
		<line display="inline" fill="#EEEEEE" stroke="#C4C4C4" stroke-width="2" stroke-miterlimit="10" x1="77.313" y1="98.062" x2="94.239" y2="98.062"/>
	
		<line display="inline" fill="#EEEEEE" stroke="#C4C4C4" stroke-width="2" stroke-miterlimit="10" x1="77.313" y1="102.044" x2="113.896" y2="102.044"/>
	<polyline display="inline" fill="none" stroke="#FFFFFF" stroke-width="2" stroke-miterlimit="10" points="58.339,98.522 
		59.874,100.058 63.867,96.065 	"/>
	<circle display="inline" fill="#FF8A80" stroke="#FF8A80" stroke-miterlimit="10" cx="60.701" cy="132.109" r="5.05"/>
	<path display="inline" fill="#EEEEEE" d="M146.292,146.534c0,0.603-0.488,1.092-1.092,1.092H74.216
		c-0.603,0-1.092-0.489-1.092-1.092v-12.92l-2.432-1.662l2.432-1.673v-2.674c0-0.604,0.489-1.091,1.092-1.091H145.2
		c0.604,0,1.092,0.486,1.092,1.091V146.534z"/>
	
		<line display="inline" fill="#EEEEEE" stroke="#1DE9B6" stroke-width="2" stroke-miterlimit="10" x1="77.313" y1="140.074" x2="94.239" y2="140.074"/>
	
		<line display="inline" fill="#EEEEEE" stroke="#C4C4C4" stroke-width="2" stroke-miterlimit="10" x1="77.313" y1="132.109" x2="94.239" y2="132.109"/>
	
		<line display="inline" fill="#EEEEEE" stroke="#C4C4C4" stroke-width="2" stroke-miterlimit="10" x1="77.313" y1="136.092" x2="113.896" y2="136.092"/>
	<path display="inline" fill="#EEEEEE" stroke="#FFFFFF" stroke-width="2" stroke-miterlimit="10" d="M63.867,130.114"/>
	<g display="inline">
		<path fill="#FFFFFF" d="M59.681,129.881l0.613,0.914c0.16,0.249,0.294,0.463,0.436,0.702h0.027
			c0.142-0.249,0.283-0.472,0.434-0.702l0.597-0.914h0.853l-1.466,2.078l1.501,2.222h-0.888l-0.631-0.97
			c-0.169-0.247-0.312-0.487-0.462-0.745h-0.018c-0.143,0.258-0.293,0.488-0.453,0.745l-0.622,0.97h-0.862l1.528-2.194l-1.456-2.105
			H59.681z"/>
	</g>
	<circle display="inline" fill="#FF8A80" stroke="#FF8A80" stroke-miterlimit="10" cx="50.375" cy="40.241" r="2.184"/>
	<circle display="inline" fill="#FDD835" stroke="#FDD835" stroke-miterlimit="10" cx="58.338" cy="40.241" r="2.184"/>
	
		<circle display="inline" fill="#78909C" stroke="#78909C" stroke-width="0.5" stroke-miterlimit="10" cx="66.297" cy="40.241" r="2.184"/>
	
		<line display="inline" fill="#FAFAFA" stroke="#78909C" stroke-width="2" stroke-miterlimit="10" x1="43.095" y1="48.067" x2="158.849" y2="48.067"/>
	<path display="inline" fill="#FAFAFA" stroke="#78909C" stroke-width="2" stroke-miterlimit="10" d="M604.414,254.926
		c0,2.629-2.129,4.762-4.759,4.762h-192.27c-2.627,0-4.76-2.133-4.76-4.762V37.904c0-2.628,2.133-4.759,4.76-4.759h192.27
		c2.63,0,4.759,2.131,4.759,4.759V254.926z"/>
	<path display="inline" fill="#EEEEEE" d="M588.682,140.575c0,1.134-1.107,2.055-2.475,2.055H425.288
		c-1.369,0-2.478-0.921-2.478-2.055v-24.308l0.02-3.096l-0.02-3.174v-5.032c0-1.134,1.108-2.055,2.478-2.055h160.919
		c1.367,0,2.475,0.92,2.475,2.055V140.575z"/>
	
		<line display="inline" fill="#EEEEEE" stroke="#1DE9B6" stroke-width="2" stroke-miterlimit="10" x1="460.702" y1="131.395" x2="490.211" y2="131.395"/>
	
		<line display="inline" fill="#EEEEEE" stroke="#B0BEC5" stroke-width="2" stroke-miterlimit="10" x1="460.702" y1="112.664" x2="490.211" y2="112.664"/>
	
		<line display="inline" fill="#EEEEEE" stroke="#B0BEC5" stroke-width="2" stroke-miterlimit="10" x1="460.702" y1="122.03" x2="524.476" y2="122.03"/>
	<path display="inline" fill="#EEEEEE" stroke="#FFFFFF" stroke-width="2" stroke-miterlimit="10" d="M404.704,221.529"/>
	<circle display="inline" fill="#FF8A80" stroke="#FF8A80" stroke-miterlimit="10" cx="415.319" cy="47.108" r="3.808"/>
	<circle display="inline" fill="#FDD835" stroke="#FDD835" stroke-miterlimit="10" cx="429.201" cy="47.108" r="3.807"/>
	
		<circle display="inline" fill="#78909C" stroke="#78909C" stroke-width="0.5" stroke-miterlimit="10" cx="443.075" cy="47.108" r="3.808"/>
	
		<line display="inline" fill="#FAFAFA" stroke="#78909C" stroke-width="2" stroke-miterlimit="10" x1="402.626" y1="60.751" x2="604.414" y2="60.751"/>
	<rect x="422.811" y="78.888" display="inline" fill="#EEEEEE" width="34.466" height="12.778"/>
	<rect x="461.413" y="78.888" display="inline" fill="#EEEEEE" width="34.466" height="12.778"/>
	<circle display="inline" fill="#B0BEC5" cx="441.659" cy="121.733" r="11.547"/>
	<path display="inline" fill="none" stroke="#BBBBBB" stroke-width="2" stroke-miterlimit="10" stroke-dasharray="5,5" d="
		M588.682,190.316c0,1.131-1.107,2.053-2.475,2.053H425.288c-1.369,0-2.478-0.922-2.478-2.053v-24.31l0.02-3.096l-0.02-3.175v-5.033
		c0-1.134,1.108-2.054,2.478-2.054h160.919c1.367,0,2.475,0.92,2.475,2.054V190.316z"/>
	
		<line display="inline" fill="#EEEEEE" stroke="#1DE9B6" stroke-width="2" stroke-miterlimit="10" x1="460.702" y1="181.137" x2="490.211" y2="181.137"/>
	
		<line display="inline" fill="#EEEEEE" stroke="#B0BEC5" stroke-width="2" stroke-miterlimit="10" x1="460.702" y1="162.404" x2="490.211" y2="162.404"/>
	
		<line display="inline" fill="#EEEEEE" stroke="#B0BEC5" stroke-width="2" stroke-miterlimit="10" x1="460.702" y1="171.77" x2="524.476" y2="171.77"/>
	<circle display="inline" fill="#B0BEC5" cx="441.659" cy="171.473" r="11.547"/>
	<path display="inline" fill="#1DE9B6" d="M588.682,239.398c0,1.133-1.107,2.055-2.475,2.055H425.288
		c-1.369,0-2.478-0.922-2.478-2.055V215.09l0.02-3.096l-0.02-3.174v-5.033c0-1.133,1.108-2.053,2.478-2.053h160.919
		c1.367,0,2.475,0.92,2.475,2.053V239.398z"/>
	
		<line display="inline" fill="none" stroke="#64FFDA" stroke-miterlimit="10" x1="460.702" y1="230.219" x2="490.211" y2="230.219"/>
	
		<line display="inline" fill="none" stroke="#FFFFFF" stroke-miterlimit="10" x1="460.702" y1="211.486" x2="490.211" y2="211.486"/>
	
		<line display="inline" fill="none" stroke="#FFFFFF" stroke-miterlimit="10" x1="460.702" y1="220.854" x2="524.476" y2="220.854"/>
	<circle display="inline" fill="#A7FFEB" cx="441.659" cy="220.557" r="11.547"/>
	
		<line display="inline" fill="#FAFAFA" stroke="#78909C" stroke-width="2" stroke-miterlimit="10" x1="91.521" y1="292.717" x2="509.923" y2="292.717"/>
	
		<circle display="inline" fill="#7C4DFF" stroke="#78909C" stroke-width="2" stroke-miterlimit="10" cx="307.31" cy="292.717" r="14.309"/>
	
		<circle display="inline" fill="#EDEDED" stroke="#78909C" stroke-width="2" stroke-miterlimit="10" cx="101.313" cy="292.717" r="14.309"/>
	
		<circle display="inline" fill="#1DE9B6" stroke="#78909C" stroke-width="2" stroke-miterlimit="10" cx="509.476" cy="292.717" r="14.309"/>
</g>
<g id="form-webhook" display="none">
	<path display="inline" fill="#EEEEEE" stroke="#EEEEEE" stroke-miterlimit="10" d="M253.357,263.126
		c0,2.162-1.985,3.916-4.432,3.916H69.902c-2.446,0-4.431-1.754-4.431-3.916V84.604c0-2.162,1.985-3.915,4.431-3.915h179.023
		c2.447,0,4.432,1.753,4.432,3.915V263.126z"/>
	<path display="inline" fill="#78909C" stroke="#78909C" stroke-width="2" stroke-miterlimit="10" d="M252.035,113.194
		c0,0-1.957,0-4.37,0H71.162c-2.412,0-4.369,0-4.369,0V81.372c0-0.377,1.957-0.684,4.369-0.684h176.503
		c2.413,0,4.37,0.307,4.37,0.684V113.194z"/>
	
		<line display="inline" fill="none" stroke="#FF8A80" stroke-width="2" stroke-linecap="round" stroke-miterlimit="10" stroke-dasharray="1,5" x1="310.079" y1="177.411" x2="256.035" y2="177.411"/>
	<path display="inline" fill="#02A8F3" stroke="#02A8F3" stroke-width="2" stroke-miterlimit="10" d="M122.555,247.124
		c0,1.543-1.938,2.791-4.33,2.791h-31.39c-2.392,0-4.33-1.248-4.33-2.791v-0.322c0-1.541,1.938-2.789,4.33-2.789h31.39
		c2.392,0,4.33,1.248,4.33,2.789V247.124z"/>
	
		<circle display="inline" fill="#FFD740" stroke="#FFD740" stroke-width="2" stroke-miterlimit="10" cx="345.913" cy="174.97" r="30.686"/>
	<path display="inline" fill="#FFE57F" stroke="#FFE57F" stroke-width="2" stroke-miterlimit="10" d="M345.916,144.284
		c16.945,0,30.684,13.738,30.684,30.686s-13.738,30.688-30.684,30.688V144.284z"/>
	<g display="inline">
		<g>
			<path fill="none" stroke="#FCFCFC" stroke-width="4" stroke-miterlimit="10" d="M366.105,174.771
				c0,11.152-9.039,20.191-20.191,20.191c-3.668,0-7.107-0.979-10.072-2.688"/>
			<g>
				<polygon fill="#FCFCFC" points="341.242,188.604 329.465,186.483 333.516,197.743 				"/>
			</g>
		</g>
	</g>
	<g display="inline">
		<g>
			<path fill="none" stroke="#FCFCFC" stroke-width="4" stroke-miterlimit="10" d="M325.721,174.771
				c0-11.152,9.041-20.193,20.193-20.193c4.242,0,8.178,1.309,11.428,3.543"/>
			<g>
				<polygon fill="#FCFCFC" points="351.674,161.339 363.242,164.397 360.107,152.849 				"/>
			</g>
		</g>
	</g>
	<rect x="81.321" y="135.093" display="inline" fill="#FFFFFF" width="156.775" height="12.43"/>
	
		<line display="inline" fill="none" stroke="#78909C" stroke-width="2" stroke-miterlimit="10" x1="81.321" y1="129.767" x2="111.901" y2="129.767"/>
	<rect x="81.321" y="164.981" display="inline" fill="#FFFFFF" width="156.775" height="12.43"/>
	
		<line display="inline" fill="none" stroke="#78909C" stroke-width="2" stroke-miterlimit="10" x1="81.321" y1="159.655" x2="111.901" y2="159.655"/>
	<rect x="81.321" y="192.032" display="inline" fill="#FFFFFF" width="156.775" height="45.453"/>
	
		<line display="inline" fill="none" stroke="#78909C" stroke-width="2" stroke-miterlimit="10" x1="81.321" y1="186.704" x2="111.901" y2="186.704"/>
	<circle display="inline" fill="#FF8A80" stroke="#FF8A80" stroke-miterlimit="10" cx="235.602" cy="96.429" r="3.495"/>
	
		<circle display="inline" fill="#1DE9B6" stroke="#1DE9B6" stroke-width="2" stroke-miterlimit="10" cx="66.793" cy="93.812" r="26.11"/>
	<polyline display="inline" fill="none" stroke="#FCFCFC" stroke-width="4" stroke-miterlimit="10" points="52.855,93.978 
		61.01,102.13 77.649,85.493 	"/>
	<circle display="inline" fill="#69F0AE" cx="535.742" cy="252.073" r="62.823"/>
	<path display="inline" fill="#78909C" d="M574.975,275.292c0.021,1.453-1.236,2.65-2.805,2.67l-70.09,0.893
		c-1.566,0.02-2.855-1.143-2.873-2.598l-0.447-35.008c-0.018-1.453,35.109-23.563,36.678-23.582l1.826-0.023
		c1.568-0.02,37.248,21.186,37.266,22.641L574.975,275.292z"/>
	
		<rect x="521.993" y="217.718" transform="matrix(-0.0128 -0.9999 0.9999 -0.0128 288.1023 795.6586)" display="inline" fill="#B0BEC5" width="29.682" height="75.776"/>
	<path display="inline" fill="#CFD8DC" d="M573.639,277.388c-0.477,0.348-1.066,0.568-1.721,0.576l-70.086,0.895
		c-1.57,0.02-2.857-1.145-2.875-2.598l-0.447-35.008L573.639,277.388z"/>
	
		<circle display="inline" fill="#1DE9B6" stroke="#1DE9B6" stroke-width="2" stroke-miterlimit="10" cx="535.708" cy="243.059" r="12.479"/>
	<path display="inline" fill="#ECEFF1" d="M500.348,278.321c0.484,0.338,1.08,0.541,1.732,0.533l70.09-0.893
		c1.568-0.02,2.826-1.217,2.805-2.67l-0.445-35.008L500.348,278.321z"/>
	<g display="inline">
		<g>
			
				<line fill="none" stroke="#FFFFFF" stroke-width="4" stroke-miterlimit="10" x1="535.828" y1="234.353" x2="535.707" y2="243.153"/>
			<g>
				<polygon fill="#FFFFFF" points="529.748,241.319 535.588,251.765 541.713,241.485 				"/>
			</g>
		</g>
	</g>
	<circle display="inline" fill="#18FFFF" cx="460.475" cy="70.627" r="34.395"/>
	<path display="inline" fill="#78909C" d="M481.955,83.339c0.012,0.796-0.678,1.451-1.537,1.461l-38.373,0.489
		c-0.857,0.011-1.564-0.626-1.574-1.423L440.227,64.7c-0.01-0.795,19.223-12.9,20.082-12.91l0.998-0.014
		c0.859-0.011,20.395,11.6,20.404,12.396L481.955,83.339z"/>
	
		<rect x="452.947" y="51.817" transform="matrix(-0.0127 -0.9999 0.9999 -0.0127 394.3914 534.5198)" display="inline" fill="#B0BEC5" width="16.251" height="41.488"/>
	<path display="inline" fill="#CFD8DC" d="M481.223,84.487c-0.26,0.189-0.584,0.311-0.941,0.314l-38.373,0.49
		c-0.859,0.011-1.563-0.627-1.574-1.423l-0.244-19.167L481.223,84.487z"/>
	
		<circle display="inline" fill="#536DFE" stroke="#536DFE" stroke-width="2" stroke-miterlimit="10" cx="460.456" cy="65.691" r="6.832"/>
	<path display="inline" fill="#ECEFF1" d="M441.096,84.997c0.266,0.186,0.592,0.297,0.949,0.292l38.373-0.489
		c0.859-0.01,1.549-0.665,1.537-1.461l-0.244-19.167L441.096,84.997z"/>
	<g display="inline">
		<g>
			
				<line fill="none" stroke="#FFFFFF" stroke-width="3" stroke-miterlimit="10" x1="460.521" y1="60.925" x2="460.449" y2="66.152"/>
			<g>
				<polygon fill="#FFFFFF" points="457.471,65.235 460.391,70.458 463.453,65.318 				"/>
			</g>
		</g>
	</g>
	<circle display="inline" fill="#EA80FC" cx="587.191" cy="109.863" r="34.395"/>
	<path display="inline" fill="#78909C" d="M608.67,122.575c0.012,0.795-0.676,1.45-1.535,1.461l-38.373,0.488
		c-0.857,0.012-1.564-0.625-1.574-1.422l-0.244-19.166c-0.01-0.795,19.221-12.9,20.08-12.911l1-0.013
		c0.859-0.012,20.393,11.6,20.404,12.395L608.67,122.575z"/>
	
		<rect x="579.663" y="91.054" transform="matrix(-0.0127 -0.9999 0.9999 -0.0127 483.4887 700.9615)" display="inline" fill="#B0BEC5" width="16.25" height="41.486"/>
	<path display="inline" fill="#CFD8DC" d="M607.939,123.723c-0.262,0.19-0.584,0.312-0.941,0.315l-38.373,0.489
		c-0.859,0.011-1.564-0.627-1.574-1.423l-0.244-19.166L607.939,123.723z"/>
	
		<circle display="inline" fill="#FF4081" stroke="#FF4081" stroke-width="2" stroke-miterlimit="10" cx="587.172" cy="104.926" r="6.833"/>
	<path display="inline" fill="#ECEFF1" d="M567.813,124.233c0.266,0.185,0.59,0.297,0.949,0.291l38.373-0.488
		c0.859-0.011,1.547-0.666,1.535-1.461l-0.242-19.168L567.813,124.233z"/>
	<g display="inline">
		<g>
			
				<line fill="none" stroke="#FFFFFF" stroke-width="3" stroke-miterlimit="10" x1="587.238" y1="100.16" x2="587.166" y2="105.388"/>
			<g>
				<polygon fill="#FFFFFF" points="584.186,104.472 587.105,109.693 590.17,104.554 				"/>
			</g>
		</g>
	</g>
	
		<path display="inline" fill="none" stroke="#FF8A80" stroke-width="2" stroke-linecap="round" stroke-miterlimit="10" stroke-dasharray="1,5" d="
		M344.482,137.907c0,0,8.811-67.28,77.596-67.28"/>
	
		<path display="inline" fill="none" stroke="#FF8A80" stroke-width="2" stroke-linecap="round" stroke-miterlimit="10" stroke-dasharray="1,5" d="
		M345.916,205.657c0,0,5.582,54.398,121.373,54.398"/>
	
		<path display="inline" fill="none" stroke="#FF8A80" stroke-width="2" stroke-linecap="round" stroke-miterlimit="10" stroke-dasharray="1,5" d="
		M381.078,173.866h156.584c0,0,49.529-2.07,49.529-32.07"/>
</g>
<g id="google-analytics" display="none">
	<path display="inline" fill="#FAFAFA" stroke="#78909C" stroke-width="2" stroke-miterlimit="10" d="M366.508,323.727
		c0.453-0.453,0.572-1.071,0.264-1.378l-49.11-49.111c-0.308-0.307-0.924-0.188-1.378,0.266l-47.072,47.072
		c-0.453,0.453-0.572,1.07-0.264,1.378"/>
	<path display="inline" fill="#FAFAFA" stroke="#78909C" stroke-width="2" stroke-miterlimit="10" d="M515.07,290.25
		c0,2.422-1.939,4.386-4.332,4.386h-381.76c-2.39,0-4.33-1.964-4.33-4.386V39.079c0-2.422,1.94-4.384,4.33-4.384h381.76
		c2.393,0,4.332,1.962,4.332,4.384V290.25z"/>
	<circle display="inline" fill="#1DE9B6" cx="90.877" cy="192.729" r="62.444"/>
	
		<circle display="inline" fill="#A7FFEB" stroke="#FFFFFF" stroke-width="2" stroke-miterlimit="10" cx="90.877" cy="191.729" r="24.353"/>
	<path display="inline" fill="#A7FFEB" stroke="#FFFFFF" stroke-width="2" stroke-miterlimit="10" d="M90.876,255.174
		c15.508,0,29.685-5.666,40.604-15.025c-11.089-14.419-25.227-23.066-40.629-23.066c-15.394,0-29.526,8.633-40.611,23.038
		C61.163,249.496,75.352,255.174,90.876,255.174z"/>
	
		<line display="inline" fill="#FAFAFA" stroke="#CFD8DC" stroke-width="2" stroke-miterlimit="10" x1="167.38" y1="64.634" x2="167.38" y2="261.968"/>
	<polyline display="inline" fill="none" stroke="#FF6E40" stroke-width="2" stroke-miterlimit="10" points="167.38,261.968 
		230.724,204.598 253.403,213.479 280.066,185.316 296.022,204.598 326.674,182.233 347.608,194.938 408.667,140.763 	"/>
	<polyline display="inline" fill="none" stroke="#1DE9B6" stroke-width="2" stroke-miterlimit="10" points="167.38,261.968 
		230.724,156.86 253.403,165.742 280.066,137.579 296.022,130.66 324.93,119.58 347.608,130.283 408.667,93.025 	"/>
	<rect x="431" y="231" display="inline" fill="#7C4DFF" width="10" height="30.968"/>
	<rect x="448" y="189.587" display="inline" fill="#FF6E40" width="10" height="72.381"/>
	<rect x="465.433" y="155.773" display="inline" fill="#1DE9B6" width="10" height="106.194"/>
	<polyline display="inline" fill="none" stroke="#7C4DFF" stroke-width="2" stroke-miterlimit="10" points="403.434,197.024 
		337.141,208.871 263.871,236.128 173.809,259.75 	"/>
	<circle display="inline" fill="#1DE9B6" cx="171.332" cy="259.75" r="9"/>
	<circle display="inline" fill="#FFFF8D" cx="550.765" cy="210.441" r="62.838"/>
	<path display="inline" fill="#B9F6CA" d="M613.545,207.705l-62.779,2.736l40.838,47.736c13.33-11.413,21.846-28.304,21.998-47.229
		C613.61,209.861,613.591,208.78,613.545,207.705z"/>
	<path display="inline" fill="#80D8FF" d="M490.264,227.41c7.355,26.268,31.351,45.636,59.994,45.867
		c17.382,0.141,33.17-6.791,44.639-18.105l-44.131-44.73L490.264,227.41z"/>
	<path display="inline" fill="#FF6E40" d="M550.766,210.441l62.813-0.87c-0.353-26.081-16.61-48.367-39.58-57.514L550.766,210.441z"
		/>
	
		<line display="inline" fill="#FAFAFA" stroke="#CFD8DC" stroke-width="2" stroke-miterlimit="10" x1="171.332" y1="259.75" x2="405" y2="259.75"/>
</g>
<path fill="#FAFAFA" stroke="#78909C" stroke-width="2" stroke-miterlimit="10" d="M289.096,258.807
	c0,2.422-1.939,4.386-4.332,4.386h-161.76c-2.39,0-4.33-1.964-4.33-4.386V41.19c0-2.423,1.94-4.384,4.33-4.384h161.76
	c2.393,0,4.332,1.961,4.332,4.384V258.807z"/>
<path fill="#1DE9B6" d="M119.65,160.331c0-30.092,0-120.369,0-120.369c0-1.34,1.918-2.425,4.28-2.425h159.906
	c2.365,0,4.283,1.085,4.283,2.425c0,0,0,90.276,0,120.369H119.65z"/>
<path fill="none" stroke="#78909C" stroke-width="2" stroke-miterlimit="10" d="M136.106,208h97.052"/>
<path fill="none" stroke="#78909C" stroke-width="2" stroke-miterlimit="10" d="M137.202,221h42.052"/>
<path fill="#80D8FF" d="M265.57,188.666H136.106v-12.229H265.57V188.666z"/>
<path fill="#80D8FF" d="M179.254,246h-42.052v-9h42.052V246z"/>
<path fill="#3B5998" d="M385.333,21.439c17.506,0,31.695,14.192,31.695,31.697c0,17.507-14.189,31.697-31.695,31.697
	c-17.508,0-31.698-14.19-31.698-31.697C353.635,35.631,367.825,21.439,385.333,21.439L385.333,21.439z"/>
<path fill="#3B5998" d="M385.347,16.736"/>
<path fill="#FFFFFF" d="M388.885,41.69h4.222v-6.236h-4.964v0.022c-6.013,0.213-7.244,3.593-7.354,7.144h-0.013v3.114h-4.094v6.108
	h4.094v16.37h6.172v-16.37h5.055l0.977-6.108h-6.029v-1.88C386.949,42.652,387.748,41.69,388.885,41.69L388.885,41.69z"/>
<path fill="#FFFFFF" d="M390.396,39.292"/>
<path fill="none" stroke="#3B5998" stroke-width="3" stroke-miterlimit="10" d="M385.345,100.642v52.379h-79.347"/>
<path fill="none" stroke="#78909C" stroke-width="2" stroke-miterlimit="10" d="M305.998,196.027h79.347L384.895,237"/>
<path fill="#55ACEE" d="M527.646,94.695c0,18.94-15.355,34.295-34.295,34.295s-34.295-15.355-34.295-34.295
	c0-18.939,15.355-34.294,34.295-34.294S527.646,75.756,527.646,94.695L527.646,94.695z"/>
<path fill="#55ACEE" d="M540.016,93.695"/>
<path fill="#F1F2F2" d="M515.813,85.296c-1.421,0.629-2.952,1.057-4.555,1.248c1.638-0.982,2.894-2.536,3.489-4.387
	c-1.534,0.907-3.232,1.568-5.038,1.923c-1.446-1.542-3.509-2.504-5.791-2.504c-4.381,0-7.931,3.553-7.931,7.931
	c0,0.621,0.069,1.228,0.205,1.808c-6.592-0.332-12.438-3.489-16.348-8.29c-0.685,1.173-1.075,2.536-1.075,3.989
	c0,2.753,1.401,5.182,3.527,6.603c-1.3-0.041-2.521-0.399-3.594-0.994c0,0.035,0,0.066,0,0.101c0,3.841,2.735,7.047,6.363,7.775
	c-0.664,0.182-1.366,0.281-2.088,0.281c-0.512,0-1.009-0.05-1.494-0.142c1.012,3.151,3.94,5.444,7.412,5.508
	c-2.715,2.129-6.135,3.394-9.853,3.394c-0.641,0-1.273-0.035-1.892-0.11c3.51,2.25,7.677,3.564,12.157,3.564
	c14.589,0,22.569-12.087,22.569-22.569c0-0.344-0.009-0.685-0.023-1.025C513.406,88.282,514.75,86.884,515.813,85.296
	L515.813,85.296z"/>
<path fill="#F1F2F2" d="M522.625,81.07"/>
<path fill="none" stroke="#55ACEE" stroke-width="3" stroke-miterlimit="10" d="M458.665,131.33l-31.839,34H305.998"/>
<path fill="none" stroke="#DC4E41" stroke-width="3" stroke-miterlimit="10" d="M305.998,182.438h120.828l28.505,25.779"/>
<path fill="#DC4E41" d="M530.776,224.027c0,18.94-15.354,34.295-34.295,34.295c-18.939,0-34.294-15.354-34.294-34.295
	c0-18.939,15.354-34.294,34.294-34.294C515.422,189.733,530.776,205.088,530.776,224.027L530.776,224.027z"/>
<path fill="#78909C" stroke="#78909C" stroke-width="2" stroke-miterlimit="10" d="M421.188,281.563
	c0,18.94-15.355,34.295-34.295,34.295s-34.295-15.354-34.295-34.295c0-18.939,15.355-34.294,34.295-34.294
	S421.188,262.623,421.188,281.563L421.188,281.563z"/>
<path fill="#DC4E41" d="M541.361,209.209"/>
<path fill="#DC4E41" d="M514.898,219.681c-0.013,1.41-0.028,2.823-0.034,4.23c-1.416,0.013-2.823,0.021-4.23,0.028v4.214
	c1.407,0.007,2.823,0.013,4.23,0.028c0.013,1.407,0.013,2.814,0.028,4.23c1.4,0,2.808-0.01,4.214,0
	c0.007-1.416,0.013-2.823,0.028-4.236c1.407-0.007,2.82-0.016,4.228-0.022v-4.214c-1.407-0.007-2.82-0.013-4.228-0.028
	c-0.01-1.407-0.021-2.82-0.028-4.228C517.7,219.681,516.299,219.681,514.898,219.681L514.898,219.681z M514.898,219.681"/>
<path fill="#FFFFFF" d="M476.756,226.046c-0.291-7.638,6.399-14.694,14.044-14.785c3.896-0.331,7.685,1.183,10.636,3.649
	c-1.21,1.328-2.441,2.645-3.755,3.873c-2.598-1.575-5.721-2.779-8.757-1.71c-4.893,1.392-7.856,7.169-6.044,11.956
	c1.498,5.002,7.579,7.744,12.347,5.643c2.467-0.881,4.093-3.157,4.809-5.605c-2.829-0.057-5.659-0.021-8.485-0.1
	c-0.009-1.683-0.016-3.358-0.009-5.04c4.718-0.01,9.441-0.022,14.166,0.019c0.287,4.124-0.319,8.535-3.002,11.847
	c-3.667,4.724-10.448,6.109-15.967,4.255C480.886,238.124,476.627,232.228,476.756,226.046L476.756,226.046z"/>
<path fill="#FFFFFF" d="M474.229,211.217"/>
<path fill="#FFFFFF" d="M514.898,219.681h4.208c0.007,1.41,0.019,2.823,0.028,4.23c1.407,0.013,2.82,0.021,4.228,0.028v4.214
	c-1.407,0.007-2.82,0.013-4.228,0.022c-0.016,1.413-0.021,2.82-0.028,4.232c-1.406-0.006-2.816,0-4.214,0
	c-0.016-1.412-0.016-2.819-0.028-4.227c-1.407-0.016-2.823-0.021-4.23-0.028v-4.214c1.407-0.01,2.814-0.016,4.23-0.028
	C514.87,222.504,514.883,221.091,514.898,219.681L514.898,219.681z"/>
<path fill="#FFFFFF" d="M528.414,231.792"/>
<path fill="#FFFFFF" d="M403.769,304h-33.75v-43.5h33.75V304z"/>
<line fill="none" stroke="#B5B5B5" stroke-miterlimit="10" x1="370.019" y1="268" x2="403.769" y2="268"/>
<path fill="none" stroke="#B5B5B5" stroke-miterlimit="10" d="M376.907,273.5h16.875"/>
<path fill="none" stroke="#B5B5B5" stroke-miterlimit="10" d="M376.907,277.5h16.875"/>
<path fill="none" stroke="#B5B5B5" stroke-miterlimit="10" d="M376.907,282.25h16.875"/>
<path fill="none" stroke="#B5B5B5" stroke-miterlimit="10" d="M376.907,295.75h16.875"/>
</svg>
