<svg version="1.1" id="Layer_1" xmlns="http://www.w3.org/2000/svg" xmlns:xlink="http://www.w3.org/1999/xlink" x="0px" y="0px"
	 width="650px" height="350px" viewBox="0 0 650 350" style="enable-background:new 0 0 650 350;" xml:space="preserve">
<style type="text/css">
<![CDATA[
	.st13, .st11{
		stroke-dasharray: 1500;
		stroke-dashoffset: 0;
		-webkit-animation: lines 4s linear forwards;
		animation: lines 4s linear forwards;

	}

	.rotate{
		-webkit-animation: rotation 4s reverse linear;
		-moz-animation: rotation 4s reverse linear;
		-o-animation: rotation 4s reverse linear;
		animation: rotation 4s  reverse linear;
    transform-origin: 50% 50%;
    -webkit-transform-origin: 50% 50%;
    -moz-transform-origin: 50% 50%;
	}

	.st6{
		stroke-dasharray: 50;
		stroke-dashoffset: 0;
		-webkit-animation: dash 4s linear forwards;
		animation: dash 4s linear forwards;
	}

	.st5{
		stroke-dasharray: 800;
		stroke-dashoffset: 0;
		-webkit-animation: shades 4s linear forwards;
		animation: shades 4s linear forwards;
	}

	.st7{
		-webkit-animation: code 6s linear forwards;
		animation: code 6s linear forwards;
	}

	.st1, .st10, .st14, .st18, .st15{
		animation-delay: 1s;
		-webkit-animation-delay:1s;
		-webkit-animation: dots 4s ease-in forwards;
		animation: dots 4s ease-in forwards;

	}

	.st9, .st2{
		stroke-dasharray: 800;
		stroke-dashoffset: 0;
		-webkit-animation: lines 4s linear forwards;
		animation: lines 4s linear forwards;
	}


	@-webkit-keyframes lines {
    from {stroke-dashoffset: 800}
    to   {stroke-dashoffset: 0}
	}


	@-webkit-keyframes dots {
    from {opacity:0;}
    to   {opacity:1;}
	}


	@-webkit-keyframes dots {
    from {opacity:0;}
    to   {opacity:1;}
	}


	@-webkit-keyframes rotation {
    from {-webkit-transform: rotate(0deg);}
    to   {-webkit-transform: rotate(200deg);}
	}

	@-webkit-keyframes circle{
		0%{stroke-dashoffset: 800;}
		100%{ stroke-dashoffset: 0; fill: #1DE9B6;}

	}

	@-webkit-keyframes lines{
		0%{ stroke-dashoffset: 1500;}
		100%{stroke-dashoffset: 0;}

	}

	@-webkit-keyframes revline{
		0%{stroke-dashoffset: 100;}
		100%{stroke-dashoffset: 0;}
	}

	@-webkit-keyframes forline{
		0%{stroke-dashoffset: 1500;}
		100%{stroke-dashoffset: 0;}
	}

	@-webkit-keyframes dash{
		0%{stroke-dashoffset: 50;}
		100%{stroke-dashoffset: 0;}
	}

	@-webkit-keyframes shades{
		0%{stroke-dashoffset: 800;fill:transparent;}
		100%{stroke-dashoffset: 0;fill:#78909C;}
	}

	@-webkit-keyframes code{
		0%{opacity:0;}
		100%{opacity:1;}
	}
	.st0{fill:none;stroke:#FFFFFF;stroke-width:2;stroke-miterlimit:10;}
	.st1{fill:#EEEEEE;}
	.st2{fill:#EEEEEE;stroke:#1DE9B6;stroke-width:2;stroke-miterlimit:10;}
	.st3{fill:none;stroke:#F5F5F5;stroke-width:2;stroke-miterlimit:10;}
	.st4{fill:#EEEEEE;stroke:#FFFFFF;stroke-width:2;stroke-miterlimit:10;}
	.st5{fill:#78909C;stroke:#78909C;stroke-width:2;stroke-miterlimit:10;}
	.st6{fill:none;stroke:#BDBDBD;stroke-width:2;stroke-miterlimit:10;stroke-dasharray:10,7;}
	.st7{fill:#FFFFFF;}
	.st8{fill:#1DE9B6;stroke:#1DE9B6;stroke-width:2;stroke-miterlimit:10;}
	.st9{fill:#EEEEEE;stroke:#C4C4C4;stroke-width:2;stroke-miterlimit:10;}
	.st10{fill:#02A8F3;stroke:#02A8F3;stroke-width:2;stroke-miterlimit:10;}
	.st11{fill:#FFFFFF;stroke:#78909C;stroke-width:2;stroke-miterlimit:10;}
	.st12{fill:none;stroke:#FFFFFF;stroke-width:4;stroke-miterlimit:10;}
	.st13{fill:#FAFAFA;stroke:#78909C;stroke-width:2;stroke-miterlimit:10;}
	.st14{fill:#FF8A80;stroke:#FF8A80;stroke-miterlimit:10;}
	.st15{fill:#78909C;stroke:#78909C;stroke-width:0.5;stroke-miterlimit:10;}
	.st16{fill:#78909C;}
	.st17{fill:#DBDBDB;}
	.st18{fill:#FDD835;stroke:#FDD835;stroke-miterlimit:10;}
]]>
</style>
<g id="deployment">
	<path class="st13" d="M614.041,300.947c0,3.254-2.637,5.893-5.891,5.893H370.139c-3.252,0-5.891-2.639-5.891-5.893V32.295
		c0-3.254,2.639-5.892,5.891-5.892H608.15c3.254,0,5.891,2.638,5.891,5.892V300.947z"/>
	<circle class="st10" cx="402.243" cy="94.99" r="10.897"/>
	<path class="st1" d="M586.941,126.119c0,1.3-1.055,2.357-2.355,2.357H431.408c-1.303,0-2.357-1.057-2.357-2.357V98.236
		l-5.248-3.585l5.248-3.607v-5.772c0-1.301,1.055-2.356,2.357-2.356h153.178c1.301,0,2.355,1.055,2.355,2.356V126.119z"/>
	<line class="st2" x1="438.09" y1="112.177" x2="474.617" y2="112.177"/>
	<line class="st9" x1="438.09" y1="94.99" x2="474.617" y2="94.99"/>
	<line class="st9" x1="438.09" y1="103.584" x2="517.035" y2="103.584"/>
	<path class="st10" d="M580.662,120.699c0,1.303-1.055,2.356-2.355,2.356h-17.086c-1.301,0-2.355-1.054-2.355-2.356v-0.274
		c0-1.3,1.055-2.356,2.355-2.356h17.086c1.301,0,2.355,1.056,2.355,2.356V120.699z"/>
	<polyline class="st0" points="397.145,95.984 400.459,99.299 409.074,90.682 	"/>
	<line class="st3" x1="402.244" y1="107.119" x2="402.244" y2="229.859"/>
	<circle class="st10" cx="402.243" cy="168.461" r="10.897"/>
	<path class="st1" d="M586.941,199.59c0,1.303-1.055,2.355-2.355,2.355H431.408c-1.303,0-2.357-1.053-2.357-2.355v-27.884
		l-5.248-3.585l5.248-3.606v-5.772c0-1.301,1.055-2.356,2.357-2.356h153.178c1.301,0,2.355,1.055,2.355,2.356V199.59z"/>
	<line class="st2" x1="438.09" y1="185.65" x2="474.617" y2="185.65"/>
	<line class="st9" x1="438.09" y1="168.461" x2="474.617" y2="168.461"/>
	<line class="st9" x1="438.09" y1="177.055" x2="517.035" y2="177.055"/>
	<path class="st10" d="M580.662,194.172c0,1.301-1.055,2.357-2.355,2.357h-17.086c-1.301,0-2.355-1.057-2.355-2.357v-0.273
		c0-1.303,1.055-2.357,2.355-2.357h17.086c1.301,0,2.355,1.055,2.355,2.357V194.172z"/>
	<polyline class="st0" points="397.145,169.456 400.459,172.77 409.074,164.154 	"/>
	<circle class="st14" cx="402.243" cy="241.934" r="10.897"/>
	<path class="st1" d="M586.941,273.063c0,1.301-1.055,2.355-2.355,2.355H431.408c-1.303,0-2.357-1.055-2.357-2.355V245.18
		l-5.248-3.586l5.248-3.607v-5.771c0-1.303,1.055-2.355,2.357-2.355h153.178c1.301,0,2.355,1.053,2.355,2.355V273.063z"/>
	<line class="st2" x1="438.09" y1="259.121" x2="474.617" y2="259.121"/>
	<line class="st9" x1="438.09" y1="241.934" x2="474.617" y2="241.934"/>
	<line class="st9" x1="438.09" y1="250.527" x2="517.035" y2="250.527"/>
	<path class="st10" d="M580.662,267.643c0,1.303-1.055,2.355-2.355,2.355h-17.086c-1.301,0-2.355-1.053-2.355-2.355v-0.273
		c0-1.301,1.055-2.357,2.355-2.357h17.086c1.301,0,2.355,1.057,2.355,2.357V267.643z"/>
	<path class="st4" d="M409.074,237.627"/>
	<g>
		<path class="st7" d="M400.041,237.125l1.324,1.975c0.346,0.535,0.633,0.996,0.939,1.514h0.057
			c0.307-0.539,0.613-1.018,0.939-1.514l1.285-1.975h1.84l-3.164,4.484l3.24,4.795h-1.916l-1.361-2.094
			c-0.365-0.535-0.672-1.051-0.998-1.607h-0.037c-0.307,0.557-0.633,1.053-0.979,1.607l-1.342,2.094h-1.859l3.297-4.734
			l-3.143-4.545H400.041z"/>
	</g>
	<circle class="st14" cx="379.96" cy="43.688" r="4.714"/>
	<circle class="st18" cx="397.145" cy="43.688" r="4.713"/>
	<circle class="st15" cx="414.319" cy="43.688" r="4.714"/>
	<line class="st13" x1="364.248" y1="60.577" x2="614.041" y2="60.577"/>
	<path class="st11" d="M273.246,269.063c0,2.539-2.06,4.6-4.6,4.6H34.111c-2.54,0-4.599-2.061-4.599-4.6V109.946
		c0-2.54,2.059-4.6,4.599-4.6h234.535c2.54,0,4.6,2.06,4.6,4.6V269.063z"/>
	<rect x="29.513" y="122.516" class="st5" width="243.733" height="126.787"/>
	<rect x="118.729" y="273.662" class="st11" width="65.3" height="9.811"/>
	<polyline class="st6" points="277.967,245.008 317.371,245.008 317.371,93.312 364.248,93.312 	"/>
	<g class="rotate">
	<circle class="st8" cx="318.247" cy="176.82" r="36.536"/>
	<path class="st12" d="M334.121,192.805c7.268-7.277,8.711-18.886,2.857-27.837c-6.063-9.279-17.881-12.528-27.68-8.119l6.437,4.001
		"/>
	<path class="st12" d="M324.754,202.354l2.277-4.77c-9.708,4.115-21.267,0.824-27.24-8.313c-5.842-8.939-4.413-20.529,2.83-27.809"
		/>
	</g>
	<g>
		<path class="st7" d="M50.582,149.259l-3.663,1.87v-0.544l3.11-1.54v-0.015l-3.11-1.547v-0.544l3.663,1.879V149.259z"/>
	</g>
	<circle class="st16" cx="257.653" cy="261.424" r="3.48"/>
	<g>
		<path class="st7" d="M58.069,150.088c0,0.395,0.008,0.741,0.032,1.041h-0.616l-0.04-0.623H57.43
			c-0.174,0.307-0.584,0.71-1.263,0.71c-0.6,0-1.318-0.338-1.318-1.673v-2.234h0.695v2.108c0,0.727,0.228,1.223,0.853,1.223
			c0.465,0,0.79-0.323,0.916-0.639c0.04-0.095,0.063-0.222,0.063-0.355v-2.337h0.694V150.088z"/>
		<path class="st7" d="M59.224,148.556c0-0.489-0.008-0.883-0.031-1.247h0.623l0.04,0.656h0.016c0.277-0.474,0.734-0.742,1.35-0.742
			c0.932,0,1.626,0.781,1.626,1.941c0,1.375-0.845,2.053-1.736,2.053c-0.513,0-0.948-0.221-1.177-0.6h-0.015v2.076h-0.695V148.556z
			 M59.919,149.574c0,0.094,0.008,0.198,0.031,0.284c0.118,0.481,0.545,0.813,1.034,0.813c0.734,0,1.16-0.6,1.16-1.476
			c0-0.767-0.395-1.421-1.128-1.421c-0.474,0-0.924,0.332-1.058,0.853c-0.016,0.095-0.039,0.197-0.039,0.285V149.574z"/>
		<path class="st7" d="M67.026,145.525v4.619c0,0.34,0.007,0.725,0.031,0.985h-0.623l-0.032-0.662h-0.016
			c-0.213,0.426-0.671,0.749-1.294,0.749c-0.924,0-1.642-0.781-1.642-1.942c-0.008-1.278,0.789-2.052,1.713-2.052
			c0.592,0,0.987,0.276,1.153,0.577h0.016v-2.274H67.026z M66.332,148.864c0-0.096-0.008-0.206-0.032-0.3
			c-0.103-0.434-0.481-0.797-1.002-0.797c-0.718,0-1.145,0.631-1.145,1.468c0,0.782,0.387,1.421,1.129,1.421
			c0.466,0,0.893-0.316,1.019-0.829c0.023-0.095,0.032-0.189,0.032-0.3V148.864z"/>
		<path class="st7" d="M70.873,150.214c0,0.332,0.016,0.655,0.055,0.915h-0.624l-0.063-0.48h-0.023
			c-0.205,0.299-0.624,0.567-1.168,0.567c-0.774,0-1.168-0.544-1.168-1.098c0-0.923,0.821-1.428,2.297-1.42v-0.08
			c0-0.315-0.087-0.892-0.868-0.884c-0.363,0-0.734,0.103-1.002,0.284l-0.158-0.466c0.316-0.198,0.782-0.332,1.264-0.332
			c1.176,0,1.46,0.797,1.46,1.563V150.214z M70.194,149.18c-0.758-0.016-1.619,0.118-1.619,0.86c0,0.458,0.3,0.664,0.647,0.664
			c0.505,0,0.829-0.316,0.939-0.641c0.023-0.07,0.032-0.149,0.032-0.221V149.18z"/>
		<path class="st7" d="M72.793,146.394v0.915h0.995v0.529h-0.995v2.06c0,0.474,0.134,0.742,0.521,0.742
			c0.189,0,0.299-0.016,0.402-0.046l0.032,0.528c-0.135,0.047-0.348,0.095-0.616,0.095c-0.324,0-0.584-0.11-0.75-0.292
			c-0.189-0.213-0.269-0.552-0.269-1.002v-2.084h-0.592v-0.529h0.592v-0.702L72.793,146.394z"/>
		<path class="st7" d="M74.902,146.606c-0.261,0-0.434-0.206-0.434-0.45c0-0.245,0.181-0.442,0.45-0.442
			c0.268,0,0.442,0.197,0.442,0.442c0,0.244-0.174,0.45-0.45,0.45H74.902z M74.571,151.129v-3.82h0.694v3.82H74.571z"/>
		<path class="st7" d="M76.419,148.343c0-0.402-0.008-0.718-0.031-1.034h0.616l0.039,0.624h0.016c0.189-0.354,0.632-0.71,1.263-0.71
			c0.529,0,1.35,0.315,1.35,1.626v2.281h-0.694v-2.202c0-0.615-0.229-1.137-0.884-1.137c-0.45,0-0.805,0.323-0.931,0.71
			c-0.032,0.087-0.047,0.213-0.047,0.323v2.305h-0.695V148.343z"/>
		<path class="st7" d="M84.071,150.568c0,0.885-0.182,1.414-0.545,1.753c-0.378,0.34-0.916,0.458-1.397,0.458
			c-0.458,0-0.963-0.11-1.271-0.316l0.173-0.536c0.252,0.166,0.647,0.307,1.121,0.307c0.711,0,1.231-0.372,1.231-1.341v-0.419
			h-0.016c-0.206,0.355-0.624,0.64-1.216,0.64c-0.947,0-1.626-0.806-1.626-1.87c0-1.296,0.845-2.022,1.729-2.022
			c0.663,0,1.018,0.339,1.192,0.655h0.016l0.023-0.568h0.616c-0.024,0.269-0.032,0.576-0.032,1.042V150.568z M83.375,148.809
			c0-0.11-0.007-0.214-0.039-0.309c-0.126-0.411-0.458-0.742-0.971-0.742c-0.663,0-1.137,0.561-1.137,1.454
			c0,0.741,0.387,1.373,1.129,1.373c0.434,0,0.82-0.268,0.963-0.718c0.039-0.11,0.054-0.244,0.054-0.372V148.809z"/>
		<path class="st7" d="M85.352,151.216c-0.269,0-0.458-0.213-0.458-0.497s0.197-0.497,0.474-0.497c0.276,0,0.465,0.205,0.465,0.497
			c0,0.284-0.189,0.497-0.474,0.497H85.352z"/>
		<path class="st7" d="M86.986,151.216c-0.268,0-0.458-0.213-0.458-0.497s0.198-0.497,0.474-0.497s0.466,0.205,0.466,0.497
			c0,0.284-0.189,0.497-0.474,0.497H86.986z"/>
		<path class="st7" d="M88.622,151.216c-0.268,0-0.458-0.213-0.458-0.497s0.197-0.497,0.474-0.497c0.277,0,0.466,0.205,0.466,0.497
			c0,0.284-0.189,0.497-0.474,0.497H88.622z"/>
		<path class="st7" d="M90.257,151.216c-0.269,0-0.458-0.213-0.458-0.497s0.197-0.497,0.474-0.497c0.276,0,0.465,0.205,0.465,0.497
			c0,0.284-0.189,0.497-0.474,0.497H90.257z"/>
	</g>
	<g>
		<path class="st7" d="M50.582,160.668l-3.663,1.871v-0.545l3.11-1.538v-0.016l-3.11-1.548v-0.545l3.663,1.88V160.668z"/>
	</g>
	<g>
		<path class="st17" d="M58.069,161.496c0,0.395,0.008,0.742,0.032,1.042h-0.616l-0.04-0.624H57.43
			c-0.174,0.307-0.584,0.71-1.263,0.71c-0.6,0-1.318-0.339-1.318-1.673v-2.235h0.695v2.108c0,0.726,0.228,1.223,0.853,1.223
			c0.465,0,0.79-0.324,0.916-0.639c0.04-0.096,0.063-0.221,0.063-0.356v-2.337h0.694V161.496z"/>
		<path class="st17" d="M59.224,159.965c0-0.489-0.008-0.884-0.031-1.248h0.623l0.04,0.656h0.016
			c0.277-0.474,0.734-0.742,1.35-0.742c0.932,0,1.626,0.781,1.626,1.941c0,1.374-0.845,2.053-1.736,2.053
			c-0.513,0-0.948-0.221-1.177-0.6h-0.015v2.076h-0.695V159.965z M59.919,160.983c0,0.096,0.008,0.198,0.031,0.284
			c0.118,0.482,0.545,0.814,1.034,0.814c0.734,0,1.16-0.601,1.16-1.477c0-0.765-0.395-1.421-1.128-1.421
			c-0.474,0-0.924,0.331-1.058,0.853c-0.016,0.094-0.039,0.198-0.039,0.284V160.983z"/>
		<path class="st17" d="M63.719,156.934h0.695v5.604h-0.695V156.934z"/>
		<path class="st17" d="M67.122,162.625c-1.026,0-1.832-0.757-1.832-1.965c0-1.278,0.845-2.028,1.894-2.028
			c1.098,0,1.839,0.797,1.839,1.957c0,1.421-0.987,2.037-1.895,2.037H67.122z M67.146,162.104c0.663,0,1.161-0.624,1.161-1.491
			c0-0.648-0.324-1.46-1.145-1.46c-0.813,0-1.168,0.757-1.168,1.483c0,0.837,0.474,1.468,1.144,1.468H67.146z"/>
		<path class="st17" d="M72.594,161.623c0,0.331,0.016,0.655,0.056,0.916h-0.625l-0.063-0.482h-0.024
			c-0.205,0.3-0.623,0.568-1.168,0.568c-0.773,0-1.168-0.544-1.168-1.097c0-0.924,0.821-1.429,2.297-1.421v-0.08
			c0-0.315-0.087-0.892-0.868-0.883c-0.363,0-0.734,0.102-1.003,0.284l-0.157-0.466c0.315-0.197,0.781-0.331,1.263-0.331
			c1.177,0,1.46,0.797,1.46,1.563V161.623z M71.916,160.588c-0.758-0.016-1.618,0.119-1.618,0.861c0,0.458,0.3,0.663,0.647,0.663
			c0.505,0,0.829-0.315,0.939-0.639c0.024-0.071,0.032-0.15,0.032-0.222V160.588z"/>
		<path class="st17" d="M77.01,156.934v4.618c0,0.339,0.008,0.726,0.031,0.987h-0.624l-0.032-0.664h-0.015
			c-0.214,0.427-0.671,0.75-1.295,0.75c-0.923,0-1.642-0.781-1.642-1.941c-0.007-1.28,0.79-2.053,1.713-2.053
			c0.592,0,0.987,0.276,1.153,0.576h0.016v-2.273H77.01z M76.315,160.273c0-0.095-0.008-0.206-0.031-0.3
			c-0.103-0.434-0.482-0.797-1.003-0.797c-0.718,0-1.145,0.632-1.145,1.468c0,0.781,0.387,1.421,1.129,1.421
			c0.465,0,0.892-0.315,1.019-0.829c0.023-0.096,0.031-0.19,0.031-0.3V160.273z"/>
		<path class="st17" d="M78.496,158.016c-0.26,0-0.434-0.205-0.434-0.45s0.182-0.443,0.45-0.443c0.269,0,0.442,0.198,0.442,0.443
			s-0.174,0.45-0.45,0.45H78.496z M78.165,162.539v-3.821h0.694v3.821H78.165z"/>
		<path class="st17" d="M80.013,159.752c0-0.403-0.008-0.718-0.031-1.035h0.615l0.039,0.624h0.016
			c0.189-0.354,0.632-0.71,1.264-0.71c0.528,0,1.35,0.315,1.35,1.625v2.282H82.57v-2.202c0-0.616-0.229-1.137-0.884-1.137
			c-0.45,0-0.805,0.323-0.932,0.71c-0.031,0.087-0.047,0.213-0.047,0.324v2.305h-0.695V159.752z"/>
		<path class="st17" d="M87.664,161.979c0,0.884-0.181,1.412-0.544,1.751c-0.379,0.339-0.916,0.459-1.397,0.459
			c-0.458,0-0.963-0.11-1.271-0.316l0.174-0.538c0.252,0.166,0.647,0.309,1.121,0.309c0.71,0,1.232-0.371,1.232-1.342v-0.419h-0.016
			c-0.206,0.355-0.624,0.64-1.216,0.64c-0.947,0-1.626-0.806-1.626-1.871c0-1.294,0.845-2.021,1.729-2.021
			c0.663,0,1.019,0.339,1.191,0.654h0.016l0.023-0.568h0.616c-0.023,0.27-0.032,0.577-0.032,1.042V161.979z M86.97,160.218
			c0-0.11-0.008-0.213-0.039-0.308c-0.126-0.41-0.458-0.742-0.972-0.742c-0.663,0-1.136,0.56-1.136,1.453
			c0,0.741,0.387,1.373,1.129,1.373c0.434,0,0.821-0.268,0.963-0.718c0.039-0.11,0.055-0.245,0.055-0.371V160.218z"/>
		<path class="st17" d="M91.322,157.803v0.915h0.995v0.529h-0.995v2.06c0,0.474,0.134,0.742,0.521,0.742
			c0.189,0,0.299-0.015,0.402-0.047l0.032,0.529c-0.135,0.047-0.348,0.094-0.616,0.094c-0.323,0-0.584-0.11-0.75-0.292
			c-0.189-0.213-0.269-0.552-0.269-1.002v-2.084h-0.592v-0.529h0.592v-0.702L91.322,157.803z"/>
		<path class="st17" d="M94.608,162.625c-1.026,0-1.831-0.757-1.831-1.965c0-1.278,0.844-2.028,1.895-2.028
			c1.097,0,1.839,0.797,1.839,1.957c0,1.421-0.986,2.037-1.895,2.037H94.608z M94.632,162.104c0.663,0,1.16-0.624,1.16-1.491
			c0-0.648-0.324-1.46-1.144-1.46c-0.814,0-1.169,0.757-1.169,1.483c0,0.837,0.474,1.468,1.145,1.468H94.632z"/>
		<path class="st17" d="M99.071,159.91c0-0.45-0.008-0.837-0.031-1.192h0.608l0.031,0.75h0.024c0.173-0.513,0.6-0.836,1.065-0.836
			c0.071,0,0.126,0.008,0.189,0.024v0.646c-0.079-0.008-0.15-0.016-0.245-0.016c-0.49,0-0.837,0.372-0.932,0.885
			c-0.015,0.102-0.023,0.213-0.023,0.331v2.037h-0.695L99.071,159.91z"/>
		<path class="st17" d="M101.993,160.746c0.016,0.94,0.608,1.327,1.302,1.327c0.497,0,0.806-0.087,1.058-0.19l0.126,0.49
			c-0.244,0.11-0.671,0.244-1.279,0.244c-1.168,0-1.878-0.781-1.878-1.926c0-1.16,0.687-2.068,1.8-2.068
			c1.247,0,1.57,1.098,1.57,1.8c0,0.143-0.008,0.253-0.023,0.331L101.993,160.746z M104.022,160.249
			c0.007-0.434-0.182-1.129-0.955-1.129c-0.711,0-1.011,0.648-1.066,1.129H104.022z"/>
		<path class="st17" d="M105.556,159.965c0-0.489-0.008-0.884-0.031-1.248h0.623l0.04,0.656h0.016
			c0.277-0.474,0.734-0.742,1.351-0.742c0.931,0,1.626,0.781,1.626,1.941c0,1.374-0.845,2.053-1.737,2.053
			c-0.513,0-0.947-0.221-1.176-0.6h-0.016v2.076h-0.695V159.965z M106.25,160.983c0,0.096,0.007,0.198,0.032,0.284
			c0.118,0.482,0.545,0.814,1.034,0.814c0.734,0,1.161-0.601,1.161-1.477c0-0.765-0.395-1.421-1.129-1.421
			c-0.474,0-0.923,0.331-1.058,0.853c-0.016,0.094-0.039,0.198-0.039,0.284V160.983z"/>
		<path class="st17" d="M111.613,162.625c-1.026,0-1.832-0.757-1.832-1.965c0-1.278,0.845-2.028,1.895-2.028
			c1.098,0,1.839,0.797,1.839,1.957c0,1.421-0.987,2.037-1.895,2.037H111.613z M111.636,162.104c0.664,0,1.161-0.624,1.161-1.491
			c0-0.648-0.324-1.46-1.145-1.46c-0.813,0-1.169,0.757-1.169,1.483c0,0.837,0.474,1.468,1.145,1.468H111.636z"/>
		<path class="st17" d="M114.299,161.836c0.213,0.126,0.577,0.268,0.924,0.268c0.497,0,0.733-0.244,0.733-0.568
			c0-0.332-0.197-0.514-0.703-0.702c-0.694-0.253-1.018-0.624-1.018-1.082c0-0.616,0.505-1.121,1.318-1.121
			c0.387,0,0.726,0.102,0.932,0.237l-0.166,0.497c-0.15-0.087-0.426-0.221-0.781-0.221c-0.411,0-0.631,0.237-0.631,0.521
			c0,0.323,0.221,0.465,0.718,0.655c0.655,0.245,1.002,0.577,1.002,1.153c0,0.678-0.529,1.152-1.421,1.152
			c-0.418,0-0.805-0.11-1.073-0.268L114.299,161.836z"/>
		<path class="st17" d="M117.854,158.016c-0.261,0-0.435-0.205-0.435-0.45s0.182-0.443,0.45-0.443c0.269,0,0.442,0.198,0.442,0.443
			s-0.173,0.45-0.45,0.45H117.854z M117.521,162.539v-3.821h0.695v3.821H117.521z"/>
		<path class="st17" d="M120.207,157.803v0.915h0.995v0.529h-0.995v2.06c0,0.474,0.134,0.742,0.521,0.742
			c0.189,0,0.3-0.015,0.403-0.047l0.032,0.529c-0.134,0.047-0.348,0.094-0.616,0.094c-0.324,0-0.584-0.11-0.75-0.292
			c-0.189-0.213-0.269-0.552-0.269-1.002v-2.084h-0.592v-0.529h0.592v-0.702L120.207,157.803z"/>
		<path class="st17" d="M123.492,162.625c-1.026,0-1.832-0.757-1.832-1.965c0-1.278,0.845-2.028,1.895-2.028
			c1.098,0,1.839,0.797,1.839,1.957c0,1.421-0.986,2.037-1.895,2.037H123.492z M123.515,162.104c0.664,0,1.161-0.624,1.161-1.491
			c0-0.648-0.324-1.46-1.145-1.46c-0.813,0-1.168,0.757-1.168,1.483c0,0.837,0.474,1.468,1.145,1.468H123.515z"/>
		<path class="st17" d="M126.281,159.91c0-0.45-0.008-0.837-0.032-1.192h0.608l0.031,0.75h0.024c0.174-0.513,0.6-0.836,1.066-0.836
			c0.071,0,0.126,0.008,0.189,0.024v0.646c-0.08-0.008-0.15-0.016-0.245-0.016c-0.489,0-0.836,0.372-0.932,0.885
			c-0.016,0.102-0.023,0.213-0.023,0.331v2.037h-0.694L126.281,159.91z"/>
		<path class="st17" d="M129.297,158.717l0.829,2.258c0.095,0.253,0.189,0.553,0.252,0.781h0.016c0.071-0.228,0.15-0.52,0.245-0.796
			l0.758-2.243h0.734l-1.042,2.724c-0.498,1.311-0.837,1.981-1.311,2.399c-0.347,0.293-0.679,0.411-0.853,0.443l-0.174-0.583
			c0.174-0.048,0.403-0.159,0.608-0.339c0.189-0.151,0.418-0.42,0.584-0.774c0.031-0.071,0.055-0.119,0.055-0.166
			c0-0.041-0.016-0.096-0.055-0.174l-1.405-3.529H129.297z"/>
		<path class="st17" d="M132.67,162.625c-0.268,0-0.458-0.213-0.458-0.497s0.197-0.497,0.474-0.497c0.277,0,0.466,0.205,0.466,0.497
			c0,0.284-0.189,0.497-0.473,0.497H132.67z"/>
		<path class="st17" d="M134.305,162.625c-0.269,0-0.458-0.213-0.458-0.497s0.197-0.497,0.474-0.497s0.466,0.205,0.466,0.497
			c0,0.284-0.189,0.497-0.474,0.497H134.305z"/>
		<path class="st17" d="M135.939,162.625c-0.268,0-0.458-0.213-0.458-0.497s0.198-0.497,0.474-0.497s0.466,0.205,0.466,0.497
			c0,0.284-0.189,0.497-0.474,0.497H135.939z"/>
	</g>
</g>
</svg>
