<svg xmlns="http://www.w3.org/2000/svg" viewBox="0 0 512 512" width="512" height="512"><path d="M503.983 4.276H8.017C3.59 4.276 0 7.866 0 12.292V499.708c0 4.427 3.59 8.017 8.017 8.017h495.966c4.427 0 8.017-3.59 8.017-8.017V12.292c0-4.427-3.59-8.016-8.017-8.016zm-8.016 487.415H16.033V122.924h479.934V491.69zm0-384.8H16.033V20.31h479.934v86.58z" fill="#FFF"/><path d="M427.023 38.48H332.96c-4.427 0-8.017 3.59-8.017 8.017s3.59 8.017 8.017 8.017h94.063c4.427 0 8.017-3.59 8.017-8.017s-3.59-8.017-8.017-8.017zM469.78 38.48h-17.103c-4.427 0-8.017 3.59-8.017 8.017s3.59 8.017 8.017 8.017h17.102c4.426 0 8.016-3.59 8.016-8.017s-3.59-8.017-8.017-8.017zM264.55 29.93c-3.834 0-7.61.646-11.22 1.923-.01.003-.017.008-.026.01-13.412 4.754-22.423 17.504-22.423 31.737 0 14.232 9.012 26.982 22.423 31.737.01.003.016.008.025.01 3.61 1.277 7.387 1.925 11.222 1.925 18.566 0 33.67-15.105 33.67-33.67S283.117 29.93 264.55 29.93zm0 51.306c-2.01 0-3.987-.34-5.88-1.007 0 0 0-.002-.002-.002-7.03-2.488-11.754-9.17-11.754-16.63s4.723-14.14 11.755-16.628h.002c1.89-.67 3.87-1.008 5.88-1.008 9.725 0 17.637 7.912 17.637 17.637s-7.914 17.636-17.64 17.636zM170.49 29.93c-18.567 0-33.67 15.104-33.67 33.67s15.104 33.67 33.67 33.67 33.67-15.105 33.67-33.67-15.106-33.67-33.67-33.67zm0 51.306c-9.726 0-17.638-7.912-17.638-17.637s7.912-17.638 17.637-17.638 17.636 7.912 17.636 17.637-7.913 17.636-17.637 17.636zM76.426 29.93c-18.566 0-33.67 15.104-33.67 33.67s15.105 33.67 33.67 33.67 33.67-15.105 33.67-33.67-15.104-33.67-33.67-33.67zm0 51.306c-9.725 0-17.637-7.912-17.637-17.637S66.7 45.96 76.425 45.96 94.063 53.874 94.063 63.6 86.15 81.235 76.426 81.235zM480.454 214.537l-84.65-84.653c-3.132-3.13-8.208-3.13-11.34 0L330.5 183.85H72.15c-4.427 0-8.017 3.59-8.017 8.017s3.59 8.017 8.017 8.017h242.316L250.33 264.02l-56.65 56.65H72.15c-4.427 0-8.017 3.588-8.017 8.016s3.59 8.017 8.017 8.017h105.497L160.37 353.98l-.028.028-.014.014c-.025.025-.045.05-.07.077-.158.163-.313.33-.46.51-.055.064-.1.134-.153.2-.108.14-.216.28-.315.43-.065.097-.122.2-.183.3-.074.12-.15.242-.218.37-.07.127-.128.26-.19.39-.048.104-.1.206-.145.314-.067.162-.124.33-.18.495-.03.08-.06.16-.087.244-.064.212-.117.426-.162.642-.01.042-.022.08-.03.123l-.006.024-.005.03-19.862 99.315H72.15c-4.427 0-8.017 3.588-8.017 8.016 0 4.427 3.59 8.017 8.017 8.017H151.158c2.14 0 4.077-.843 5.514-2.208l35.04-7.008.014-.003.032-.006 60.415-12.083c.008 0 .016-.003.024-.004l.028-.004c.047-.01.09-.025.138-.035.21-.045.42-.095.625-.157.088-.027.17-.06.258-.09.16-.056.324-.11.482-.175.112-.047.22-.102.328-.153.126-.06.253-.115.377-.182.13-.07.253-.148.378-.223.097-.06.197-.114.29-.177.15-.1.29-.208.432-.316.066-.05.136-.097.2-.152.176-.144.342-.297.504-.455.027-.027.057-.048.082-.075l.016-.016.025-.026 5.31-5.31L371.97 334.36l48.015-48.016 60.465-60.465c3.132-3.137 3.132-8.213.002-11.343zM202.67 334.353s0-.002.002-.002l58.998-58.997 68-68 15.872 15.873L193.208 375.56l-15.873-15.873 25.334-25.334zm154.208-99.79l18.896 18.897-69.556 69.556-55.886 55.886-26.89 26.89-18.897-18.895 152.333-152.333zm-201.823 220.72l3.774-18.87 15.094 15.096-18.87 3.773zm37.764-7.552l-30.212-30.21 8.314-41.57 16.618 16.618 30.233 30.233 16.618 16.618-41.57 8.313zm167.817-124.714L250.65 433.002l-15.873-15.872 26.89-26.89 55.887-55.887 69.556-69.556 15.872 15.872-42.345 42.346zm53.683-53.684l-21.54-21.54-30.234-30.233-21.54-21.542 49.13-49.128 73.313 73.314-49.13 49.128z" fill="#FFF"/><path d="M394.21 169.096c-3.13-3.13-8.206-3.13-11.336 0l-19.24 19.24c-3.13 3.13-3.13 8.207 0 11.337 1.565 1.565 3.617 2.348 5.668 2.348s4.103-.78 5.668-2.347l19.24-19.24c3.132-3.13 3.132-8.208 0-11.337z" fill="#FFF"/></svg>