<?xml version="1.0" encoding="utf-8"?>
<!-- Generator: Adobe Illustrator 16.0.0, SVG Export Plug-In . SVG Version: 6.00 Build 0)  -->
<!DOCTYPE svg PUBLIC "-//W3C//DTD SVG 1.1//EN" "http://www.w3.org/Graphics/SVG/1.1/DTD/svg11.dtd">
<svg version="1.1" xmlns="http://www.w3.org/2000/svg" xmlns:xlink="http://www.w3.org/1999/xlink" x="0px" y="0px"
	 width="111.667px" height="112px" viewBox="0 0 111.667 112" enable-background="new 0 0 111.667 112" xml:space="preserve">
<g id="deployment">
	<circle fill="none" stroke="#FBFBFB" stroke-width="1.5" stroke-miterlimit="10" cx="55.86" cy="56.177" r="54"/>
	<path fill="none" stroke="#FCFCFC" stroke-width="1.5" stroke-miterlimit="10" d="M68.633,49.371"/>
	<line fill="none" stroke="#FCFCFC" stroke-width="1.5" stroke-miterlimit="10" x1="80.754" y1="52.511" x2="77.197" y2="53.436"/>
	<line fill="none" stroke="#FCFCFC" stroke-width="1.5" stroke-miterlimit="10" x1="65.903" y1="76.925" x2="67.182" y2="79.979"/>
	<line fill="none" stroke="#FCFCFC" stroke-width="1.5" stroke-miterlimit="10" x1="25.279" y1="39.076" x2="67.986" y2="39.076"/>
	<circle fill="#FCFCFC" cx="29.02" cy="34.974" r="1.142"/>
	<circle fill="#FCFCFC" cx="33.486" cy="34.974" r="1.142"/>
	<circle fill="#FCFCFC" cx="37.954" cy="34.974" r="1.142"/>
	<path fill="none" stroke="#FCFCFC" stroke-width="1.5" stroke-miterlimit="10" d="M58.555,70.45H26.403
		c-0.62,0-1.124-0.501-1.124-1.122V32.426c0-0.62,0.502-1.122,1.124-1.122h40.379c0.621,0,1.123,0.502,1.123,1.122v20.792"/>
	<polyline fill="none" stroke="#FCFCFC" stroke-width="1.5" stroke-miterlimit="10" points="42.584,57.621 38.981,55.538
		35.376,53.457 38.981,51.377 42.584,49.294 	"/>
	<g>
		<g>
			<path fill="none" stroke="#FCFCFC" stroke-width="1.5" stroke-miterlimit="10" d="M71.764,81.04
				c1.355,0.05,2.689-0.098,3.967-0.421"/>
			<path fill="none" stroke="#FCFCFC" stroke-width="1.5" stroke-miterlimit="10" stroke-dasharray="8.9516,4.4758" d="
				M79.83,78.859c2.982-1.882,5.271-4.873,6.188-8.565c1.176-4.725-0.17-9.486-3.186-12.864"/>
			<path fill="none" stroke="#FCFCFC" stroke-width="1.5" stroke-miterlimit="10" d="M81.219,55.886
				c-1.02-0.831-2.166-1.528-3.418-2.058l0.924,4.746"/>
		</g>
	</g>
	<path fill="none" stroke="#FCFCFC" stroke-width="1.5" stroke-miterlimit="10" d="M63.233,80.803l3.219-1.005
		c-6.138-2.752-9.615-9.584-7.936-16.342c1.644-6.611,7.683-10.975,14.229-10.749"/>
	<polyline fill="none" stroke="#FCFCFC" stroke-width="1.5" stroke-miterlimit="10" points="49.196,57.621 52.799,55.538
		56.405,53.457 52.799,51.377 49.196,49.294 	"/>
	<line fill="none" stroke="#FCFCFC" stroke-width="1.5" stroke-miterlimit="10" x1="44.243" y1="58.653" x2="47.092" y2="47.941"/>
	<rect id="_x3C_Slice_x3E__1_" x="-21.527" y="-22.002" fill="none" width="157.193" height="156"/>
</g>

</svg>
