<svg xmlns="http://www.w3.org/2000/svg" viewBox="0 0 470 470" width="512" height="512"><g fill="#FFF"><path d="M462.5 22.5H7.5C3.358 22.5 0 25.857 0 30v410c0 4.143 3.358 7.5 7.5 7.5h455c4.142 0 7.5-3.357 7.5-7.5v-80c0-4.143-3.358-7.5-7.5-7.5s-7.5 3.357-7.5 7.5v72.5H15v-335h440V330c0 4.143 3.358 7.5 7.5 7.5s7.5-3.357 7.5-7.5V30c0-4.143-3.358-7.5-7.5-7.5zM15 37.5h277.5v45H15v-45zm292.5 45v-45H455v45H307.5z"/><path d="M381.5 52c-4.41 0-8 3.59-8 8s3.59 8 8 8 8-3.59 8-8-3.59-8-8-8zM340.5 52c-4.41 0-8 3.59-8 8s3.59 8 8 8 8-3.59 8-8-3.59-8-8-8zM422.5 52c-4.41 0-8 3.59-8 8s3.59 8 8 8 8-3.59 8-8-3.59-8-8-8zM148.714 225.99c2.95-.37 5.402-2.444 6.254-5.29l17.253-57.595c1.19-3.968-1.063-8.148-5.03-9.337-3.967-1.188-8.15 1.064-9.338 5.032l-12.374 41.306-11.928-19.908c-1.355-2.262-3.797-3.646-6.434-3.646s-5.08 1.384-6.434 3.646l-11.928 19.908-12.372-41.298c-1.188-3.968-5.37-6.22-9.337-5.032-3.968 1.188-6.22 5.37-5.032 9.337l17.25 57.586c.854 2.846 3.307 4.92 6.255 5.29.312.038.623.057.932.057 2.612 0 5.066-1.366 6.432-3.646l14.233-23.755 14.233 23.756c1.53 2.55 4.42 3.96 7.366 3.59zM206.358 225.982c.312.04.623.058.932.058 2.612 0 5.066-1.366 6.432-3.646l14.233-23.756 14.233 23.756c1.527 2.55 4.416 3.957 7.364 3.588 2.95-.37 5.402-2.443 6.254-5.29l17.253-57.594c1.187-3.968-1.065-8.148-5.033-9.337-3.968-1.188-8.148 1.064-9.337 5.033L246.316 200.1l-11.928-19.908c-1.355-2.262-3.797-3.646-6.434-3.646s-5.08 1.384-6.434 3.646L209.594 200.1l-12.372-41.3c-1.188-3.967-5.367-6.22-9.337-5.03-3.968 1.187-6.22 5.368-5.032 9.336l17.25 57.587c.854 2.846 3.307 4.92 6.255 5.29zM368.865 153.755c-3.967-1.188-8.148 1.064-9.337 5.032l-12.374 41.305-11.928-19.908c-1.355-2.262-3.797-3.646-6.434-3.646s-5.08 1.384-6.434 3.646l-11.928 19.908-12.372-41.298c-1.19-3.967-5.367-6.22-9.337-5.032-3.967 1.188-6.22 5.37-5.03 9.337l17.25 57.585c.853 2.847 3.306 4.92 6.254 5.29 2.95.37 5.836-1.038 7.364-3.588l14.233-23.756 14.234 23.757c1.366 2.28 3.82 3.646 6.432 3.646.31 0 .62-.02.932-.058 2.95-.37 5.402-2.443 6.254-5.29l17.253-57.593c1.19-3.968-1.062-8.15-5.03-9.337zM136.7 268.547c0-4.143-3.358-7.5-7.5-7.5h-40c-4.142 0-7.5 3.357-7.5 7.5v40c0 4.143 3.358 7.5 7.5 7.5h40c4.142 0 7.5-3.357 7.5-7.5v-40zm-15 32.5h-25v-25h25v25zM129.2 331.047h-40c-4.142 0-7.5 3.357-7.5 7.5v40c0 4.143 3.358 7.5 7.5 7.5h40c4.142 0 7.5-3.357 7.5-7.5v-40c0-4.143-3.358-7.5-7.5-7.5zm-7.5 40h-25v-25h25v25zM366.712 281.047h-30c-4.142 0-7.5 3.357-7.5 7.5s3.358 7.5 7.5 7.5h30c4.142 0 7.5-3.357 7.5-7.5s-3.358-7.5-7.5-7.5zM306.712 281.047H159.2c-4.142 0-7.5 3.357-7.5 7.5s3.358 7.5 7.5 7.5h147.513c4.142 0 7.5-3.357 7.5-7.5s-3.36-7.5-7.5-7.5zM366.712 351.047h-30c-4.142 0-7.5 3.357-7.5 7.5s3.358 7.5 7.5 7.5h30c4.142 0 7.5-3.357 7.5-7.5s-3.358-7.5-7.5-7.5zM306.712 351.047H159.2c-4.142 0-7.5 3.357-7.5 7.5s3.358 7.5 7.5 7.5h147.513c4.142 0 7.5-3.357 7.5-7.5s-3.36-7.5-7.5-7.5z"/></g></svg>