<svg version="1.1" xmlns="http://www.w3.org/2000/svg" xmlns:xlink="http://www.w3.org/1999/xlink" x="0px" y="0px"
	 width="111.667px" height="112px" viewBox="0 0 111.667 112" enable-background="new 0 0 111.667 112" xml:space="preserve">
<g id="environments">
	<circle fill="none" stroke="#FCFCFC" stroke-width="1.5" stroke-miterlimit="10" cx="56.439" cy="56.177" r="54"/>
	<polyline fill="none" stroke="#FCFCFC" stroke-width="1.5" stroke-miterlimit="10" points="66.504,77.608 57.196,82.983
		35.766,70.611 35.766,45.864 57.196,33.491 78.625,45.864 78.625,62.899 	"/>
	<polyline fill="none" stroke="#FCFCFC" stroke-width="1.5" stroke-miterlimit="10" points="37.733,79.169 29.336,74.322
		29.336,64.999 	"/>
	<polyline fill="none" stroke="#FCFCFC" stroke-width="1.5" stroke-miterlimit="10" points="46.48,32.255 57.196,26.068
		68.264,32.458 	"/>
	<polyline fill="none" stroke="#FCFCFC" stroke-width="1.5" stroke-miterlimit="10" points="35.766,45.864 57.196,58.237
		57.196,77.488 	"/>
	<path fill="none" stroke="#FCFCFC" stroke-width="1.5" stroke-miterlimit="10" d="M69.903,70.248"/>
	<path fill="none" stroke="#FCFCFC" stroke-width="1.5" stroke-miterlimit="10" d="M69.903,50.996"/>
	<path fill="none" stroke="#FCFCFC" stroke-width="1.5" stroke-miterlimit="10" d="M48.471,38.624"/>
	<line fill="none" stroke="#FCFCFC" stroke-width="1.5" stroke-miterlimit="10" x1="57.196" y1="58.237" x2="71.162" y2="49.716"/>
	<circle fill="none" stroke="#FCFCFC" stroke-width="1.5" stroke-miterlimit="10" cx="71.977" cy="69.686" r="9.391"/>
	<path fill="none" stroke="#FCFCFC" stroke-width="1.5" stroke-miterlimit="10" d="M68.323,64.19c1.972-1.311,4.393-1.423,6.4-0.51"
		/>

		<rect x="79.246" y="78.236" transform="matrix(-0.8329 0.5535 -0.5535 -0.8329 192.844 106.3455)" fill="none" stroke="#FCFCFC" stroke-width="1.5" stroke-miterlimit="10" width="2.237" height="8.11"/>
	<rect id="_x3C_Slice_x3E__4_" x="-24.527" y="-22.002" fill="none" width="157.193" height="156"/>
</g>

</svg>
