<svg xmlns="http://www.w3.org/2000/svg" viewBox="0 0 60 60" width="512" height="512"><g fill="#FFF"><path d="M57.49 27H54v-6.268C54 19.226 52.774 18 51.268 18H48v-2.414l-.495-.495-7.297-7.297L32.414 0H8v11H2.732C1.226 11 0 12.226 0 13.732V57.42h.006c-.005.562.17 1.113.522 1.574.49.64 1.232 1.006 2.037 1.006h44.76c1.155 0 2.173-.78 2.45-1.813L60 30.15v-.178C60 28.25 58.944 27 57.49 27zm-6.222-7c.403 0 .732.328.732.732V27h-4v-7h3.268zM33 3.415L44.586 15H33V3.415zM10 2h21v15h15v10H12.73c-.142 0-.283.012-.42.035-.975.162-1.787.872-2.03 1.778l-.28.772V2zM2 13.732c0-.404.33-.732.732-.732H8v22.035L2 51.4V13.73zm45.87 43.85c-.067.246-.29.418-.546.418H2.564c-.242 0-.384-.14-.447-.222-.063-.082-.16-.256-.123-.408L8 40.898v.005L12.16 29.5l.026-.083c.066-.245.29-.417.545-.417H57.49c.38 0 .477.546.502.82L47.87 57.582z"/><path d="M16 17h10c.552 0 1-.447 1-1s-.448-1-1-1H16c-.552 0-1 .447-1 1s.448 1 1 1zM16 10h10c.552 0 1-.447 1-1s-.448-1-1-1H16c-.552 0-1 .447-1 1s.448 1 1 1zM16 24h24c.552 0 1-.447 1-1s-.448-1-1-1H16c-.552 0-1 .447-1 1s.448 1 1 1z"/></g></svg>