<?xml version="1.0" encoding="utf-8"?>
<!-- Generator: Adobe Illustrator 16.0.0, SVG Export Plug-In . SVG Version: 6.00 Build 0)  -->
<!DOCTYPE svg PUBLIC "-//W3C//DTD SVG 1.1//EN" "http://www.w3.org/Graphics/SVG/1.1/DTD/svg11.dtd">
<svg version="1.1" xmlns="http://www.w3.org/2000/svg" xmlns:xlink="http://www.w3.org/1999/xlink" x="0px" y="0px"
	 width="111.667px" height="112px" viewBox="0 0 111.667 112" enable-background="new 0 0 111.667 112" xml:space="preserve">
<g id="form" fill="none" stroke="#ffffff" stroke-width="1.5" stroke-miterlimit="10">
	<circle cx="56.681" cy="56.177" r="54"/>
	<path d="M86.144,72.979c0,1.236-1.002,2.24-2.24,2.24
		H29.458c-1.236,0-2.24-1.004-2.24-2.24V33.212c0-1.238,1.004-2.24,2.24-2.24h54.445c1.238,0,2.24,1.002,2.24,2.24V72.979z"/>
	<rect x="27.218" y="35.899" width="58.926" height="33.383"/>
	<line x1="53.113" y1="41.276" x2="76.659" y2="41.276"/>
	<line x1="53.113" y1="47.325" x2="76.659" y2="47.325"/>
	<line x1="38.293" y1="54.048" x2="76.659" y2="54.048"/>
	<line x1="38.156" y1="59.425" x2="76.659" y2="59.425"/>
		<rect x="38.777" y="40.155" width="10.979" height="9.748"/>
	<circle fill="#ffffff" cx="80.389" cy="72.232" r="1.157"/>
	<circle cx="44.267" cy="43.89" r="1.27"/>
	<path d="M41.765,47.661c0-1.381,1.12-2.502,2.502-2.502
		s2.502,1.121,2.502,2.502"/>
	<path fill="#ffffff" d="M50.142,64.019c0,0.68-0.551,1.232-1.232,1.232h-9.375c-0.682,0-1.232-0.553-1.232-1.232l0,0
		c0-0.682,0.551-1.232,1.232-1.232h9.375C49.591,62.786,50.142,63.337,50.142,64.019L50.142,64.019z"/>
	<path d="M45.752,81.382c0-3.465,4.893-6.273,10.929-6.273
		c6.035,0,10.929,2.809,10.929,6.273"/>
	<rect id="_x3C_Slice_x3E__5_" x="-20.333" y="-22.002" fill="none" width="157.193" height="156"/>
</g>
</svg>
