<?xml version="1.0" encoding="utf-8"?>
<!-- Generator: Adobe Illustrator 16.0.0, SVG Export Plug-In . SVG Version: 6.00 Build 0)  -->
<!DOCTYPE svg PUBLIC "-//W3C//DTD SVG 1.1//EN" "http://www.w3.org/Graphics/SVG/1.1/DTD/svg11.dtd">
<svg version="1.1" id="Layer_1" xmlns="http://www.w3.org/2000/svg" xmlns:xlink="http://www.w3.org/1999/xlink" x="0px" y="0px"
	 width="350px" height="350px" viewBox="0 0 350 350" enable-background="new 0 0 350 350" xml:space="preserve">
<circle display="none" fill="none" stroke="#E0E0E0" stroke-width="3" stroke-miterlimit="10" cx="176.313" cy="175.637" r="150.971"/>
<path fill="none" stroke="#FFFFFF" stroke-width="4" stroke-miterlimit="10" d="M55.22,180.637
	c-3.338-34.869,8.344-70.905,35.048-97.608c47.472-47.472,124.44-47.472,171.91,0c33.427,33.425,43.317,81.473,29.673,123.552"/>
<g>
	<g>
		<path fill="none" stroke="#FFFFFF" stroke-width="4" stroke-miterlimit="10" d="M207.789,286.395
			c-3.226,0.864-6.479,1.593-9.754,2.188"/>
		<path fill="none" stroke="#FFFFFF" stroke-width="4" stroke-miterlimit="10" stroke-dasharray="20.1401,10.0701" d="
			M188.066,289.969c-34.928,3.399-71.047-8.276-97.799-35.029c-9.396-9.396-16.932-19.946-22.608-31.195"/>
		<path fill="none" stroke="#FFFFFF" stroke-width="4" stroke-miterlimit="10" d="M65.481,219.193
			c-1.381-3.048-2.63-6.141-3.747-9.27"/>
	</g>
</g>
<path fill="none" stroke="#FFFFFF" stroke-width="4" stroke-miterlimit="10" d="M252.255,224.224l12.266-12.265
	c9.032-9.032,23.676-9.032,32.707,0l0,0c9.032,9.031,9.032,23.674,0,32.707l-12.265,12.265L252.255,224.224z"/>
<path fill="none" stroke="#FFFFFF" stroke-width="4" stroke-miterlimit="10" d="M233.926,241.553l-12.265,12.266
	c-9.032,9.033-9.032,23.676,0,32.707l0,0c9.03,9.032,23.674,9.032,32.706,0l12.266-12.265L233.926,241.553z"/>
<line fill="none" stroke="#FFFFFF" stroke-width="4" stroke-miterlimit="10" x1="258.299" y1="231.316" x2="248.314" y2="241.303"/>
<line fill="none" stroke="#FFFFFF" stroke-width="4" stroke-miterlimit="10" x1="270.391" y1="257.878" x2="260.979" y2="267.29"/>
<circle fill="none" stroke="#FFFFFF" stroke-width="4" stroke-miterlimit="10" cx="164.179" cy="223.427" r="14.307"/>
<circle fill="none" stroke="#FFFFFF" stroke-width="4" stroke-miterlimit="10" cx="164.179" cy="115.231" r="14.307"/>
<circle fill="none" stroke="#FFFFFF" stroke-width="4" stroke-miterlimit="10" cx="215.49" cy="141.309" r="14.307"/>
<line fill="none" stroke="#FFFFFF" stroke-width="4" stroke-miterlimit="10" x1="164.179" y1="209.12" x2="164.179" y2="128.779"/>
<path fill="none" stroke="#FFFFFF" stroke-width="4" stroke-miterlimit="10" d="M164.179,196.595c0,0,16.332-14.326,31.831-14.5
	c23.324-0.262,19.076-19.928,19.323-27.5"/>
</svg>
