<?xml version="1.0" encoding="utf-8"?>
<!-- Generator: Adobe Illustrator 16.0.0, SVG Export Plug-In . SVG Version: 6.00 Build 0)  -->
<!DOCTYPE svg PUBLIC "-//W3C//DTD SVG 1.1//EN" "http://www.w3.org/Graphics/SVG/1.1/DTD/svg11.dtd">
<svg version="1.1" xmlns="http://www.w3.org/2000/svg" xmlns:xlink="http://www.w3.org/1999/xlink" x="0px" y="0px"
	 width="111.667px" height="112px" viewBox="0 0 111.667 112" enable-background="new 0 0 111.667 112" xml:space="preserve">

<g id="analytics">
	<circle fill="none" stroke="#fff" stroke-width="1.5" stroke-miterlimit="10" cx="56.761" cy="55.545" r="54"/>
	<path fill="none" stroke="#fff" stroke-width="1.5" stroke-miterlimit="10" d="M84.187,75.63c0,1.453-1.18,2.633-2.633,2.633
		H69.448c-1.453,0-2.631-1.18-2.631-2.633V35.461c0-1.456,1.178-2.634,2.631-2.634h12.106c1.453,0,2.633,1.178,2.633,2.634V75.63z"
		/>
	<path fill="none" stroke="#fff" stroke-width="1.5" stroke-miterlimit="10" d="M66.757,75.63c0,1.453-1.18,2.633-2.633,2.633
		H52.019c-1.453,0-2.633-1.18-2.633-2.633V50.393c0-1.456,1.18-2.633,2.633-2.633h12.105c1.453,0,2.633,1.177,2.633,2.633V75.63z"/>
	<path fill="none" stroke="#fff" stroke-width="1.5" stroke-miterlimit="10" d="M46.705,75.63c0,1.453-1.179,2.633-2.633,2.633
		H31.966c-1.454,0-2.632-1.18-2.632-2.633V50.393c0-1.456,1.178-2.633,2.632-2.633h12.105c1.454,0,2.633,1.177,2.633,2.633V75.63z"
		/>
	<rect id="_x3C_Slice_x3E__6_" x="-20.333" y="-21.002" fill="none" width="157.193" height="156"/>
</g>
</svg>
