<svg version="1.1" id="Layer_1" xmlns="http://www.w3.org/2000/svg" xmlns:xlink="http://www.w3.org/1999/xlink" x="0px" y="0px"
	 width="116px" height="116px" viewBox="0 0 350 350" enable-background="new 0 0 350 350" xml:space="preserve">

<!-- <defs>
<style>

path, circle{
		stroke-dasharray: 1000;
		stroke-dashoffset: 0;
		-webkit-animation: dash 2s linear forwards;
		animation: dash 2s linear forwards;

	}

	@-webkit-keyframes dash{

		from{
			stroke-dashoffset: 1000;

		}
		to{
			stroke-dashoffset: 0;

		}
	}

</style>

</defs> -->

<g id="Layer_2">
</g>
<line fill="none" stroke="#03a9f4" stroke-width="4" stroke-miterlimit="10" x1="53.065" y1="105.032" x2="298.537" y2="105.032"/>
<circle fill="none" stroke="#03a9f4" stroke-width="4" stroke-miterlimit="10" cx="282.226" cy="81.469" r="6.565"/>
<circle fill="none" stroke="#03a9f4" stroke-width="4" stroke-miterlimit="10" cx="256.788" cy="81.469" r="6.565"/>
<circle fill="none" stroke="#03a9f4" stroke-width="4" stroke-miterlimit="10" cx="231.348" cy="81.469" r="6.565"/>
<g>
	<path fill="#03a9f4" d="M134.401,172.51h4.386v15.051h0.1c0.698-1.248,1.793-2.393,3.14-3.09c1.295-0.799,2.84-1.247,4.484-1.247
		c3.239,0,8.422,1.993,8.422,10.317v14.353h-4.386v-13.855c0-3.938-1.447-7.175-5.582-7.175c-2.841,0-5.034,1.992-5.88,4.385
		c-0.25,0.599-0.3,1.247-0.3,2.093v14.553H134.4L134.401,172.51L134.401,172.51z"/>
	<path fill="#03a9f4" d="M167.144,177.993v5.781h6.279v3.338h-6.279v13.008c0,2.992,0.846,4.686,3.289,4.686
		c1.197,0,1.894-0.098,2.541-0.3l0.2,3.34c-0.847,0.299-2.193,0.6-3.888,0.6c-2.042,0-3.688-0.696-4.734-1.845
		c-1.196-1.343-1.695-3.488-1.695-6.327v-13.159h-3.738v-3.338h3.738v-4.437L167.144,177.993z"/>
	<path fill="#03a9f4" d="M183.64,177.993v5.781h6.278v3.338h-6.278v13.008c0,2.992,0.847,4.686,3.288,4.686
		c1.197,0,1.895-0.098,2.541-0.3l0.202,3.34c-0.85,0.299-2.196,0.6-3.891,0.6c-2.043,0-3.687-0.696-4.735-1.845
		c-1.194-1.343-1.694-3.488-1.694-6.327v-13.159h-3.736v-3.338h3.736v-4.437L183.64,177.993z"/>
	<path fill="#03a9f4" d="M194.854,191.646c0-3.088-0.052-5.58-0.199-7.872h3.938l0.249,4.137h0.097
		c1.744-2.991,4.635-4.685,8.523-4.685c5.88,0,10.265,4.933,10.265,12.259c0,8.672-5.33,12.958-10.962,12.958
		c-3.24,0-5.981-1.396-7.426-3.788h-0.099v13.106h-4.386V191.646L194.854,191.646z M199.237,198.077
		c0,0.599,0.049,1.246,0.199,1.797c0.748,3.037,3.438,5.132,6.528,5.132c4.637,0,7.327-3.786,7.327-9.317
		c0-4.835-2.491-8.97-7.127-8.97c-2.99,0-5.832,2.091-6.679,5.382c-0.099,0.597-0.248,1.245-0.248,1.794L199.237,198.077
		L199.237,198.077z"/>
	<path fill="#03a9f4" d="M225.052,208.443c-1.694,0-2.889-1.345-2.889-3.09c0-1.843,1.246-3.141,2.938-3.141
		c1.796,0,2.938,1.297,2.938,3.141c0,1.745-1.144,3.09-2.938,3.09H225.052z M225.102,190.852c-1.691,0-2.886-1.347-2.886-3.091
		c0-1.845,1.245-3.141,2.938-3.141c1.796,0,2.939,1.296,2.939,3.141c0,1.744-1.147,3.091-2.939,3.091H225.102z"/>
	<path fill="#03a9f4" d="M229.836,209.888l13.853-36.133h3.44l-13.955,36.133H229.836z"/>
	<path fill="#03a9f4" d="M246.93,209.888l13.853-36.133h3.439l-13.956,36.133H246.93z"/>
</g>
<path fill="none" stroke="#03a9f4" stroke-width="4" stroke-miterlimit="10" d="M113.018,207.85c0,1.504-1.219,2.724-2.724,2.724
	H87.48c-1.506,0-2.724-1.22-2.724-2.724v-21.455c0-1.505,1.218-2.724,2.724-2.724h22.814c1.505,0,2.724,1.219,2.724,2.724V207.85
	L113.018,207.85z"/>
<path fill="none" stroke="#03a9f4" stroke-width="4" stroke-miterlimit="10" d="M107.358,183.559v-8.44
	c0-4.679-3.792-8.471-8.471-8.471c-4.678,0-8.471,3.793-8.471,8.471v8.328"/>
<path fill="#03a9f4" stroke="#03a9f4" stroke-miterlimit="10" d="M99.78,197.046c0.744-0.34,1.261-1.086,1.261-1.957
	c0-1.188-0.964-2.153-2.154-2.153c-1.188,0-2.152,0.962-2.152,2.153c0,0.871,0.518,1.617,1.26,1.957
	c-0.989,2.069-2.396,5.164-1.96,5.164c1.24,0,4.912,0,5.692,0C102.202,202.21,100.782,199.115,99.78,197.046z"/>
<path fill="none" stroke="#03a9f4" stroke-width="4" stroke-miterlimit="10" d="M72.987,209.821"/>
<path fill="none" stroke="#03a9f4" stroke-width="4" stroke-miterlimit="10" d="M72.038,190.902"/>
<path fill="none" stroke="#03a9f4" stroke-width="4" stroke-miterlimit="10" d="M298.075,278.924c0,3.566-2.891,6.457-6.454,6.457
	H59.519c-3.564,0-6.454-2.891-6.454-6.457V66.819c0-3.564,2.889-6.452,6.454-6.452h232.102c3.563,0,6.454,2.888,6.454,6.452V278.924
	L298.075,278.924z"/>
</svg>
