<svg version="1.1" id="Layer_1" xmlns="http://www.w3.org/2000/svg" xmlns:xlink="http://www.w3.org/1999/xlink" x="0px" y="0px"
	 width="530.784px" height="713.514px" viewBox="0 0 533.784 713.514" style="enable-background:new 0 0 533.784 713.514;"
	 xml:space="preserve">
<style type="text/css">

	.st1{
		stroke-dasharray: 2000;
		stroke-dashoffset: 0;
		-webkit-animation: dash 1s linear forwards;
		animation: dash 1s linear forwards;

	}

	.st3{
		stroke-dasharray: 400;
		stroke-dashoffset: 400;
		-webkit-animation: dash_4 2s linear 2s forwards;
		animation: dash_4 2s linear 2s forwards;
	}

	.st4{
		stroke-dasharray: 50;
		stroke-dashoffset: 50;
		-webkit-animation: dash_5 1s linear 1.8s forwards;
		animation: dash_5 1s linear 1.8s forwards;
	}

	.st2{
		stroke-dasharray: 400;
		stroke-dashoffset: 0;
		-webkit-animation: dash_3 2s linear forwards;
		animation: dash_3 2s linear forwards;

	}

	.st0{
		fill: transparent !important;
		-webkit-animation: time 1.5s linear 2.2s forwards;
		animation: time 1.5s linear 2.2s forwards;

	}
	.st5{
		stroke-dasharray: 200;
		stroke-dashoffset: 200;
		-webkit-animation: dash_6 2s linear 2.5s forwards;
		animation: dash_6 2s linear 2.5s forwards;
	}

	.st6{
		stroke-dasharray: 400;
		stroke-dashoffset: 400;
		-webkit-animation: dash_7 2s linear 2s forwards;
		animation: dash_7 2s linear 2s forwards;
	}



	.st22{
		stroke-dasharray: 2000;
		stroke-dashoffset: 2000;
		-webkit-animation: dash_2 1s linear 1s forwards;
		animation: dash_2 1s linear 1s forwards;

	}

	@-webkit-keyframes dash{

		0%{stroke-dashoffset: 2000;}
		50%{stroke-dashoffset: 1000;}
		100%{stroke-dashoffset: 0;}

	}

	@-webkit-keyframes dash_2{

		0%{stroke-dashoffset: 2000;}
		100%{stroke-dashoffset: 0;}

	}

		@-webkit-keyframes dash_3{

		0%{stroke-dashoffset: 400;}
		100%{stroke-dashoffset: 0;}

	}

	@-webkit-keyframes dash_4{

		0%{stroke-dashoffset: 400;}
		100%{stroke-dashoffset: 0;}

	}

	@-webkit-keyframes dash_5{

		0%{stroke-dashoffset: 50;}
		100%{stroke-dashoffset: 0;}

	}

	@-webkit-keyframes dash_7{

		0%{stroke-dashoffset: 400;}
		100%{stroke-dashoffset: 0;}

	}



	@-webkit-keyframes dash_6{

		0%{stroke-dashoffset: 200;}
		100%{stroke-dashoffset: 0;}

	}

	@-webkit-keyframes time{

		0%{fill:transparent;}
		100%{fill:#494949;}

	}

	.st0{fill:#494949;}
	.st1{fill:none;stroke:#494949;stroke-width:2;stroke-miterlimit:10;}
	.st2,.st22, .st3, .st4, .st5, .st6{fill:none;stroke:#494949;stroke-miterlimit:10;}

</style>
<path class="st1" d="M15.284,144.388c0,0-8.326-28.638,18.98-42.291L254.711,12.52c0,0,32.967-9.325,48.285,26.64
	c15.319,35.963,213.456,513.156,213.456,513.156s15.984,34.299-18.649,52.281l-212.786,90.91c0,0-28.974,10.654-46.289-16.65
	L15.284,144.388z"/>
<path class="st22" d="M20.525,148.347c0,0-8.12-27.932,18.513-41.248l215.006-87.366c0,0,32.152-9.094,47.092,25.982
	c14.941,35.077,208.188,500.491,208.188,500.491s15.589,33.451-18.189,50.99l-207.535,88.666c0,0-28.257,10.391-45.145-16.24
	L20.525,148.347z"/>
<path class="st22" d="M16.713,145.582c0,0-8.277-28.477,18.874-42.051l219.194-89.069c0,0,32.779-9.272,48.011,26.488
	c15.231,35.76,212.243,510.24,212.243,510.24s15.894,34.107-18.542,51.986l-211.578,90.393c0,0-28.809,10.594-46.026-16.555
	L16.713,145.582z"/>
<path class="st3" d="M160.505,73.809c0,3.587-2.907,6.496-6.495,6.496s-6.496-2.908-6.496-6.496c0-3.587,2.908-6.495,6.496-6.495
	S160.505,70.222,160.505,73.809z"/>
<path class="st3" d="M158.74,73.809c0,2.612-2.117,4.73-4.729,4.73c-2.611,0-4.729-2.118-4.729-4.73
	c0-2.612,2.118-4.729,4.729-4.729C156.623,69.08,158.74,71.197,158.74,73.809z"/>
<path class="st3" d="M127.215,110.834c0,1.705-1.381,3.085-3.085,3.085s-3.085-1.38-3.085-3.085c0-1.704,1.381-3.084,3.085-3.084
	S127.215,109.13,127.215,110.834z"/>
<path class="st3" d="M125.594,110.834c0,0.81-0.654,1.465-1.464,1.465s-1.464-0.655-1.464-1.465c0-0.809,0.654-1.464,1.464-1.464
	S125.594,110.025,125.594,110.834z"/>
<path class="st3" d="M183.765,87.687c0.137,0.333-0.021,0.711-0.354,0.848l-41.907,17.22c-0.332,0.137-0.711-0.022-0.848-0.354l0,0
	c-0.137-0.333,0.021-0.711,0.354-0.848l41.907-17.22C183.25,87.196,183.629,87.355,183.765,87.687L183.765,87.687z"/>
<path class="st3" d="M397.596,611.325c0,12.197-9.888,22.084-22.085,22.084s-22.086-9.887-22.086-22.084s9.889-22.086,22.086-22.086
	S397.596,599.128,397.596,611.325z"/>
<path class="st3" d="M401.494,611.325c0,14.348-11.633,25.982-25.982,25.982s-25.983-11.635-25.983-25.982
	c0-14.352,11.634-25.984,25.983-25.984S401.494,596.974,401.494,611.325z"/>
<path class="st3" d="M402.956,611.325c0,15.156-12.288,27.443-27.444,27.443c-15.157,0-27.445-12.287-27.445-27.443
	c0-15.158,12.288-27.445,27.445-27.445C390.667,583.88,402.956,596.167,402.956,611.325z"/>
<path class="st22" d="M39.038,175.629L304.059,69.425l190,457.619L230.985,637.308L39.038,175.629z"/>
<rect x="348.489" y="120.799" transform="matrix(0.9238 -0.383 0.383 0.9238 -28.1256 145.014)" class="st6" width="3.335" height="44.698"/>
<path class="st4" d="M27.313,164.585l-2.586,2.395L23,162.799l2.531-2.526L27.313,164.585z"/>
<path class="st6" d="M69.885,279.373c0.391,0.93-0.046,2.001-0.977,2.392l0,0c-0.93,0.391-2.001-0.046-2.393-0.976L52.36,247.104
	c-0.392-0.931,0.046-2.001,0.977-2.393l0,0c0.93-0.391,2,0.047,2.392,0.976L69.885,279.373z"/>
<path class="st6" d="M42.407,213.698c0.391,0.93-0.046,2.001-0.977,2.392l0,0c-0.93,0.391-2.001-0.046-2.393-0.976l-9.793-23.561
	c-0.391-0.931,0.047-2.001,0.977-2.393l0,0c0.93-0.391,2.002,0.047,2.393,0.976L42.407,213.698z"/>
<path class="st6" d="M92.539,332.718c0.392,0.931-0.046,2.001-0.976,2.392l0,0c-0.931,0.391-2.001-0.045-2.393-0.976L75.013,300.45
	c-0.391-0.931,0.046-2.001,0.977-2.392l0,0c0.93-0.391,2.001,0.046,2.392,0.977L92.539,332.718z"/>
<path class="st4" d="M302.936,49.97l3.187-1.123l1.638,3.903l-3.178,1.138L302.936,49.97z"/>
<path class="st4" d="M503.957,533.278h3.642l2.465,5.936l-3.57,0.178L503.957,533.278z"/>
<path class="st5" d="M59.681,187.775l-1.369,0.526l-1.155-3.004l1.369-0.526L59.681,187.775z"/>
<path class="st5" d="M55.9,189.228l-1.37,0.526l-0.746-1.943l1.369-0.526L55.9,189.228z"/>
<path class="st5" d="M63.461,186.322l-1.369,0.526l-2.139-5.566l1.369-0.526L63.461,186.322z"/>
<rect x="64.195" y="176.349" transform="matrix(0.9334 -0.3588 0.3588 0.9334 -60.5878 35.3471)" class="st5" width="1.467" height="9.086"/>
<rect x="67.501" y="172.334" transform="matrix(0.9334 -0.3588 0.3588 0.9334 -59.4023 36.3544)" class="st5" width="1.467" height="11.736"/>
<g>
	<path class="st0" d="M167.859,143.555c-1.438,0.501-2.894-0.504-3.764-2.932c-0.864-2.48-0.257-4.203,1.238-4.724
		c1.54-0.537,2.917,0.535,3.733,2.878c0.871,2.504,0.412,4.212-1.197,4.772L167.859,143.555z M167.635,142.769
		c1.01-0.351,1.082-1.71,0.428-3.59c-0.631-1.812-1.498-2.844-2.541-2.481c-0.906,0.315-1.092,1.676-0.449,3.522
		c0.644,1.922,1.635,2.872,2.552,2.553L167.635,142.769z"/>
	<path class="st0" d="M173.5,133.195l0.229,0.657l-0.871,7.821l-1.019,0.355l0.914-7.621l-0.008-0.023l-3.602,1.254l-0.287-0.827
		L173.5,133.195z"/>
	<path class="st0" d="M177.877,140.066c-0.385,0.134-0.764-0.077-0.901-0.474c-0.146-0.419,0.035-0.812,0.42-0.946
		c0.407-0.142,0.771,0.062,0.917,0.481c0.138,0.396-0.016,0.793-0.424,0.935L177.877,140.066z M176.497,136.064
		c-0.385,0.134-0.764-0.078-0.9-0.474c-0.146-0.419,0.033-0.812,0.419-0.947c0.407-0.141,0.771,0.062,0.917,0.481
		c0.139,0.396-0.016,0.793-0.424,0.935L176.497,136.064z"/>
	<path class="st0" d="M179.368,132.194l-0.023,0.008l-1.039,1.137l-0.457-0.692l1.309-1.42l0.85-0.296l2.564,7.362l-0.963,0.336
		L179.368,132.194z"/>
	<path class="st0" d="M187.381,129.303l-2.81,0.978l0.367,1.968c0.162-0.082,0.313-0.16,0.585-0.254
		c0.577-0.201,1.176-0.27,1.723-0.157c0.688,0.117,1.389,0.597,1.721,1.548c0.501,1.438-0.269,2.913-1.865,3.469
		c-0.805,0.28-1.552,0.286-1.992,0.186l-0.016-0.846c0.369,0.075,1.047,0.092,1.728-0.145c0.929-0.324,1.53-1.219,1.173-2.212
		c-0.339-0.974-1.217-1.417-2.679-0.909c-0.431,0.15-0.747,0.298-1.003,0.438l-0.747-3.677l3.522-1.227L187.381,129.303z"/>
</g>
<path class="st5" d="M294.39,91.666l-21.163,8.497l-3.524-8.775l21.164-8.497L294.39,91.666z"/>
<path class="st5" d="M288.661,92.314l-14.354,5.762l-2.381-5.931l14.354-5.763L288.661,92.314z"/>
<path class="st5" d="M295.324,89.639l-1.462,0.587l-2.382-5.931l1.463-0.587L295.324,89.639z"/>
</svg>
