<svg version="1.1" xmlns="http://www.w3.org/2000/svg" xmlns:xlink="http://www.w3.org/1999/xlink" x="0px" y="0px"
	 width="111.667px" height="112px" viewBox="0 0 111.667 112" enable-background="new 0 0 111.667 112" xml:space="preserve">
<g id="colloboration">
	<circle fill="none" stroke="#FCFCFC" stroke-width="1.5" stroke-miterlimit="10" cx="56.143" cy="56.177" r="54"/>
	<path fill="none" stroke="#FCFCFC" stroke-width="1.5" stroke-miterlimit="10" stroke-dasharray="4,4" d="M81.366,39.4
		c-1.319,2.602-5.699,5.253-9.763,3.188c-3.575-1.816-5.003-6.188-3.187-9.765c1.816-3.575,6.189-5.003,9.766-3.186
		C81.756,31.454,83.183,35.826,81.366,39.4z"/>
	<circle fill="none" stroke="#FCFCFC" stroke-width="1.5" stroke-miterlimit="10" cx="72.354" cy="66.038" r="5.091"/>
	<path fill="none" stroke="#FCFCFC" stroke-width="1.5" stroke-miterlimit="10" d="M70.188,34.634"/>
	<path fill="none" stroke="#FCFCFC" stroke-width="1.5" stroke-miterlimit="10" d="M47.767,36.729"/>
	<path fill="none" stroke="#FCFCFC" stroke-width="1.5" stroke-miterlimit="10" d="M75.75,62.248"/>
	<path fill="none" stroke="#FCFCFC" stroke-width="1.5" stroke-miterlimit="10" d="M78.657,42.376"/>
	<line fill="none" stroke="#FCFCFC" stroke-width="1.5" stroke-miterlimit="10" x1="52.853" y1="62.452" x2="49.198" y2="71.777"/>
	<line fill="none" stroke="#FCFCFC" stroke-width="1.5" stroke-miterlimit="10" x1="42.52" y1="41.292" x2="49.594" y2="47.938"/>
	<line fill="none" stroke="#FCFCFC" stroke-width="1.5" stroke-miterlimit="10" x1="63.34" y1="59.332" x2="68.216" y2="63.072"/>
	<line fill="none" stroke="#FCFCFC" stroke-width="1.5" stroke-miterlimit="10" x1="70.188" y1="41.292" x2="62.493" y2="48.479"/>
	<circle fill="none" stroke="#FCFCFC" stroke-width="1.5" stroke-miterlimit="10" cx="74.773" cy="34.744" r="1.301"/>
	<path fill="none" stroke="#FCFCFC" stroke-width="1.5" stroke-miterlimit="10" d="M72.354,38.88v-0.73
		c0-1.134,0.918-2.054,2.053-2.054h0.73c1.135,0,2.055,0.92,2.055,2.054v0.73"/>
	<circle fill="none" stroke="#FCFCFC" stroke-width="1.5" stroke-miterlimit="10" cx="72.393" cy="64.613" r="1.131"/>
	<path fill="none" stroke="#FCFCFC" stroke-width="1.5" stroke-miterlimit="10" d="M70.29,68.212v-0.637
		c0-0.986,0.8-1.786,1.787-1.786h0.635c0.987,0,1.787,0.8,1.787,1.786v0.637"/>
	<circle fill="none" stroke="#FCFCFC" stroke-width="1.5" stroke-miterlimit="10" cx="34.236" cy="64.081" r="4.104"/>
	<circle fill="none" stroke="#FCFCFC" stroke-width="1.5" stroke-miterlimit="10" cx="34.27" cy="63.136" r="0.913"/>
	<path fill="none" stroke="#FCFCFC" stroke-width="1.5" stroke-miterlimit="10" d="M32.573,66.039v-0.514
		c0-0.796,0.645-1.439,1.441-1.439h0.512c0.795,0,1.439,0.644,1.439,1.439v0.514"/>
	<path fill="none" stroke="#FCFCFC" stroke-width="1.5" stroke-miterlimit="10" d="M46.944,70.978c-3.459,0-6.264,2.804-6.264,6.262
		c0,3.46,2.805,6.265,6.264,6.265s6.264-2.805,6.264-6.265C53.208,73.781,50.403,70.978,46.944,70.978z M47,74.187
		c0.719,0,1.302,0.58,1.302,1.3c0,0.718-0.583,1.301-1.302,1.301c-0.718,0-1.3-0.581-1.3-1.301
		C45.701,74.77,46.283,74.187,47,74.187z M44.583,78.893c0-1.135,0.92-2.055,2.053-2.055h0.731c1.134,0,2.054,0.92,2.054,2.055"/>
	<circle fill="none" stroke="#FCFCFC" stroke-width="1.5" stroke-miterlimit="10" cx="56.135" cy="54.083" r="8.758"/>
	<circle fill="none" stroke="#FCFCFC" stroke-width="1.5" stroke-miterlimit="10" cx="56.192" cy="52.329" r="1.3"/>
	<path fill="none" stroke="#FCFCFC" stroke-width="1.5" stroke-miterlimit="10" d="M53.774,56.465v-0.729
		c0-1.134,0.919-2.055,2.053-2.055h0.73c1.135,0,2.055,0.921,2.055,2.055v0.729"/>
	<path fill="none" stroke="#FCFCFC" stroke-width="1.5" stroke-miterlimit="10" d="M40.68,34.086c-2.211,0-4.004,1.764-4.004,3.937
		c0,2.174,1.793,3.936,4.004,3.936s4.004-1.762,4.004-3.936C44.684,35.85,42.891,34.086,40.68,34.086z M40.698,35.912
		c0.541,0,0.98,0.432,0.98,0.963s-0.439,0.962-0.98,0.962c-0.54,0-0.979-0.431-0.979-0.962S40.158,35.912,40.698,35.912z
		 M38.877,39.938v-0.542c0-0.839,0.692-1.52,1.546-1.52h0.55c0.854,0,1.546,0.681,1.546,1.52v0.542"/>
	<line fill="none" stroke="#FCFCFC" stroke-width="1.5" stroke-miterlimit="10" x1="48.393" y1="58.179" x2="38.176" y2="63.341"/>
	<rect id="_x3C_Slice_x3E__2_" x="-24.527" y="-22.002" fill="none" width="157.193" height="156"/>
</g>



</svg>
