<svg version="1.1" id="Layer_1" xmlns="http://www.w3.org/2000/svg" xmlns:xlink="http://www.w3.org/1999/xlink" x="0px" y="0px"
	 width="116px" height="116px" viewBox="0 0 350 350" enable-background="new 0 0 350 350" xml:space="preserve">
<!-- <defs>
<style>
	#shield{
		stroke: 03a9f4;
		stroke-dasharray: 900;
		stroke-dashoffset: 0;
		-webkit-animation: dash 2s linear forwards;
		animation: dash 2s linear forwards;

	}

	@-webkit-keyframes dash{

		from{
			stroke-dashoffset: 900;

		}
		to{
			stroke-dashoffset: 0;

		}
	}
	#st01, #st02, #st03{
		stroke-dasharray: 800;
		stroke-dashoffset: 0;
		-webkit-animation: dash 3s linear forwards;
		animation: dash 3s linear forwards;

	}

	@-webkit-keyframes dash{

		from{
			stroke-dashoffset: 800;

		}
		to{
			stroke-dashoffset: 0;

		}
	}

	#s, #s2, #l, #circle, #circle2, #circle3, #poly{
		stroke-dasharray: 800;
		stroke-dashoffset: 0;
		-webkit-animation: dash 4s linear forwards;
		animation: dash 4s linear forwards;



	}

	@-webkit-keyframes dash{

		from{
			stroke-dashoffset: 800;


		}
		to{
			stroke-dashoffset: 0;


		}
	}

</style>
</defs> -->

<circle display="none" fill="none" stroke="#03a9f4" stroke-width="3" stroke-miterlimit="10" cx="176.313" cy="175.637" r="150.971"/>
<path id="shield" fill="none" stroke="#03a9f4" stroke-width="4" stroke-miterlimit="10" d="M253.479,191.799c0,0,12.034,67.391-101.082,122.744
	c0,0-102.287-31.29-102.287-122.744c0-91.457,0-102.287,0-102.287l101.082-15.643l42.213,5.96"/>
<path id="st01" fill="none" stroke="#03a9f4" stroke-width="4" stroke-miterlimit="10" d="M180.138,224.048c0,2.95-2.393,5.342-5.341,5.342
	h-44.732c-2.95,0-5.342-2.392-5.342-5.342v-42.063c0-2.95,2.392-5.342,5.342-5.342h44.732c2.948,0,5.341,2.392,5.341,5.342V224.048
	L180.138,224.048z"/>
<path id="st02" fill="none" stroke="#03a9f4" stroke-width="4" stroke-miterlimit="10" d="M169.039,176.424v-16.552
	c0-9.173-7.435-16.608-16.608-16.608c-9.172,0-16.608,7.436-16.608,16.608v16.329"/>
<circle id="circle" fill="#03a9f4" stroke="#03a9f4" stroke-miterlimit="10" cx="153.766" cy="197.117" r="5.897"/>
<path id="st03" fill="#03a9f4" stroke="#03a9f4" stroke-miterlimit="10" d="M145.953,216.62c-1.797,0,7.796-19.11,7.796-19.11
	s9.749,19.11,7.792,19.11C159.408,216.62,149.346,216.62,145.953,216.62z"/>
<circle id="circle2" fill="none" stroke="#03a9f4" stroke-width="4" stroke-miterlimit="10" cx="249.99" cy="97.82" r="58.365"/>
<circle id="circle3" fill="none" stroke="#03a9f4" stroke-width="4" stroke-linecap="round" stroke-linejoin="round" stroke-miterlimit="10" stroke-dasharray="20,10" cx="249.99" cy="97.82" r="44.286"/>
<path fill="none" stroke="#03a9f4" stroke-width="4" stroke-miterlimit="10" d="M252.517,155.7"/>
<path fill="none" stroke="#03a9f4" stroke-width="4" stroke-miterlimit="10" d="M64.431,198.3"/>
<path fill="none" stroke="#03a9f4" stroke-width="4" stroke-miterlimit="10" d="M220.682,161.17"/>
<path fill="none" stroke="#03a9f4" stroke-width="4" stroke-miterlimit="10" d="M180.432,183.852"/>
<path fill="none" stroke="#03a9f4" stroke-width="4" stroke-miterlimit="10" d="M124.666,223.972"/>
<path fill="none" stroke="#03a9f4" stroke-width="4" stroke-miterlimit="10" d="M64.431,189.996"/>
<path fill="none" stroke="#03a9f4" stroke-width="4" stroke-miterlimit="10" d="M212.506,142.683"/>
<path fill="none" stroke="#03a9f4" stroke-width="4" stroke-miterlimit="10" d="M168.797,167.854"/>
<path fill="none" stroke="#03a9f4" stroke-width="4" stroke-miterlimit="10" d="M123.486,200.452"/>
<path fill="none" stroke="#03a9f4" stroke-width="4" stroke-miterlimit="10" d="M64.431,165.628"/>
<polyline id="poly" fill="none" stroke="#03a9f4" stroke-width="4" stroke-miterlimit="10" points="225.685,150.898 198.365,212.59
	246.019,212.59 252.517,184.342 260.098,212.59 311,212.59 274.296,150.898 "/>
<g>
	<path id="s" fill="#03a9f4" d="M224.122,103.712l4.03-0.393c0.244,1.354,0.736,2.347,1.477,2.982c0.743,0.635,1.743,0.951,3.002,0.951
		c1.335,0,2.34-0.282,3.017-0.847c0.676-0.564,1.015-1.225,1.015-1.981c0-0.485-0.142-0.897-0.427-1.239
		c-0.286-0.339-0.781-0.637-1.491-0.889c-0.484-0.167-1.591-0.467-3.317-0.896c-2.221-0.55-3.778-1.227-4.675-2.029
		c-1.259-1.128-1.89-2.505-1.89-4.13c0-1.045,0.296-2.022,0.89-2.933c0.592-0.909,1.445-1.601,2.56-2.078
		c1.117-0.475,2.461-0.713,4.039-0.713c2.575,0,4.514,0.564,5.815,1.694c1.302,1.128,1.985,2.636,2.05,4.521l-4.142,0.182
		c-0.177-1.054-0.559-1.812-1.14-2.274c-0.584-0.462-1.46-0.693-2.625-0.693c-1.204,0-2.147,0.248-2.828,0.742
		c-0.438,0.317-0.657,0.741-0.657,1.273c0,0.485,0.206,0.9,0.617,1.245c0.521,0.439,1.791,0.896,3.806,1.373
		c2.016,0.475,3.507,0.968,4.472,1.477c0.966,0.508,1.724,1.203,2.269,2.085c0.546,0.882,0.819,1.971,0.819,3.269
		c0,1.175-0.328,2.277-0.979,3.303c-0.653,1.027-1.577,1.789-2.771,2.289c-1.196,0.5-2.684,0.749-4.465,0.749
		c-2.595,0-4.586-0.599-5.977-1.799C225.223,107.755,224.393,106.008,224.122,103.712z"/>
	<path id="s2" fill="#03a9f4" d="M243.241,103.712l4.031-0.393c0.242,1.354,0.735,2.347,1.477,2.982c0.743,0.635,1.742,0.951,3.002,0.951
		c1.333,0,2.34-0.282,3.017-0.847c0.676-0.564,1.015-1.225,1.015-1.981c0-0.485-0.144-0.897-0.428-1.239
		c-0.285-0.341-0.782-0.637-1.49-0.889c-0.485-0.167-1.591-0.467-3.317-0.896c-2.222-0.55-3.779-1.227-4.675-2.029
		c-1.259-1.128-1.89-2.505-1.89-4.13c0-1.045,0.295-2.022,0.89-2.933c0.592-0.909,1.444-1.601,2.56-2.078
		c1.115-0.475,2.461-0.713,4.039-0.713c2.575,0,4.514,0.564,5.815,1.694c1.302,1.128,1.984,2.636,2.05,4.521l-4.142,0.182
		c-0.178-1.054-0.559-1.812-1.141-2.274c-0.584-0.462-1.459-0.693-2.625-0.693c-1.204,0-2.146,0.248-2.827,0.742
		c-0.438,0.317-0.658,0.741-0.658,1.273c0,0.485,0.205,0.9,0.617,1.245c0.521,0.439,1.79,0.896,3.806,1.373
		c2.019,0.477,3.508,0.968,4.473,1.477c0.966,0.508,1.722,1.203,2.268,2.085c0.546,0.882,0.819,1.971,0.819,3.269
		c0,1.175-0.327,2.277-0.979,3.303c-0.655,1.027-1.578,1.789-2.772,2.289c-1.196,0.5-2.683,0.749-4.465,0.749
		c-2.595,0-4.585-0.599-5.978-1.799C244.342,107.755,243.512,106.008,243.241,103.712z"/>
	<path id="l" fill="#03a9f4" d="M263.521,110.389V90.038h4.143v16.894h10.302v3.458H263.521z"/>
</g>
</svg>
