<svg version="1.1" xmlns="http://www.w3.org/2000/svg" xmlns:xlink="http://www.w3.org/1999/xlink" x="0px" y="0px"
	 width="111.667px" height="112px" viewBox="0 0 111.667 112" enable-background="new 0 0 111.667 112" xml:space="preserve">
<g id="proxyrules">
	<circle fill="none" stroke="#FCFCFC" stroke-width="1.5" stroke-miterlimit="10" cx="55.93" cy="56.177" r="54"/>
	<path fill="none" stroke="#FCFCFC" stroke-width="1.5" stroke-miterlimit="10" d="M81.722,56.417"/>
	<line fill="none" stroke="#FCFCFC" stroke-width="1.5" stroke-miterlimit="10" x1="27.378" y1="43.512" x2="80.913" y2="43.512"/>
	<circle fill="#FCFCFC" cx="32.067" cy="38.373" r="1.432"/>
	<circle fill="#FCFCFC" cx="37.665" cy="38.373" r="1.432"/>
	<circle fill="#FCFCFC" cx="43.266" cy="38.373" r="1.432"/>
	<path fill="none" stroke="#FCFCFC" stroke-width="1.5" stroke-miterlimit="10" d="M78.87,78.584H50.29H28.785
		c-0.777,0-1.407-0.629-1.407-1.407v-42c0-0.777,0.63-1.407,1.407-1.407h50.62c0.777,0,1.406,0.63,1.406,1.407v41.516
		c0,0,0.018,0.663-0.583,1.22C79.512,78.577,78.87,78.584,78.87,78.584z"/>
	<path fill="none" stroke="#FCFCFC" stroke-width="1.5" stroke-miterlimit="10" d="M84.483,64.754"/>
	<circle fill="none" stroke="#FCFCFC" stroke-width="1.5" stroke-miterlimit="10" cx="57.463" cy="59.722" r="8.995"/>
	<ellipse fill="none" stroke="#FCFCFC" stroke-width="1.5" stroke-miterlimit="10" cx="57.463" cy="59.722" rx="3.912" ry="8.916"/>
	<line fill="none" stroke="#FCFCFC" stroke-width="1.5" stroke-miterlimit="10" x1="49.923" y1="64.626" x2="65.002" y2="64.626"/>
	<line fill="none" stroke="#FCFCFC" stroke-width="1.5" stroke-miterlimit="10" x1="49.223" y1="55.496" x2="65.405" y2="55.496"/>
	<line fill="none" stroke="#FCFCFC" stroke-width="1.5" stroke-miterlimit="10" x1="48.467" y1="60.092" x2="66.161" y2="60.092"/>
	<line fill="none" stroke="#FCFCFC" stroke-width="1.5" stroke-miterlimit="10" x1="37.3" y1="55.855" x2="47.09" y2="55.855"/>
	<line fill="none" stroke="#FCFCFC" stroke-width="1.5" stroke-miterlimit="10" x1="40.291" y1="59.721" x2="44.747" y2="59.721"/>
	<line fill="none" stroke="#FCFCFC" stroke-width="1.5" stroke-miterlimit="10" x1="33.972" y1="63.407" x2="47.117" y2="63.407"/>
</g>

</svg>
