<svg version="1.1" id="Layer_1" xmlns="http://www.w3.org/2000/svg" xmlns:xlink="http://www.w3.org/1999/xlink" x="0px" y="0px"
	 width="650px" height="350px" viewBox="0 0 650 350" style="enable-background:new 0 0 650 350;" xml:space="preserve">
<style type="text/css">
<![CDATA[
	.st11{
		stroke-dasharray: 800;
		stroke-dashoffset: 0;
		-webkit-animation: draw 4s linear forwards;
		animation: draw 4s linear forwards;

	}

	.st7{

		-webkit-animation: shades 4s linear forwards;
		animation: shades 4s linear forwards;
	}

	.st17, .st4{
		opacity:0;
		-webkit-animation: text 8s linear forwards;
		animation: text 8s linear forwards;

	}

	.st0{
		stroke-dasharray: 100;
		stroke-dashoffset: 0;
		-webkit-animation: dash 4s linear forwards;
		animation: dash 4s linear forwards;

	}

	.st1{
		stroke-dasharray: 500;
		stroke-dashoffset: 0;
		-webkit-animation: cloudR 4s linear forwards;
		animation: cloudR 4s linear forwards;

	}

	.st5{
		stroke-dasharray: 500;
		stroke-dashoffset: 0;
		-webkit-animation: cloudL 4s linear forwards;
		animation: cloudL 4s linear forwards;
	}

	.st14, .st6{
		stroke-dasharray: 60;
		stroke-dashoffset: 0;
		-webkit-animation: share 4s linear forwards;
		animation: share 4s linear forwards;
	}

	.st12, .st18, .st13{
		opacity:0;
		-webkit-animation: dots 4s ease-in forwards;
		animation: dots 4s ease-in forwards;
	}

	.st10{
		stroke-dasharray: 800;
		stroke-dashoffset: 0;
		-webkit-animation: keyc 4s linear forwards;
		animation: keyc 4s linear forwards;

	}

	.st8{

		stroke-dasharray: 800;
		stroke-dashoffset: 0;
		-webkit-animation: key 5s linear forwards;
		animation: key 5s linear forwards;

	}

	.st15{
		stroke-dasharray: 800;
		stroke-dashoffset: 0;
		-webkit-animation: cycle 4s linear forwards;
		animation: cycle 4s linear forwards;

	}

	.st16{

		stroke-dasharray: 800;
		stroke-dashoffset: 0;
		-webkit-animation: cycler 5s linear forwards;
		animation: cycler 5s linear forwards;

	}

	.st9{
		-webkit-animation: arrow 6s ease-out forwards;
		animation: arrow 6s ease-out forwards;
	}

	@-webkit-keyframes arrow{
		0%{opacity:0;}
		100%{opacity:1;}

	}

	@-webkit-keyframes cycle{
		0%{stroke-dashoffset: 800; fill:transparent;}
		100%{stroke-dashoffset: 0; fill:#FFD740;}

	}

	@-webkit-keyframes cycler{
		0%{stroke-dashoffset: 800; fill: transparent;}
		100%{stroke-dashoffset: 0; fill: #FFE57F;}

	}

	@-webkit-keyframes keyc{
		0%{stroke-dashoffset: 800; fill:transparent;}
		100%{stroke-dashoffset: 0; fill:#1DE9B6;}

	}

	@-webkit-keyframes key{
		0%{stroke-dashoffset: 800; fill: transparent;}
		100%{stroke-dashoffset: 0; fill: #64FFDA}

	}

	@-webkit-keyframes share{
		0%{stroke-dashoffset: 50;}
		100%{stroke-dashoffset: 0;}

	}

	@-webkit-keyframes cloudL{
		0%{stroke-dashoffset: 500; fill:transparent;}
		100%{stroke-dashoffset: 0; fill:#02A8F3;}

	}

	@-webkit-keyframes cloudR{
		0%{stroke-dashoffset: 500; fill:transparent;}
		100%{stroke-dashoffset: 0; fill:#40C4FF;}

	}

	@-webkit-keyframes dots{
		0%{opacity:0;}
		100%{opacity:1;}

	}

	@-webkit-keyframes dash{
		0%{stroke-dashoffset: 100;}
		100%{stroke-dashoffset: 0;}

	}


	@-webkit-keyframes text{
		0%{opacity:0;}
		100%{opacity:1;}

	}


	@-webkit-keyframes draw{
		0%{stroke-dashoffset: 800; fill:transparent;}
		100%{stroke-dashoffset: 0; fill:#FAFAFA;}

	}

	@-webkit-keyframes shades{
		0%{stroke-dashoffset: 800; fill:transparent;}
		100%{stroke-dashoffset: 0; fill:#78909C;}

	}

	.st0{fill-rule:evenodd;clip-rule:evenodd;fill:none;stroke:#FF6E40;stroke-width:2;stroke-linecap:round;stroke-miterlimit:10;stroke-dasharray:1,5;}
	.st1{fill-rule:evenodd;clip-rule:evenodd;fill:#40C4FF;stroke:#40C4FF;stroke-width:2;stroke-miterlimit:10;}
	.st2{fill:none;stroke:#FCFCFC;stroke-width:5;stroke-miterlimit:10;}
	.st3{fill:none;stroke:#03A9F4;stroke-width:4;stroke-miterlimit:10;}
	.st4{fill:#EEEEEE;}
	.st5{fill-rule:evenodd;clip-rule:evenodd;fill:#02A8F3;stroke:#02A8F3;stroke-width:2;stroke-miterlimit:10;}
	.st6{fill:none;stroke:#FCFCFC;stroke-width:4;stroke-miterlimit:10;}
	.st7{fill:#78909C;stroke:#78909C;stroke-width:2;stroke-miterlimit:10;}
	.st8{fill:#64FFDA;stroke:#64FFDA;stroke-width:2;stroke-miterlimit:10;}
	.st9{fill:#FCFCFC;}
	.st10{fill:#1DE9B6;stroke:#1DE9B6;stroke-width:2;stroke-miterlimit:10;}
	.st11{fill:#FAFAFA;stroke:#78909C;stroke-width:2;stroke-miterlimit:10;}
	.st12{fill:#FF8A80;stroke:#FF8A80;stroke-miterlimit:10;}
	.st13{fill:#78909C;stroke:#78909C;stroke-width:0.5;stroke-miterlimit:10;}
	.st14{fill:none;stroke:#FCFCFC;stroke-width:2;stroke-miterlimit:10;}
	.st15{fill:#FFD740;stroke:#FFD740;stroke-width:2;stroke-miterlimit:10;}
	.st16{fill:#FFE57F;stroke:#FFE57F;stroke-width:2;stroke-miterlimit:10;}
	.st17{fill:#78909C;}
	.st18{fill:#FDD835;stroke:#FDD835;stroke-miterlimit:10;}
]]>
</style>
<g id="rules">
	<circle class="st10" cx="472.839" cy="189.753" r="30.687"/>
	<path class="st8" d="M472.841,159.067c16.946,0,30.685,13.738,30.685,30.686s-13.738,30.688-30.685,30.688V159.067z"/>
	<circle class="st6" cx="464.248" cy="189.821" r="6.605"/>
	<line class="st6" x1="471.834" y1="189.821" x2="490.813" y2="189.821"/>
	<line class="st2" x1="485.803" y1="189.03" x2="485.803" y2="183.94"/>
	<path class="st5" d="M298.514,204.864c0-1.602,0-3.203,0-4.803c0.119-0.273,0.289-0.537,0.35-0.822
		c1.324-6.105,5.061-10.557,11.227-13.078c1.918-0.785,2.908-1.563,2.709-3.531c-0.086-0.824,0.213-1.703,0.445-2.533
		c2.637-9.367,11.633-14.922,22.152-13.701c0.973,0.113,1.773,0.279,2.65-0.645c5.582-5.893,12.652-8.203,21.098-7.088
		c11.117,1.467,19.916,11.861,18.674,22.043c-0.066,0.543,0.412,1.293,0.885,1.715c1.865,1.666,3.98,3.113,5.723,4.875
		c2.83,2.861,3.936,6.494,4.811,10.178c0,1.602,0,3.203,0,4.805c-0.113,0.34-0.266,0.676-0.336,1.025
		c-2.133,10.475-11.188,17.4-22.781,17.402c-15.904,0.004-31.807,0.023-47.711-0.008c-5.869-0.014-10.789-2.064-14.801-6.006
		C300.766,211.897,299.432,208.479,298.514,204.864z"/>
	<path class="st1" d="M341.875,162.237c4.816-3.264,10.494-4.432,16.988-3.574c11.117,1.467,19.916,11.861,18.674,22.043
		c-0.066,0.543,0.412,1.293,0.885,1.715c1.865,1.666,3.98,3.113,5.723,4.875c2.83,2.861,3.936,6.494,4.811,10.178
		c0,1.602,0,3.203,0,4.805c-0.113,0.34-0.266,0.676-0.336,1.025c-2.133,10.475-11.188,17.4-22.781,17.402
		c-10.863,0.002-17.113,0.012-23.963,0.008V162.237z"/>
	<path class="st11" d="M248.211,200.999h-91.869H87.221c-2.498,0-4.524-2.027-4.524-4.525V61.466c0-2.498,2.026-4.522,4.524-4.522
		h162.71c2.5,0,4.524,2.024,4.524,4.522v133.453c0,0,0.056,2.131-1.874,3.922C250.281,200.974,248.211,200.999,248.211,200.999z"/>
	<line class="st11" x1="82.696" y1="88.255" x2="254.78" y2="88.255"/>
	<circle class="st12" cx="97.77" cy="71.737" r="4.603"/>
	<circle class="st18" cx="115.764" cy="71.737" r="4.603"/>
	<circle class="st13" cx="133.769" cy="71.737" r="4.603"/>
	<g>
		<path class="st17" d="M95.085,131.318h1.227v4.209h0.028c0.195-0.35,0.501-0.669,0.877-0.864c0.363-0.224,0.795-0.349,1.255-0.349
			c0.905,0,2.355,0.558,2.355,2.886v4.013h-1.227v-3.873c0-1.102-0.404-2.008-1.561-2.008c-0.794,0-1.407,0.558-1.645,1.227
			c-0.07,0.167-0.083,0.349-0.083,0.585v4.069h-1.227V131.318z"/>
		<path class="st17" d="M104.246,132.851v1.618h1.756v0.934h-1.756v3.637c0,0.837,0.236,1.311,0.92,1.311
			c0.333,0,0.529-0.028,0.711-0.084l0.055,0.935c-0.237,0.083-0.613,0.167-1.087,0.167c-0.571,0-1.031-0.196-1.324-0.516
			c-0.334-0.377-0.474-0.976-0.474-1.771v-3.679h-1.045v-0.934h1.045v-1.241L104.246,132.851z"/>
		<path class="st17" d="M108.861,132.851v1.618h1.756v0.934h-1.756v3.637c0,0.837,0.237,1.311,0.919,1.311
			c0.334,0,0.529-0.028,0.71-0.084l0.056,0.935c-0.237,0.083-0.613,0.167-1.087,0.167c-0.571,0-1.032-0.196-1.324-0.516
			c-0.334-0.377-0.474-0.976-0.474-1.771v-3.679h-1.045v-0.934h1.045v-1.241L108.861,132.851z"/>
		<path class="st17" d="M111.999,136.67c0-0.864-0.014-1.561-0.056-2.201h1.101l0.07,1.156h0.028
			c0.488-0.837,1.296-1.311,2.383-1.311c1.645,0,2.871,1.38,2.871,3.429c0,2.425-1.491,3.624-3.065,3.624
			c-0.906,0-1.673-0.391-2.077-1.06h-0.028v3.666h-1.227V136.67z M113.226,138.468c0,0.167,0.014,0.349,0.055,0.502
			c0.209,0.851,0.962,1.436,1.826,1.436c1.296,0,2.049-1.06,2.049-2.606c0-1.352-0.697-2.509-1.993-2.509
			c-0.836,0-1.631,0.586-1.868,1.506c-0.028,0.167-0.069,0.348-0.069,0.502V138.468z"/>
		<path class="st17" d="M120.449,141.367c-0.474,0-0.809-0.376-0.809-0.864c0-0.516,0.349-0.878,0.823-0.878
			c0.502,0,0.822,0.362,0.822,0.878c0,0.488-0.32,0.864-0.822,0.864H120.449z M120.463,136.447c-0.474,0-0.808-0.377-0.808-0.864
			c0-0.516,0.348-0.878,0.822-0.878c0.502,0,0.822,0.362,0.822,0.878c0,0.487-0.32,0.864-0.822,0.864H120.463z"/>
		<path class="st17" d="M121.788,141.771l3.875-10.104h0.962l-3.903,10.104H121.788z"/>
		<path class="st17" d="M126.57,141.771l3.875-10.104h0.962l-3.903,10.104H126.57z"/>
		<path class="st17" d="M132.873,134.469l0.906,3.414c0.181,0.752,0.362,1.463,0.488,2.159h0.042
			c0.153-0.682,0.376-1.407,0.599-2.146l1.101-3.428h1.032l1.045,3.372c0.25,0.794,0.446,1.52,0.599,2.201h0.042
			c0.111-0.682,0.292-1.394,0.516-2.188l0.962-3.386h1.212l-2.174,6.744h-1.115l-1.032-3.219c-0.236-0.767-0.432-1.436-0.599-2.23
			h-0.028c-0.167,0.809-0.376,1.521-0.613,2.243l-1.087,3.206h-1.115l-2.035-6.744H132.873z"/>
		<path class="st17" d="M143.136,134.469l0.905,3.414c0.182,0.752,0.363,1.463,0.488,2.159h0.042
			c0.153-0.682,0.376-1.407,0.599-2.146l1.101-3.428h1.031l1.045,3.372c0.25,0.794,0.446,1.52,0.599,2.201h0.042
			c0.111-0.682,0.292-1.394,0.516-2.188l0.961-3.386h1.212l-2.174,6.744h-1.115l-1.031-3.219c-0.237-0.767-0.432-1.436-0.599-2.23
			h-0.028c-0.167,0.809-0.376,1.521-0.613,2.243l-1.087,3.206h-1.115l-2.035-6.744H143.136z"/>
		<path class="st17" d="M153.398,134.469l0.906,3.414c0.181,0.752,0.362,1.463,0.488,2.159h0.042
			c0.153-0.682,0.376-1.407,0.599-2.146l1.101-3.428h1.031l1.045,3.372c0.25,0.794,0.446,1.52,0.599,2.201h0.042
			c0.112-0.682,0.292-1.394,0.516-2.188l0.961-3.386h1.213l-2.174,6.744h-1.115l-1.032-3.219c-0.237-0.767-0.432-1.436-0.599-2.23
			h-0.028c-0.167,0.809-0.375,1.521-0.613,2.243l-1.087,3.206h-1.115l-2.035-6.744H153.398z"/>
		<path class="st17" d="M163.145,141.367c-0.474,0-0.808-0.376-0.808-0.879c0-0.501,0.348-0.877,0.836-0.877
			c0.487,0,0.822,0.361,0.822,0.877c0,0.503-0.334,0.879-0.836,0.879H163.145z"/>
		<path class="st17" d="M171.341,131.318v8.153c0,0.6,0.014,1.281,0.055,1.741h-1.1l-0.056-1.171h-0.027
			c-0.377,0.753-1.185,1.325-2.287,1.325c-1.63,0-2.898-1.38-2.898-3.429c-0.014-2.259,1.394-3.624,3.024-3.624
			c1.046,0,1.743,0.489,2.036,1.018h0.027v-4.014H171.341z M170.115,137.213c0-0.166-0.014-0.362-0.056-0.528
			c-0.181-0.767-0.85-1.408-1.77-1.408c-1.268,0-2.021,1.115-2.021,2.592c0,1.38,0.683,2.509,1.993,2.509
			c0.822,0,1.575-0.557,1.798-1.462c0.042-0.168,0.056-0.335,0.056-0.531V137.213z"/>
		<path class="st17" d="M176.126,141.367c-1.812,0-3.234-1.338-3.234-3.471c0-2.257,1.492-3.582,3.345-3.582
			c1.938,0,3.247,1.407,3.247,3.457c0,2.508-1.742,3.596-3.345,3.596H176.126z M176.168,140.447c1.171,0,2.048-1.102,2.048-2.635
			c0-1.143-0.571-2.578-2.021-2.578c-1.436,0-2.063,1.338-2.063,2.62c0,1.478,0.836,2.593,2.021,2.593H176.168z"/>
		<path class="st17" d="M181.036,136.294c0-0.711-0.028-1.269-0.056-1.825h1.073l0.056,1.086h0.042
			c0.376-0.641,1.004-1.24,2.132-1.24c0.906,0,1.603,0.558,1.896,1.353h0.028c0.208-0.391,0.487-0.669,0.766-0.879
			c0.404-0.307,0.836-0.474,1.477-0.474c0.906,0,2.229,0.586,2.229,2.928v3.971h-1.198v-3.818c0-1.31-0.487-2.076-1.463-2.076
			c-0.711,0-1.241,0.516-1.463,1.101c-0.056,0.182-0.098,0.404-0.098,0.614v4.18h-1.199v-4.042c0-1.086-0.474-1.853-1.407-1.853
			c-0.753,0-1.324,0.612-1.52,1.227c-0.069,0.181-0.098,0.39-0.098,0.599v4.069h-1.198V136.294z"/>
		<path class="st17" d="M197.417,139.597c0,0.585,0.028,1.156,0.097,1.616h-1.101l-0.111-0.85h-0.042
			c-0.362,0.53-1.101,1.004-2.063,1.004c-1.365,0-2.063-0.962-2.063-1.938c0-1.631,1.449-2.522,4.055-2.51v-0.138
			c0-0.559-0.153-1.575-1.532-1.563c-0.641,0-1.296,0.183-1.771,0.502l-0.279-0.821c0.557-0.348,1.38-0.586,2.23-0.586
			c2.077,0,2.579,1.407,2.579,2.76V139.597z M196.219,137.771c-1.338-0.028-2.857,0.209-2.857,1.519c0,0.809,0.53,1.171,1.143,1.171
			c0.892,0,1.463-0.557,1.658-1.129c0.042-0.125,0.056-0.265,0.056-0.391V137.771z"/>
		<path class="st17" d="M199.972,133.228c-0.46,0-0.767-0.362-0.767-0.794c0-0.433,0.32-0.781,0.794-0.781s0.78,0.349,0.78,0.781
			c0,0.432-0.306,0.794-0.794,0.794H199.972z M199.386,141.213v-6.744h1.227v6.744H199.386z"/>
		<path class="st17" d="M202.649,136.294c0-0.711-0.015-1.269-0.056-1.825h1.087l0.07,1.101h0.028
			c0.334-0.628,1.115-1.255,2.23-1.255c0.933,0,2.383,0.558,2.383,2.871v4.027h-1.227v-3.888c0-1.087-0.404-2.007-1.561-2.007
			c-0.794,0-1.421,0.571-1.644,1.254c-0.056,0.153-0.083,0.377-0.083,0.571v4.069h-1.227V136.294z"/>
		<path class="st17" d="M210.903,141.367c-0.474,0-0.808-0.376-0.808-0.879c0-0.501,0.348-0.877,0.836-0.877
			c0.488,0,0.822,0.361,0.822,0.877c0,0.503-0.334,0.879-0.836,0.879H210.903z"/>
		<path class="st17" d="M218.083,140.977c-0.321,0.152-1.032,0.391-1.937,0.391c-2.035,0-3.359-1.38-3.359-3.457
			c0-2.076,1.422-3.596,3.624-3.596c0.725,0,1.366,0.182,1.7,0.363l-0.278,0.934c-0.292-0.153-0.752-0.321-1.421-0.321
			c-1.547,0-2.383,1.157-2.383,2.564c0,1.562,1.004,2.522,2.341,2.522c0.697,0,1.157-0.166,1.505-0.32L218.083,140.977z"/>
		<path class="st17" d="M222.183,141.367c-1.812,0-3.234-1.338-3.234-3.471c0-2.257,1.492-3.582,3.345-3.582
			c1.938,0,3.247,1.407,3.247,3.457c0,2.508-1.742,3.596-3.345,3.596H222.183z M222.225,140.447c1.17,0,2.048-1.102,2.048-2.635
			c0-1.143-0.571-2.578-2.021-2.578c-1.436,0-2.063,1.338-2.063,2.62c0,1.478,0.836,2.593,2.021,2.593H222.225z"/>
		<path class="st17" d="M227.093,136.294c0-0.711-0.027-1.269-0.055-1.825h1.073l0.056,1.086h0.042
			c0.376-0.641,1.004-1.24,2.132-1.24c0.906,0,1.603,0.558,1.896,1.353h0.028c0.209-0.391,0.487-0.669,0.767-0.879
			c0.404-0.307,0.836-0.474,1.477-0.474c0.906,0,2.229,0.586,2.229,2.928v3.971h-1.198v-3.818c0-1.31-0.488-2.076-1.463-2.076
			c-0.711,0-1.241,0.516-1.463,1.101c-0.056,0.182-0.098,0.404-0.098,0.614v4.18h-1.199v-4.042c0-1.086-0.474-1.853-1.408-1.853
			c-0.753,0-1.324,0.612-1.519,1.227c-0.069,0.181-0.098,0.39-0.098,0.599v4.069h-1.199V136.294z"/>
	</g>
	<path class="st5" d="M365.811,212.015"/>
	<path class="st11" d="M251.035,75.404"/>
	<path class="st11" d="M202.858,252.716h-91.869H41.868c-2.498,0-4.524-2.027-4.524-4.525V113.183c0-2.498,2.026-4.523,4.524-4.523
		h162.71c2.5,0,4.524,2.025,4.524,4.523v133.453c0,0,0.056,2.129-1.874,3.922C204.928,252.69,202.858,252.716,202.858,252.716z"/>
	<path class="st7" d="M202.858,252.716h-91.869H41.868c-2.498,0-4.524-1.587-4.524-3.542V143.511c0-1.955,2.026-3.539,4.524-3.539
		h162.71c2.5,0,4.524,1.584,4.524,3.539v104.446c0,0,0.056,1.666-1.874,3.069C204.928,252.696,202.858,252.716,202.858,252.716z"/>
	<line class="st11" x1="37.343" y1="139.972" x2="209.427" y2="139.972"/>
	<circle class="st12" cx="52.417" cy="123.453" r="4.603"/>
	<circle class="st18" cx="70.411" cy="123.453" r="4.603"/>
	<circle class="st13" cx="88.416" cy="123.453" r="4.603"/>
	<polyline class="st0" points="122.675,252.716 122.675,282.878 348.475,282.878 348.475,221.44 	"/>
	<polyline class="st0" points="352.475,282.878 473.004,282.878 473.004,221.44 	"/>
	<circle class="st15" cx="582.589" cy="189.753" r="30.687"/>
	<path class="st16" d="M582.591,159.067c16.946,0,30.685,13.738,30.685,30.686s-13.738,30.688-30.685,30.688V159.067z"/>
	<polyline class="st0" points="479.004,282.878 582.754,282.878 582.754,221.44 	"/>
	<g>
		<g>
			<path class="st6" d="M602.781,189.553c0,11.152-9.04,20.192-20.192,20.192c-3.669,0-7.108-0.979-10.073-2.688"/>
			<g>
				<polygon class="st9" points="577.916,203.387 566.14,201.267 570.19,212.525 				"/>
			</g>
		</g>
	</g>
	<g>
		<g>
			<path class="st6" d="M562.396,189.553c0-11.152,9.04-20.192,20.192-20.192c4.242,0,8.179,1.308,11.428,3.542"/>
			<g>
				<polygon class="st9" points="588.349,176.121 599.917,179.18 596.783,167.632 				"/>
			</g>
		</g>
	</g>
	<circle class="st14" cx="327.8" cy="196.136" r="5.333"/>
	<circle class="st14" cx="358.466" cy="178.47" r="5.333"/>
	<circle class="st14" cx="357.466" cy="204.136" r="5.333"/>
	<line class="st14" x1="333.134" y1="193.427" x2="354.475" y2="180.94"/>
	<g>
		<path class="st4" d="M49.732,186.034h1.227v4.209h0.028c0.195-0.35,0.501-0.668,0.877-0.863c0.363-0.225,0.795-0.35,1.255-0.35
			c0.905,0,2.355,0.559,2.355,2.887v4.012h-1.227v-3.873c0-1.102-0.404-2.008-1.561-2.008c-0.794,0-1.407,0.559-1.645,1.227
			c-0.07,0.168-0.083,0.35-0.083,0.586v4.068h-1.227V186.034z"/>
		<path class="st4" d="M58.893,187.567v1.617h1.756v0.934h-1.756v3.637c0,0.838,0.236,1.311,0.92,1.311
			c0.333,0,0.529-0.027,0.711-0.084l0.055,0.936c-0.237,0.082-0.613,0.166-1.087,0.166c-0.571,0-1.031-0.195-1.324-0.516
			c-0.334-0.377-0.474-0.975-0.474-1.77v-3.68h-1.045v-0.934h1.045v-1.24L58.893,187.567z"/>
		<path class="st4" d="M63.508,187.567v1.617h1.756v0.934h-1.756v3.637c0,0.838,0.237,1.311,0.919,1.311
			c0.334,0,0.529-0.027,0.71-0.084l0.056,0.936c-0.237,0.082-0.613,0.166-1.087,0.166c-0.571,0-1.032-0.195-1.324-0.516
			c-0.334-0.377-0.474-0.975-0.474-1.77v-3.68h-1.045v-0.934h1.045v-1.24L63.508,187.567z"/>
		<path class="st4" d="M66.646,191.386c0-0.863-0.014-1.561-0.056-2.201h1.101l0.07,1.156h0.028
			c0.488-0.836,1.296-1.311,2.383-1.311c1.645,0,2.871,1.381,2.871,3.43c0,2.424-1.491,3.623-3.065,3.623
			c-0.906,0-1.673-0.391-2.077-1.059h-0.028v3.666h-1.227V191.386z M67.873,193.185c0,0.166,0.014,0.348,0.055,0.502
			c0.209,0.85,0.962,1.436,1.826,1.436c1.296,0,2.049-1.061,2.049-2.607c0-1.352-0.697-2.508-1.993-2.508
			c-0.836,0-1.631,0.586-1.868,1.506c-0.028,0.166-0.069,0.348-0.069,0.502V193.185z"/>
		<path class="st4" d="M75.096,196.083c-0.474,0-0.809-0.375-0.809-0.863c0-0.516,0.349-0.879,0.823-0.879
			c0.502,0,0.822,0.363,0.822,0.879c0,0.488-0.32,0.863-0.822,0.863H75.096z M75.11,191.163c-0.474,0-0.808-0.377-0.808-0.863
			c0-0.516,0.348-0.879,0.822-0.879c0.502,0,0.822,0.363,0.822,0.879c0,0.486-0.32,0.863-0.822,0.863H75.11z"/>
		<path class="st4" d="M76.435,196.487l3.875-10.104h0.962l-3.903,10.104H76.435z"/>
		<path class="st4" d="M81.217,196.487l3.875-10.104h0.962l-3.903,10.104H81.217z"/>
		<path class="st4" d="M87.52,189.185l0.906,3.414c0.181,0.752,0.362,1.463,0.488,2.16h0.042c0.153-0.682,0.376-1.408,0.599-2.146
			l1.101-3.428h1.032l1.045,3.373c0.25,0.793,0.446,1.52,0.599,2.201h0.042c0.111-0.682,0.292-1.395,0.516-2.188l0.962-3.387h1.212
			l-2.174,6.744h-1.115l-1.032-3.219c-0.236-0.766-0.432-1.436-0.599-2.23h-0.028c-0.167,0.809-0.376,1.521-0.613,2.244
			l-1.087,3.205H88.3l-2.035-6.744H87.52z"/>
		<path class="st4" d="M97.783,189.185l0.905,3.414c0.182,0.752,0.363,1.463,0.488,2.16h0.042c0.153-0.682,0.376-1.408,0.599-2.146
			l1.101-3.428h1.031l1.045,3.373c0.25,0.793,0.446,1.52,0.599,2.201h0.042c0.111-0.682,0.292-1.395,0.516-2.188l0.961-3.387h1.212
			l-2.174,6.744h-1.115l-1.031-3.219c-0.237-0.766-0.432-1.436-0.599-2.23h-0.028c-0.167,0.809-0.376,1.521-0.613,2.244
			l-1.087,3.205h-1.115l-2.035-6.744H97.783z"/>
		<path class="st4" d="M108.045,189.185l0.906,3.414c0.181,0.752,0.362,1.463,0.488,2.16h0.042c0.153-0.682,0.376-1.408,0.599-2.146
			l1.101-3.428h1.031l1.045,3.373c0.25,0.793,0.446,1.52,0.599,2.201h0.042c0.112-0.682,0.292-1.395,0.516-2.188l0.961-3.387h1.213
			l-2.174,6.744h-1.115l-1.032-3.219c-0.237-0.766-0.432-1.436-0.599-2.23h-0.028c-0.167,0.809-0.375,1.521-0.613,2.244
			l-1.087,3.205h-1.115l-2.035-6.744H108.045z"/>
		<path class="st4" d="M117.792,196.083c-0.474,0-0.808-0.375-0.808-0.879c0-0.5,0.348-0.877,0.836-0.877
			c0.487,0,0.822,0.361,0.822,0.877c0,0.504-0.334,0.879-0.836,0.879H117.792z"/>
		<path class="st4" d="M125.988,186.034v8.154c0,0.6,0.014,1.281,0.055,1.74h-1.1l-0.056-1.17h-0.027
			c-0.377,0.752-1.185,1.324-2.287,1.324c-1.63,0-2.898-1.379-2.898-3.428c-0.014-2.26,1.394-3.625,3.024-3.625
			c1.046,0,1.743,0.49,2.036,1.018h0.027v-4.014H125.988z M124.762,191.929c0-0.166-0.014-0.361-0.056-0.527
			c-0.181-0.768-0.85-1.408-1.77-1.408c-1.268,0-2.021,1.115-2.021,2.592c0,1.379,0.683,2.508,1.993,2.508
			c0.822,0,1.575-0.557,1.798-1.461c0.042-0.168,0.056-0.336,0.056-0.531V191.929z"/>
		<path class="st4" d="M130.773,196.083c-1.812,0-3.234-1.338-3.234-3.471c0-2.256,1.492-3.582,3.345-3.582
			c1.938,0,3.247,1.408,3.247,3.457c0,2.508-1.742,3.596-3.345,3.596H130.773z M130.815,195.163c1.171,0,2.048-1.102,2.048-2.635
			c0-1.143-0.571-2.578-2.021-2.578c-1.436,0-2.063,1.338-2.063,2.621c0,1.477,0.836,2.592,2.021,2.592H130.815z"/>
		<path class="st4" d="M135.683,191.011c0-0.711-0.028-1.27-0.056-1.826h1.073l0.056,1.086h0.042c0.376-0.641,1.004-1.24,2.132-1.24
			c0.906,0,1.603,0.559,1.896,1.354h0.028c0.208-0.391,0.487-0.67,0.766-0.879c0.404-0.307,0.836-0.475,1.477-0.475
			c0.906,0,2.229,0.586,2.229,2.928v3.971h-1.198v-3.818c0-1.309-0.487-2.076-1.463-2.076c-0.711,0-1.241,0.516-1.463,1.102
			c-0.056,0.182-0.098,0.404-0.098,0.613v4.18h-1.199v-4.041c0-1.086-0.474-1.854-1.407-1.854c-0.753,0-1.324,0.613-1.52,1.227
			c-0.069,0.182-0.098,0.391-0.098,0.6v4.068h-1.198V191.011z"/>
		<path class="st4" d="M152.064,194.313c0,0.584,0.028,1.156,0.097,1.615h-1.101l-0.111-0.85h-0.042
			c-0.362,0.531-1.101,1.004-2.063,1.004c-1.365,0-2.063-0.961-2.063-1.938c0-1.631,1.449-2.521,4.055-2.51v-0.137
			c0-0.559-0.153-1.576-1.532-1.563c-0.641,0-1.296,0.182-1.771,0.502l-0.279-0.822c0.557-0.348,1.38-0.586,2.23-0.586
			c2.077,0,2.579,1.408,2.579,2.76V194.313z M150.866,192.487c-1.338-0.027-2.857,0.209-2.857,1.52c0,0.809,0.53,1.17,1.143,1.17
			c0.892,0,1.463-0.557,1.658-1.129c0.042-0.125,0.056-0.264,0.056-0.391V192.487z"/>
		<path class="st4" d="M154.619,187.944c-0.46,0-0.767-0.363-0.767-0.795s0.32-0.781,0.794-0.781s0.78,0.35,0.78,0.781
			s-0.306,0.795-0.794,0.795H154.619z M154.033,195.929v-6.744h1.227v6.744H154.033z"/>
		<path class="st4" d="M157.296,191.011c0-0.711-0.015-1.27-0.056-1.826h1.087l0.07,1.102h0.028c0.334-0.629,1.115-1.256,2.23-1.256
			c0.933,0,2.383,0.559,2.383,2.871v4.027h-1.227v-3.887c0-1.088-0.404-2.008-1.561-2.008c-0.794,0-1.421,0.572-1.644,1.254
			c-0.056,0.154-0.083,0.377-0.083,0.572v4.068h-1.227V191.011z"/>
		<path class="st4" d="M165.55,196.083c-0.474,0-0.808-0.375-0.808-0.879c0-0.5,0.348-0.877,0.836-0.877
			c0.488,0,0.822,0.361,0.822,0.877c0,0.504-0.334,0.879-0.836,0.879H165.55z"/>
		<path class="st4" d="M172.729,195.692c-0.321,0.152-1.032,0.391-1.937,0.391c-2.035,0-3.359-1.379-3.359-3.457
			c0-2.076,1.422-3.596,3.624-3.596c0.725,0,1.366,0.182,1.7,0.363l-0.278,0.934c-0.292-0.152-0.752-0.32-1.421-0.32
			c-1.547,0-2.383,1.156-2.383,2.564c0,1.561,1.004,2.521,2.341,2.521c0.697,0,1.157-0.166,1.505-0.32L172.729,195.692z"/>
		<path class="st4" d="M176.83,196.083c-1.812,0-3.234-1.338-3.234-3.471c0-2.256,1.492-3.582,3.345-3.582
			c1.938,0,3.247,1.408,3.247,3.457c0,2.508-1.742,3.596-3.345,3.596H176.83z M176.872,195.163c1.17,0,2.048-1.102,2.048-2.635
			c0-1.143-0.571-2.578-2.021-2.578c-1.436,0-2.063,1.338-2.063,2.621c0,1.477,0.836,2.592,2.021,2.592H176.872z"/>
		<path class="st4" d="M181.74,191.011c0-0.711-0.027-1.27-0.055-1.826h1.073l0.056,1.086h0.042c0.376-0.641,1.004-1.24,2.132-1.24
			c0.906,0,1.603,0.559,1.896,1.354h0.028c0.209-0.391,0.487-0.67,0.767-0.879c0.404-0.307,0.836-0.475,1.477-0.475
			c0.906,0,2.229,0.586,2.229,2.928v3.971h-1.198v-3.818c0-1.309-0.488-2.076-1.463-2.076c-0.711,0-1.241,0.516-1.463,1.102
			c-0.056,0.182-0.098,0.404-0.098,0.613v4.18h-1.199v-4.041c0-1.086-0.474-1.854-1.408-1.854c-0.753,0-1.324,0.613-1.519,1.227
			c-0.069,0.182-0.098,0.391-0.098,0.6v4.068h-1.199V191.011z"/>
	</g>
	<line class="st14" x1="332.864" y1="197.804" x2="352.133" y2="203.136"/>
	<path class="st3" d="M836.4,388.443"/>
</g>
</svg>
