<svg version="1.1" id="Layer_1" xmlns="http://www.w3.org/2000/svg" xmlns:xlink="http://www.w3.org/1999/xlink" x="0px" y="0px" width="116px" height="116px" viewBox="0 0 350 350" enable-background="new 0 0 350 350" xml:space="preserve">

<!-- <defs>
<style>

path, polyline{
    stroke-dasharray: 1000;
    stroke-dashoffset: 0;
    -webkit-animation: dash 2s linear forwards;
    animation: dash 2s linear forwards;

  }

  @-webkit-keyframes dash{

    from{
      stroke-dashoffset: 1000;

    }
    to{
      stroke-dashoffset: 0;

    }
  }

</style>

</defs> -->

<g id="secure">
	<path display="inline" fill="none" stroke="#03a9f4" stroke-width="4" stroke-miterlimit="10" d="M274.832,240
		c-14.887,22.634-99.499,68.751-99.499,68.751S90.719,262.634,75.833,240c-27.338-41.565,0-173.168,0-173.168l99.501-26.097 l99.499,26.097C274.832,66.832,302.171,198.435,274.832,240z"/>
	<path display="inline" fill="none" stroke="#03a9f4" stroke-width="4" stroke-miterlimit="10" stroke-dasharray="24,14" d="M256.787,228.165c-12.187,18.529-81.454,56.282-81.454,56.282s-69.269-37.753-81.456-56.282c-22.381-34.027,0-141.763,0-141.763
		l81.456-21.364l81.454,21.364C256.787,86.402,279.168,194.138,256.787,228.165z"/>
	<path display="inline" fill="none" stroke="#03a9f4" stroke-width="4" stroke-miterlimit="10" d="M236.655,83.024"/>
	<polyline display="inline" fill="none" stroke="#03a9f4" stroke-width="4" stroke-miterlimit="10" points="122.041,175.041 157,209 234.496,131.503 	"/>
</g>
</svg>
