<svg version="1.1" id="Layer_1" xmlns="http://www.w3.org/2000/svg" xmlns:xlink="http://www.w3.org/1999/xlink" x="0px" y="0px"
	 width="114px" height="114px" viewBox="0 0 114 114" enable-background="new 0 0 114 114" xml:space="preserve">
<g id="cms" stroke-width="2" stroke-miterlimit="10">
	<polygon fill="none" stroke="#1BA399"  points="29.659,104.396 2.44,57.253
		29.659,10.108 84.096,10.108 111.316,57.253 84.096,104.396 	"/>
	<line fill="none" stroke="#1BA399"  x1="29.659" y1="10.108" x2="29.659" y2="104.396"/>
	<line fill="none" stroke="#1BA399"  x1="22.707" y1="92.356" x2="91.048" y2="92.356"/>
	<line fill="none" stroke="#1BA399"  x1="29.659" y1="11.647" x2="97.683" y2="79.671"/>
	<line fill="none" stroke="#1BA399"  x1="84.096" y1="104.396" x2="14.877" y2="35.178"/>
	<line fill="none" stroke="#1BA399"  x1="15.475" y1="79.074" x2="83.499" y2="11.05"/>
	<line fill="none" stroke="#1BA399"  x1="30.408" y1="104.396" x2="99.626" y2="35.179"/>
	<line fill="none" stroke="#1BA399"  x1="83.499" y1="103.799" x2="98.957" y2="35.848"/>
	<line fill="none" stroke="#1BA399"  x1="15.606" y1="36.17" x2="84.096" y2="10.819"/>
	<circle fill="#1BA399" cx="43.887" cy="25.875" r="2.665"/>
	<circle fill="#1BA399" cx="56.503" cy="37.843" r="2.665"/>
	<circle fill="#1BA399" cx="29.659" cy="92.356" r="2.664"/>
	<circle fill="#1BA399" cx="83.499" cy="103.799" r="2.665"/>
	<circle fill="#1BA399" cx="76.084" cy="58.415" r="2.665"/>
	<circle fill="#1BA399" cx="91.047" cy="92.356" r="2.665"/>
	<circle fill="#1BA399" cx="97.683" cy="79.671" r="2.665"/>
	<circle fill="#1BA399" cx="89.964" cy="72.452" r="2.665"/>
	<circle fill="#1BA399" cx="56.999" cy="77.781" r="2.664"/>
	<circle fill="#1BA399" cx="72.119" cy="92.356" r="2.665"/>
	<circle fill="#1BA399" cx="42.747" cy="92.356" r="2.665"/>
	<circle fill="#1BA399" cx="30.408" cy="104.396" r="2.665"/>
	<circle fill="#1BA399" cx="98.957" cy="36.17" r="2.665"/>
	<circle fill="#1BA399" cx="83.499" cy="11.05" r="2.665"/>
	<circle fill="#1BA399" cx="29.659" cy="10.819" r="2.664"/>
	<circle fill="#1BA399" cx="29.659" cy="65.185" r="2.664"/>
	<circle fill="#1BA399" cx="14.877" cy="79.074" r="2.665"/>
	<circle fill="#1BA399" cx="37.418" cy="57.252" r="2.665"/>
	<circle fill="#1BA399" cx="30.408" cy="50.313" r="2.665"/>
	<circle fill="#1BA399" cx="15.606" cy="36.17" r="2.665"/>
</g>
</svg>
