<svg version="1.1" id="Layer_1" xmlns="http://www.w3.org/2000/svg" xmlns:xlink="http://www.w3.org/1999/xlink" x="0px" y="0px"
	 width="114px" height="114px" viewBox="0 0 114 114" enable-background="new 0 0 114 114" xml:space="preserve">
<g id="git" stroke-width="2" stroke-miterlimit="10">
	<path fill="none" stroke="#F78980"  d="M62.542,108.208c-2.889,2.89-7.575,2.89-10.464,0
		L6.233,62.363c-2.889-2.889-2.889-7.575,0-10.464l34.958-34.958L52.078,6.054c2.89-2.889,7.576-2.889,10.464,0l45.845,45.845
		c2.89,2.89,2.89,7.576,0,10.464L62.542,108.208z"/>
	<circle fill="#F78980" cx="77.942" cy="54" r="5.625"/>
	<circle fill="#F78980" cx="57.271" cy="33.74" r="5.625"/>
	<circle fill="#F78980" cx="57" cy="71.625" r="5.625"/>
	<line fill="none" stroke="#F78980"  x1="56.75" y1="39.365" x2="56.75" y2="66"/>
	<line fill="none" stroke="#F78980"  x1="53.277" y1="29.776" x2="40.816" y2="17.315"/>
	<line fill="none" stroke="#F78980"  x1="73.755" y1="50.254" x2="61.229" y2="37.728"/>
</g>
</svg>
