<svg version="1.1" id="Layer_1" xmlns="http://www.w3.org/2000/svg" xmlns:xlink="http://www.w3.org/1999/xlink" x="0px" y="0px"
	 width="114px" height="114px" viewBox="0 0 114 114" enable-background="new 0 0 114 114" xml:space="preserve">
<g id="jam" stroke-width="2" stroke-miterlimit="10">
	<path fill="none" stroke="#CDB0D6"  d="M78.432,35.436c0,0,4.011-7.771-14.037-8.272
		C46.346,26.664,8.745,36.94,3.982,51.48c-4.763,14.538,18.8,9.023,20.304,10.528c1.504,1.503,19.553,11.78,19.553,11.78
		s6.267,3.009,16.293,0c10.026-3.008,46.125-18.299,46.125-18.299s7.769-5.113,1.001-8.322
		c-6.768-3.209-23.563-10.479-25.317-10.228C80.187,37.191,78.432,35.436,78.432,35.436z"/>
	<path fill="none" stroke="#CDB0D6" d="M67.11,39.36c0,0-3.992-5.988-17.217-3.493
		c-13.226,2.495-11.229,3.992-9.981,6.487c1.248,2.496-11.229,0.25-9.482,9.981c0,0,0.749,6.488,15.471,4.741
		c0,0,2.328-0.999,2.786,3.742c0.458,4.741,12.437,3.743,18.424,0c5.988-3.742,9.981,1.497,20.212-6.986
		c0,0,4.741-6.488-7.236-7.985C80.086,45.848,84.328,38.363,67.11,39.36z"/>
	<path fill="none" stroke="#CDB0D6" d="M110.027,49.635
		c5.777,17.635-12.725,21.167-23.956,25.491S69.5,87.25,51.75,86.854S41,78,19,75.126S2.878,56,2.878,56l0.486-1.512"/>
</g>
</svg>
