<?xml version="1.0" encoding="utf-8"?>
<!-- Generator: Adobe Illustrator 16.0.0, SVG Export Plug-In . SVG Version: 6.00 Build 0)  -->
<!DOCTYPE svg PUBLIC "-//W3C//DTD SVG 1.1//EN" "http://www.w3.org/Graphics/SVG/1.1/DTD/svg11.dtd">
<svg version="1.1" id="Layer_1" xmlns="http://www.w3.org/2000/svg" xmlns:xlink="http://www.w3.org/1999/xlink" x="0px" y="0px"
	 width="114px" height="114px" viewBox="0 0 114 114" enable-background="new 0 0 114 114" xml:space="preserve">
<g id="lock" stroke-width="2" stroke-miterlimit="10">
	<g>
		<polygon fill="none" stroke="#757575" points="59.653,48.313 54.403,48.313
			54.403,50.938 54.403,52.25 57.028,52.25 57.028,56 54.403,58.25 54.403,65.375 57.028,65.375 57.028,68 59.653,68 		"/>
		<line fill="none" stroke="#757575" x1="54.403" y1="61.625" x2="57.028" y2="61.625"/>
	</g>
	<path fill="none" stroke="#757575" d="M34.5,37.17v-8.714
		c0-11.661,9.453-21.114,21.114-21.114h1.079c11.66,0,21.114,9.453,21.114,21.114v8.714"/>
	<path fill="none" stroke="#757575" d="M110,96.307c0,4.418-3.582,8-8,8H11.584
		c-4.418,0-8-3.582-8-8V45.169c0-4.418,3.582-8,8-8H102c4.418,0,8,3.582,8,8V96.307z"/>
</g>
</svg>
