<?xml version="1.0" encoding="utf-8"?>
<!-- Generator: Adobe Illustrator 16.0.0, SVG Export Plug-In . SVG Version: 6.00 Build 0)  -->
<!DOCTYPE svg PUBLIC "-//W3C//DTD SVG 1.1//EN" "http://www.w3.org/Graphics/SVG/1.1/DTD/svg11.dtd">
<svg version="1.1" id="Layer_7" xmlns="http://www.w3.org/2000/svg" xmlns:xlink="http://www.w3.org/1999/xlink" x="0px" y="0px"
	 width="120px" height="120px" viewBox="0 0 120 120" enable-background="new 0 0 120 120" xml:space="preserve">
<path fill="none" stroke="#03A9F4" stroke-width="1.5" stroke-linecap="round" stroke-miterlimit="10" d="M111.517,40.155
	L93.871,51.589H76.016"/>
<line fill="none" stroke="#03A9F4" stroke-width="1.5" stroke-linecap="round" stroke-miterlimit="10" x1="71.683" y1="40.155" x2="111.517" y2="40.155"/>
<path fill="none" stroke="#03A9F4" stroke-width="1.5" stroke-linecap="round" stroke-miterlimit="10" d="M38.183,51.589H8.849
	l17.646-11.434h16.522"/>
<path fill="none" stroke="#03A9F4" stroke-width="1.5" stroke-linecap="round" stroke-miterlimit="10" d="M48.183,51.589h18.5"/>
<path fill="none" stroke="#03A9F4" stroke-width="1.5" stroke-linecap="round" stroke-miterlimit="10" d="M46.017,65.716H8.849
	 M70.683,65.716h23.188l17.646-11.432"/>
<path fill="none" stroke="#03A9F4" stroke-width="1.5" stroke-linecap="round" stroke-miterlimit="10" d="M8.849,79.844h27.365
	 M47.015,79.844H67.35"/>
<path fill="none" stroke="#03A9F4" stroke-width="1.5" stroke-linecap="round" stroke-miterlimit="10" d="M111.517,68.411
	L93.871,79.844H77.516"/>
<line fill="none" stroke="#03A9F4" stroke-width="1.5" stroke-linecap="round" stroke-miterlimit="10" x1="45.995" y1="93.972" x2="8.849" y2="93.972"/>
<path fill="none" stroke="#03A9F4" stroke-width="1.5" stroke-linecap="round" stroke-miterlimit="10" d="M111.517,82.539
	L93.871,93.972H69.246"/>
<g>
	<path fill="#03A9F4" d="M71.128,80.22c0-1.605-0.223-3.026-0.668-4.263c-0.444-1.235-1.198-2.359-2.261-3.373
		s-2.478-1.971-4.244-2.873c-1.768-0.902-3.962-1.822-6.581-2.762c-2.348-0.791-4.454-1.606-6.32-2.446
		c-1.865-0.84-3.453-1.829-4.763-2.966c-1.31-1.136-2.312-2.483-3.003-4.04s-1.037-3.447-1.037-5.672c0-1.977,0.333-3.781,1-5.412
		c0.668-1.631,1.625-3.033,2.873-4.207s2.749-2.106,4.504-2.799c1.754-0.691,3.73-1.074,5.932-1.148v-6.933h2.039v6.933
		c2.224,0.123,4.213,0.556,5.968,1.297c1.754,0.741,3.243,1.785,4.467,3.133c1.224,1.347,2.162,2.978,2.817,4.893
		c0.654,1.916,0.982,4.109,0.982,6.58h-2.002c0-2.002-0.291-3.855-0.871-5.561c-0.581-1.705-1.434-3.182-2.558-4.43
		c-1.125-1.248-2.515-2.225-4.171-2.929c-1.655-0.704-3.572-1.056-5.746-1.056c-2.273,0-4.238,0.327-5.894,0.981
		c-1.655,0.655-3.027,1.521-4.114,2.595c-1.088,1.075-1.897,2.311-2.428,3.707c-0.532,1.396-0.797,2.824-0.797,4.281
		c0,1.533,0.172,2.904,0.518,4.115c0.347,1.211,1.02,2.335,2.021,3.373c1,1.037,2.396,2.02,4.188,2.946
		c1.792,0.927,4.135,1.872,7.025,2.836c2.273,0.791,4.337,1.601,6.19,2.428c1.854,0.829,3.441,1.816,4.764,2.966
		c1.321,1.149,2.348,2.502,3.077,4.06c0.729,1.557,1.093,3.447,1.093,5.671c0,2.002-0.34,3.813-1.02,5.431
		c-0.68,1.619-1.637,3.009-2.872,4.171c-1.236,1.161-2.719,2.082-4.448,2.762c-1.73,0.679-3.658,1.08-5.784,1.204v6.969h-2.039
		V93.75c-2.051-0.074-4.064-0.401-6.041-0.982c-1.978-0.58-3.738-1.495-5.283-2.743c-1.544-1.247-2.785-2.872-3.725-4.874
		s-1.408-4.448-1.408-7.34h2.001c0,2.669,0.464,4.899,1.39,6.691c0.928,1.792,2.119,3.225,3.578,4.3
		c1.457,1.074,3.095,1.841,4.911,2.298c1.817,0.458,3.603,0.686,5.356,0.686c2.1,0,3.979-0.32,5.635-0.964
		c1.655-0.642,3.059-1.501,4.208-2.576c1.148-1.074,2.025-2.311,2.632-3.707C70.824,83.143,71.128,81.703,71.128,80.22z"/>
</g>
<path fill="none" stroke="#03A9F4" stroke-width="1.5" stroke-linecap="round" stroke-miterlimit="10" d="M64.016,65.716"/>
</svg>
