<?xml version="1.0" encoding="utf-8"?>
<!-- Generator: Adobe Illustrator 16.0.0, SVG Export Plug-In . SVG Version: 6.00 Build 0)  -->
<!DOCTYPE svg PUBLIC "-//W3C//DTD SVG 1.1//EN" "http://www.w3.org/Graphics/SVG/1.1/DTD/svg11.dtd">
<svg version="1.1" id="Layer_1" xmlns="http://www.w3.org/2000/svg" xmlns:xlink="http://www.w3.org/1999/xlink" x="0px" y="0px"
	 width="120px" height="120px" viewBox="0 0 120 120" enable-background="new 0 0 120 120" xml:space="preserve">
<g id="support">
	<path fill="none" stroke="#03A9F4" stroke-width="1.5" stroke-miterlimit="10" d="M22.125,92.341
		c-0.425,0.181-0.857,0.345-1.306,0.478c-1.111,0.326-2.286,0.502-3.503,0.502c-6.843,0-12.389-5.549-12.389-12.391V56.152
		c0-6.843,5.546-12.389,12.389-12.389c0.966,0,1.905,0.111,2.808,0.319c0.693,0.161,1.364,0.381,2.008,0.653
		c-2.146,1.752-3.519,4.417-3.519,7.405v32.799C18.613,87.926,19.982,90.588,22.125,92.341z"/>
	<path fill="none" stroke="#03A9F4" stroke-width="1.5" stroke-miterlimit="10" d="M22.132,44.735
		c4.449,1.879,7.573,6.283,7.573,11.417V80.93c0,5.135-3.129,9.532-7.58,11.411"/>
	<path fill="none" stroke="#03A9F4" stroke-width="1.5" stroke-miterlimit="10" d="M15.132,54.498c0,1.199-0.971,2.17-2.168,2.17
		l0,0c-1.197,0-2.167-0.971-2.167-2.17l0,0c0-1.198,0.97-2.166,2.167-2.166l0,0C14.161,52.332,15.132,53.3,15.132,54.498
		L15.132,54.498z"/>
	<path fill="none" stroke="#03A9F4" stroke-width="1.5" stroke-miterlimit="10" d="M97.114,44.74
		c0.425-0.178,0.856-0.344,1.306-0.475c1.109-0.327,2.287-0.502,3.503-0.502c6.843,0,12.39,5.548,12.39,12.389V80.93
		c0,6.842-5.547,12.391-12.39,12.391c-0.966,0-1.905-0.111-2.807-0.32c-0.693-0.16-1.364-0.38-2.009-0.652
		c2.146-1.752,3.519-4.416,3.519-7.404V52.141C100.626,49.157,99.258,46.493,97.114,44.74z"/>
	<path fill="none" stroke="#03A9F4" stroke-width="1.5" stroke-miterlimit="10" d="M97.107,92.346
		c-4.449-1.879-7.572-6.281-7.572-11.416V56.152c0-5.134,3.128-9.533,7.579-11.412"/>
	<path fill="none" stroke="#03A9F4" stroke-width="1.5" stroke-miterlimit="10" d="M104.105,54.501c0-1.199,0.973-2.169,2.17-2.169
		l0,0c1.195,0,2.168,0.97,2.168,2.169l0,0c0,1.198-0.973,2.167-2.168,2.167l0,0C105.078,56.668,104.105,55.699,104.105,54.501
		L104.105,54.501z"/>
	<path fill="none" stroke="#03A9F4" stroke-width="1.5" stroke-linecap="round" stroke-miterlimit="10" d="M12.945,54.487
		c0-25.813,20.925-46.738,46.738-46.738s46.737,20.925,46.737,46.738"/>
	<path fill="none" stroke="#03A9F4" stroke-width="1.5" stroke-miterlimit="10" d="M101.923,93.318c0,0,2.392,16.016-15.103,16.016
		H65.139"/>
	<path fill="none" stroke="#03A9F4" stroke-width="1.5" stroke-linecap="round" stroke-miterlimit="10" d="M23.729,56.668v21.508"/>
	<path fill="none" stroke="#03A9F4" stroke-width="1.5" stroke-linecap="round" stroke-miterlimit="10" d="M95.512,78.176V56.668"/>
</g>
</svg>
