<?xml version="1.0" encoding="utf-8"?>
<!-- Generator: Adobe Illustrator 16.0.0, SVG Export Plug-In . SVG Version: 6.00 Build 0)  -->
<!DOCTYPE svg PUBLIC "-//W3C//DTD SVG 1.1//EN" "http://www.w3.org/Graphics/SVG/1.1/DTD/svg11.dtd">
<svg version="1.1" id="Layer_1" xmlns="http://www.w3.org/2000/svg" xmlns:xlink="http://www.w3.org/1999/xlink" x="0px" y="0px"
	 width="120px" height="120px" viewBox="0 0 120 120" enable-background="new 0 0 120 120" xml:space="preserve">
<g id="teams">
	<path fill="none" stroke="#03A9F4" stroke-width="1.5" stroke-miterlimit="10" d="M96.809,50.827
		c0,23.758-20.295,43.021-45.33,43.021L32.5,107.5L28,86.239C11.5,80,6.148,63.055,6.148,50.827
		c0-23.759,20.295-43.019,45.33-43.019C76.514,7.808,96.809,27.068,96.809,50.827z"/>
	<path fill="none" stroke="#03A9F4" stroke-width="1.5" stroke-miterlimit="10" d="M93.527,34.726
		c5.662,5.397,9.648,12.492,11.013,20.646c1.793,10.729-1.306,21.204-7.728,29.34l2.713,13.82L85,94.667
		c-16.667,8.333-30.279,5.745-37.685,2.175"/>
	<path fill="none" stroke="#03A9F4" stroke-width="1.5" stroke-miterlimit="10" d="M32.5,50c0,2.485-2.015,4.5-4.5,4.5
		s-4.5-2.015-4.5-4.5s2.015-4.5,4.5-4.5S32.5,47.515,32.5,50z"/>
	<path fill="none" stroke="#03A9F4" stroke-width="1.5" stroke-miterlimit="10" d="M80.074,50c0,2.485-2.016,4.5-4.5,4.5
		c-2.485,0-4.5-2.015-4.5-4.5s2.015-4.5,4.5-4.5C78.059,45.5,80.074,47.515,80.074,50z"/>
	<path fill="none" stroke="#03A9F4" stroke-width="1.5" stroke-miterlimit="10" d="M56.287,50c0,2.485-2.015,4.5-4.5,4.5
		c-2.485,0-4.5-2.015-4.5-4.5s2.015-4.5,4.5-4.5C54.272,45.5,56.287,47.515,56.287,50z"/>
</g>
</svg>
