<?xml version="1.0" encoding="utf-8"?>
<!-- Generator: Adobe Illustrator 16.0.0, SVG Export Plug-In . SVG Version: 6.00 Build 0)  -->
<!DOCTYPE svg PUBLIC "-//W3C//DTD SVG 1.1//EN" "http://www.w3.org/Graphics/SVG/1.1/DTD/svg11.dtd">
<svg version="1.1" id="shops" xmlns="http://www.w3.org/2000/svg" xmlns:xlink="http://www.w3.org/1999/xlink" x="0px" y="0px"
	 width="120px" height="120px" viewBox="0 0 120 120" enable-background="new 0 0 120 120" xml:space="preserve">
<g stroke="#03A9F4" stroke-width="1.5" stroke-miterlimit="10">
<path fill="#ffffff" d="M100.516,116H23.986l3.256-90.642h70.016
	L100.516,116z"/>
<path fill="none" d="M38.37,34.073V17.79
	c0-7.194,5.832-13.026,13.026-13.026h21.71c7.193,0,13.026,5.832,13.026,13.026v16.283"/>
<path fill="none" d="M86.248,71.46
	c0,13.196-10.698,23.896-23.897,23.896c-13.197,0-23.896-10.7-23.896-23.896c0-13.198,10.699-23.896,23.896-23.896
	C75.55,47.563,86.248,58.262,86.248,71.46z"/>
<path fill="none" d="M74.898,62.701L57.38,80.219l-7.577-7.577"/>
</g>
</svg>
